<svg width="249" height="200" viewBox="0 0 249 200" fill="none" xmlns="http://www.w3.org/2000/svg">
<g clip-path="url(#clip0_155_535)">
<path d="M233.151 152.734C254.826 134.256 246.247 119.918 222.9 99.2202C213.795 91.1488 194.554 100.098 174.192 109.047C142.339 123.047 107.743 137.046 104.918 85.8874C100.285 2.02571 34.3988 79.8105 30.6435 83.7321C6.59324 108.862 1.38037 151.052 29.324 177.009C40.0256 186.951 52.9196 193.53 62.2653 197.545L219.538 191.946C222.201 184.828 211.471 171.212 233.151 152.734Z" fill="#D3ECFA"/>
<path d="M230.78 63.9211V54.0076H227.69V28.6871H216.501V63.9211H211.678V142.188H235.988V63.9211H230.78Z" fill="#E0F1FB"/>
<path d="M191.034 63.1514H184.859V53.1406H182.927V38.8923H180.998V53.1406V56.0292V63.1514H176.37V67.389H171.738V56.0292H174.438V26.1834H171.738V10.2051H165.758V5.00728H159.583V-0.00012207H142.99V5.00728H141.062V10.2051H136.43V60.4573H124.465V49.1947H120.609V130.731H123.694V142.188H195.471V67.389H191.034V63.1514Z" fill="#E0F1FB"/>
<path d="M236.203 165.528C240.97 150.497 248.18 148.018 248.935 139.393C250.47 121.928 223.728 100.225 189.292 95.2337C166.801 91.9927 138.139 95.4282 121.607 107.849C98.6005 125.132 110.143 151.449 94.1306 154.711C88.5139 155.856 83.753 153.298 78.3303 150.74C73.217 148.328 67.5146 145.916 59.9511 146.608C43.7647 148.083 27.5986 162.983 31.1265 173.646C36.8102 190.739 92.5392 195.199 121.599 197.529C148.447 199.676 187.169 200.389 234.186 193.019C232.688 183.824 233.379 174.407 236.203 165.528Z" fill="#D3ECFA"/>
<path d="M241.964 198.983H161.361C180.711 198.864 203.029 197.536 227.768 193.983C236.808 195.462 241.964 197.168 241.964 198.983ZM155.534 198.983H18.1595C18.1595 196.175 30.4405 193.635 50.3395 191.786C54.6186 194.109 58.7003 196.014 62.2652 197.545L104.263 196.05C110.585 196.646 116.503 197.12 121.599 197.529C131.389 198.312 142.76 198.904 155.534 198.983Z" fill="#9D8EB8"/>
<path d="M62.2653 197.545C58.7004 196.014 54.6186 194.109 50.3396 191.786C54.8927 191.364 59.8391 190.977 65.1343 190.631C77.6308 193.21 91.7415 194.869 104.263 196.05L62.2653 197.545Z" fill="#988DB8"/>
<path d="M161.361 198.983H155.534C142.76 198.904 131.389 198.312 121.599 197.529C116.503 197.12 110.585 196.646 104.263 196.05C91.7414 194.869 77.6308 193.21 65.1343 190.631C83.4432 189.436 105.858 188.733 130.064 188.733C172.044 188.733 208.621 190.851 227.768 193.983C203.029 197.536 180.711 198.864 161.361 198.983Z" fill="#988DB8"/>
<path d="M102.766 99.5159C102.766 99.5159 98.9902 97.9197 98.909 92.0008C98.8279 86.0818 103.31 83.6592 104.532 86.2884C105.754 88.9177 112.964 87.2729 110.739 81.0218C108.515 74.7706 108.734 68.4628 115.376 70.4884C122.017 72.5141 123.865 67.2757 123.532 64.0955C123.199 60.9152 140.14 56.8518 135.711 66.2427C131.282 75.6335 126.487 71.8537 132.512 76.4479C138.537 81.042 140.867 88.7597 134.562 87.3256C128.257 85.8914 122.699 80.8435 123.601 85.0163C124.502 89.1892 140.104 90.9434 132.902 93.9899C125.7 97.0365 121.534 91.8265 118.757 90.7935C115.981 89.7604 119.975 96.9676 118.567 98.7259C117.158 100.484 109.98 102.238 104.926 99.8522L102.766 99.5159Z" fill="#73B2E0"/>
<path d="M87.2858 105.252C87.2858 105.252 75.8047 106.569 73.6976 99.7184C71.5906 92.8677 80.2623 95.1648 80.2623 95.1648C80.2623 95.1648 72.4066 86.2155 66.9096 86.3411C61.4127 86.4667 57.1336 76.857 64.7701 76.618C72.4066 76.379 72.772 77.2621 72.772 77.2621C72.772 77.2621 59.6791 73.778 63.3329 66.271C66.9868 58.764 72.5081 61.0043 74.7369 65.6876C76.1924 68.8772 77.3255 72.2033 78.1188 75.6173C78.1188 75.6173 76.9495 71.9185 81.4925 66.3682C86.0354 60.818 90.1561 68.0657 88.9341 72.8867C87.7121 77.7078 86.4982 79.8914 86.4982 79.8914C86.4982 79.8914 92.6285 70.6342 95.3404 75.3175C98.0524 80.0008 93.2334 83.2094 93.2334 83.2094C93.2334 83.2094 97.484 79.0407 100.05 79.7982C102.616 80.5558 105.441 88.2411 101.791 90.445C98.1417 92.6489 96.6233 94.2168 96.6233 94.2168C96.6233 94.2168 104.849 98.2883 102.713 100.67C100.578 103.053 87.2858 105.252 87.2858 105.252Z" fill="#73B2E0"/>
<path d="M60.3977 106.448C60.3977 106.448 57.8156 99.4795 64.0921 96.5544C70.3685 93.6294 79.1134 92.8677 81.7482 95.7442C81.7482 95.7442 69.7839 98.0858 69.723 103.47C69.6621 108.854 62.7442 112.476 60.3977 106.448Z" fill="#A9D7F3"/>
<path d="M62.72 91.6443C62.72 91.6443 47.9057 97.0892 46.2818 85.3567C44.6579 73.6242 52.1279 74.718 52.4852 78.3682C52.8425 82.0184 57.0159 91.8833 62.72 91.6443Z" fill="#A9D7F3"/>
<path d="M98.8481 48.3521C98.8481 48.3521 95.7748 55.6931 98.8481 61.0165C101.921 66.3399 99.2825 75.8726 99.2825 75.8726C99.2825 75.8726 105.267 68.0252 104.69 60.2913C104.114 52.5574 101.495 43.3083 98.8481 48.3521Z" fill="#A9D7F3"/>
<path d="M0 188.936H249V200H0V188.936Z" fill="#9AB6E3"/>
<path d="M66.5402 172.2C66.2398 172.662 65.9597 173.14 65.7039 173.63C64.6719 175.595 64.0061 177.731 63.739 179.934H36.6599V172.2H66.5402Z" fill="#363C49"/>
<path d="M192.264 172.2C190.75 174.532 189.787 177.176 189.447 179.934H100.468C100.126 177.176 99.1615 174.531 97.6464 172.2H192.264Z" fill="#363C49"/>
<path d="M236.772 172.2V179.934H226.192C225.851 177.176 224.886 174.531 223.37 172.2H236.772Z" fill="#363C49"/>
<path d="M163.561 101.003V173.63H98.4827C98.2269 173.14 97.9468 172.662 97.6464 172.2C92.097 163.628 80.6346 161.169 72.0448 166.707C69.8404 168.128 67.9643 170.001 66.5401 172.2C66.2397 172.662 65.9596 173.14 65.7038 173.63H40.533V101.003H163.561Z" fill="#5173C1"/>
<path d="M82.0933 190.633C71.0628 190.451 70.9775 174.043 82.0933 173.824C93.209 174.043 93.1238 190.455 82.0933 190.633ZM97.6423 179.934C95.8073 165.868 76.4948 161.671 68.9436 173.634C62.0419 183.576 69.8773 198.258 82.0933 197.913C91.5973 197.995 99.0958 189.292 97.6423 179.934Z" fill="#363C49"/>
<path d="M82.0771 188.956C73.2429 188.814 73.1739 175.676 82.0771 175.498C90.9964 175.676 90.9396 188.814 82.0933 188.956H82.0771ZM90.1967 179.934C87.5821 170.685 73.657 172.597 73.6692 182.227C74.1483 194.83 93.1847 192.177 90.1967 179.934Z" fill="#344385"/>
<path d="M88.8366 182.227C88.3779 192.655 72.6258 189.888 75.7519 179.934C78.2446 172.95 88.8732 174.793 88.8366 182.227Z" fill="#F8F8F8"/>
<path d="M233.325 150.854V173.63H224.207C217.951 160.666 197.684 160.666 191.428 173.63H166.286V108.024C166.286 108.024 191.481 108.165 194.639 108.024C197.798 107.882 202.714 111.317 202.714 111.317V120.591C210.237 128.154 225.725 143.509 233.325 150.854Z" fill="#5173C1"/>
<path d="M172.749 105.378H189.305V108.08H172.749V105.378Z" fill="#F8A16F"/>
<path d="M186.422 104.568C186.338 101.403 183.698 98.9054 180.527 98.9897C177.474 99.0707 175.018 101.521 174.937 104.568C174.937 104.839 174.956 105.11 174.994 105.378H186.361C186.4 105.11 186.421 104.839 186.422 104.568Z" fill="#F14574"/>
<path d="M183.848 122.349C183.848 120.925 182.693 119.771 181.266 119.768H175.331C173.904 119.771 172.749 120.925 172.749 122.349V138.469L183.848 127.389V122.349Z" fill="#D3ECFA"/>
<path d="M183.848 127.389L172.749 138.469V140.875C172.75 141.337 172.874 141.791 173.11 142.188L183.848 131.472V127.389Z" fill="#F8F8F8"/>
<path d="M173.11 142.2C173.574 142.984 174.419 143.465 175.331 143.464H181.266C182.692 143.464 183.848 142.311 183.848 140.888V131.473L173.11 142.2Z" fill="#D3ECFA"/>
<path d="M209.007 126.899L192.991 142.881H195.001L210.01 127.903L209.007 126.899Z" fill="#F8F8F8"/>
<path d="M210.01 127.903L195 142.881H204.094L214.544 132.453L210.01 127.903Z" fill="#D3ECFA"/>
<path d="M214.544 132.453L204.094 142.881H214.622L219.794 137.72L214.544 132.453Z" fill="#F8F8F8"/>
<path d="M219.794 137.72L214.622 142.881H224.942L219.794 137.72Z" fill="#D3ECFA"/>
<path d="M186.422 121.607V124.824L189.642 121.607H186.422Z" fill="#51A0B4"/>
<path d="M189.642 121.607L186.422 124.824V128.904L193.734 121.607H189.642Z" fill="#F8F8F8"/>
<path d="M203.729 121.608H193.734L186.422 128.904V142.881H192.991L209.007 126.899L203.729 121.608Z" fill="#D3ECFA"/>
<path d="M230.102 147.702L226.651 152.288V157.948H233.329V150.854L230.102 147.702Z" fill="#F8A16F"/>
<path d="M122.505 173.824H152.844V179.938H122.505V173.824Z" fill="#363C49"/>
<path d="M87.0423 112.156C97.2417 112.156 105.51 120.407 105.51 130.585C105.51 140.763 97.2417 149.015 87.0423 149.015C76.8424 149.015 68.5742 140.763 68.5742 130.585C68.5742 120.407 76.8424 112.156 87.0423 112.156Z" fill="#F3608D"/>
<path d="M96.4285 127.729H90.4931V121.899H83.5914V127.729H77.656V133.437H83.5914V139.267H90.4931V133.437H96.4285V127.729Z" fill="#F8F8F8"/>
<path d="M207.817 190.633C196.787 190.451 196.706 174.043 207.817 173.824C218.933 174.043 218.848 190.455 207.817 190.633ZM223.37 179.934C221.535 165.868 202.215 161.667 194.668 173.634C187.766 183.576 195.605 198.258 207.817 197.913C217.321 197.995 224.824 189.292 223.37 179.934Z" fill="#363C49"/>
<path d="M207.801 188.936C198.995 188.794 198.926 175.696 207.801 175.518C216.692 175.696 216.623 188.79 207.817 188.936H207.801ZM215.921 179.934C213.31 170.685 199.385 172.601 199.397 182.227C199.872 194.831 218.909 192.181 215.921 179.934Z" fill="#344385"/>
<path d="M214.54 182.227C214.086 192.631 198.362 189.86 201.5 179.934C203.993 172.99 214.577 174.817 214.54 182.227Z" fill="#F8F8F8"/>
<path d="M122.505 115.008H152.844V173.63H122.505V115.008Z" fill="#FCFCF6"/>
<path d="M124.985 144.319H129.305C129.724 144.319 130.064 144.658 130.064 145.077V145.231C130.064 145.649 129.724 145.988 129.305 145.988H124.985C124.566 145.988 124.226 145.649 124.226 145.231V145.077C124.226 144.658 124.566 144.319 124.985 144.319Z" fill="#363C49"/>
<path d="M140.088 118.055C135.151 123.171 130.437 128.511 125.732 133.855V135.767L143.461 118.075L140.088 118.055Z" fill="#F8F8F8"/>
<path d="M148.629 118.055H143.461L125.732 135.747V140.827H127.965C134.814 135.722 141.801 131.152 148.629 126.437V118.055Z" fill="#D3ECFA"/>
<path d="M148.63 132.274C148.224 132.42 147.818 132.566 147.44 132.68C142.272 134.511 137.104 137.031 133.19 140.811H148.617L148.63 132.274Z" fill="#D3ECFA"/>
<path d="M148.629 132.275V126.437C141.801 131.152 134.826 135.722 127.965 140.827H133.19C137.104 137.047 142.272 134.527 147.44 132.696C147.838 132.566 148.236 132.42 148.629 132.275Z" fill="#F8F8F8"/>
<path d="M125.732 118.054V133.854C130.437 128.531 135.151 123.191 140.088 118.054H125.732Z" fill="#D3ECFA"/>
<path d="M40.1392 159.167H42.3641C43.0189 159.167 43.5495 159.697 43.5495 160.35V165.357C43.5495 166.01 43.0189 166.54 42.3641 166.54H40.1392C39.4846 166.54 38.954 166.01 38.954 165.357V160.35C38.954 159.697 39.4846 159.167 40.1392 159.167Z" fill="#26315D"/>
<path d="M41.9337 99.3579H43.5576V106.731H38.9741V102.331C38.9741 100.697 40.296 99.3688 41.9337 99.3579Z" fill="#26315D"/>
<path d="M11.1443 95.5295H48.7663C48.7663 95.5295 52.3836 98.7341 47.4631 98.3046C42.5427 97.8752 11.1443 95.5295 11.1443 95.5295Z" fill="white"/>
<path d="M0 106.099C0 106.099 33.5704 104.183 31.979 106.731C30.3876 109.279 0 106.099 0 106.099Z" fill="white"/>
<path d="M128.29 30.4658C128.288 25.4045 124.175 21.303 119.104 21.3046C116.581 21.3058 114.17 22.3417 112.436 24.1701C110.83 21.719 107.75 20.6856 104.987 21.6704C104.637 17.4741 100.944 14.3554 96.7387 14.7046C92.5331 15.0543 89.4083 18.7389 89.7582 22.9356C89.7988 23.4259 89.8873 23.9116 90.0221 24.3848C85.8068 24.5789 82.5472 28.1464 82.7421 32.3525C82.93 36.4228 86.292 39.6261 90.3753 39.6257H120.483V39.5245C124.97 38.8442 128.287 34.9955 128.29 30.4658Z" fill="#D3ECFA"/>
</g>
<defs>
<clipPath id="clip0_155_535">
<rect width="249" height="200" fill="white"/>
</clipPath>
</defs>
</svg>
