<svg width="360" height="637" viewBox="0 0 360 637" fill="none" xmlns="http://www.w3.org/2000/svg">
<g clip-path="url(#clip0_155_613)">
<path d="M0 128.064L30 115.324C60 102.65 120 77.1699 180 67.6813C240 58.1926 300 64.5626 330 67.814L360 70.999V0H330C300 0 240 0 180 0C120 0 60 0 30 0H0V128.064Z" fill="#B7E0FF"/>
<path d="M0 198.399L30 190.901C60 183.337 120 168.341 180 169.336C240 170.331 300 187.318 330 195.878L360 204.371V69.6719L330 66.4869C300 63.2355 240 56.8655 180 66.3542C120 75.8428 60 101.323 30 113.996L0 126.736V198.399Z" fill="#E0F2FF"/>
<path d="M0 478.413L30 469.92C60 461.36 120 444.374 180 437.937C240 431.501 300 435.748 330 437.805L360 439.928V203.044L330 194.55C300 185.991 240 169.004 180 168.009C120 167.013 60 182.009 30 189.574L0 197.072V478.413Z" fill="#F8FCFF"/>
<path d="M0 516.899L30 508.406C60 499.846 120 482.859 180 481.731C240 480.603 300 495.467 330 502.832L360 510.264V438.601L330 436.478C300 434.421 240 430.174 180 436.61C120 443.047 60 460.033 30 468.593L0 477.086V516.899Z" fill="#E0F2FF"/>
<path d="M0 637.664H30C60 637.664 120 637.664 180 637.664C240 637.664 300 637.664 330 637.664H360V508.937L330 501.505C300 494.14 240 479.276 180 480.404C120 481.532 60 498.519 30 507.079L0 515.572V637.664Z" fill="#B7E0FF"/>
</g>
<defs>
<clipPath id="clip0_155_613">
<rect width="360" height="637" fill="white"/>
</clipPath>
</defs>
</svg>
