<svg width="36" height="36" viewBox="0 0 36 36" fill="none" xmlns="http://www.w3.org/2000/svg">
<path d="M18 21.375C16.7005 21.3761 15.421 21.0552 14.2759 20.4409C13.1307 19.8266 12.1557 18.9381 11.4379 17.8549L13.3121 16.6095C13.8252 17.3832 14.5218 18.0179 15.3398 18.4569C16.1577 18.896 17.0716 19.1257 18 19.1257C18.9284 19.1257 19.8423 18.896 20.6602 18.4569C21.4782 18.0179 22.1748 17.3832 22.6879 16.6095L24.5621 17.8549C23.8443 18.9381 22.8693 19.8266 21.7241 20.4409C20.579 21.0552 19.2995 21.3761 18 21.375ZM22.5 8.99999C22.055 8.99999 21.62 9.13195 21.25 9.37919C20.88 9.62642 20.5916 9.97782 20.4213 10.389C20.251 10.8001 20.2064 11.2525 20.2932 11.6889C20.3801 12.1254 20.5943 12.5263 20.909 12.841C21.2237 13.1557 21.6246 13.3699 22.061 13.4568C22.4975 13.5436 22.9499 13.499 23.361 13.3287C23.7722 13.1584 24.1236 12.87 24.3708 12.5C24.618 12.13 24.75 11.695 24.75 11.25C24.753 10.9537 24.6969 10.6597 24.5849 10.3854C24.4729 10.1111 24.3072 9.86183 24.0977 9.6523C23.8882 9.44276 23.6389 9.27714 23.3646 9.16514C23.0902 9.05313 22.7963 8.99698 22.5 8.99999ZM13.5 8.99999C13.055 8.99999 12.62 9.13195 12.25 9.37919C11.88 9.62642 11.5916 9.97782 11.4213 10.389C11.251 10.8001 11.2064 11.2525 11.2932 11.6889C11.3801 12.1254 11.5943 12.5263 11.909 12.841C12.2237 13.1557 12.6246 13.3699 13.061 13.4568C13.4975 13.5436 13.9499 13.499 14.361 13.3287C14.7722 13.1584 15.1236 12.87 15.3708 12.5C15.618 12.13 15.75 11.695 15.75 11.25C15.753 10.9537 15.6969 10.6597 15.5849 10.3854C15.4729 10.1111 15.3072 9.86183 15.0977 9.6523C14.8882 9.44276 14.6389 9.27714 14.3646 9.16514C14.0902 9.05313 13.7963 8.99698 13.5 8.99999Z" fill="#446881"/>
<path d="M19.672 33.25L17.75 32.1429L22.1786 24.3929H28.8214C29.1123 24.3933 29.4005 24.3363 29.6693 24.2252C29.9382 24.1141 30.1824 23.951 30.3881 23.7453C30.5938 23.5396 30.7569 23.2953 30.8681 23.0265C30.9792 22.7576 31.0361 22.4695 31.0357 22.1786V6.67857C31.0361 6.38766 30.9792 6.09953 30.8681 5.83068C30.7569 5.56184 30.5938 5.31756 30.3881 5.11186C30.1824 4.90616 29.9382 4.74307 29.6693 4.63195C29.4005 4.52082 29.1123 4.46385 28.8214 4.46429H6.67857C6.38766 4.46385 6.09953 4.52082 5.83068 4.63195C5.56184 4.74307 5.31756 4.90616 5.11186 5.11186C4.90616 5.31756 4.74307 5.56184 4.63195 5.83068C4.52082 6.09953 4.46385 6.38766 4.46429 6.67857V22.1786C4.46385 22.4695 4.52082 22.7576 4.63195 23.0265C4.74307 23.2953 4.90616 23.5396 5.11186 23.7453C5.31756 23.951 5.56184 24.1141 5.83068 24.2252C6.09953 24.3363 6.38766 24.3933 6.67857 24.3929H16.6429V26.6071H6.67857C5.50404 26.6071 4.37762 26.1406 3.5471 25.31C2.71658 24.4795 2.25 23.3531 2.25 22.1786V6.67857C2.24985 6.09696 2.3643 5.52102 2.58681 4.98366C2.80931 4.44629 3.13551 3.95803 3.54677 3.54677C3.95803 3.13551 4.44629 2.80931 4.98366 2.58681C5.52102 2.3643 6.09696 2.24985 6.67857 2.25H28.8214C29.403 2.24985 29.979 2.3643 30.5163 2.58681C31.0537 2.80931 31.542 3.13551 31.9532 3.54677C32.3645 3.95803 32.6907 4.44629 32.9132 4.98366C33.1357 5.52102 33.2501 6.09696 33.25 6.67857V22.1786C33.25 23.3531 32.7834 24.4795 31.9529 25.31C31.1224 26.1406 29.996 26.6071 28.8214 26.6071H23.4684L19.672 33.25Z" fill="#446881"/>
</svg>
