<svg width="40" height="37" viewBox="0 0 40 37" fill="none" xmlns="http://www.w3.org/2000/svg">
<path d="M4.00517 18.0343C4.53242 16.8761 4.63284 15.567 5.26051 14.4089C7.34438 10.6828 10.4576 8.56796 14.776 8.36654C16.1569 8.31619 17.5127 8.31619 18.8935 8.29102C19.4459 8.31619 20.0233 8.31619 20.5757 8.34137C22.4587 8.4169 24.3919 8.11478 26.2247 8.54278C30.8946 9.60018 33.7819 12.5458 34.9368 17.2034C35.0121 17.4804 34.9619 17.8077 35.213 18.0343C35.1377 20.6526 35.3887 23.2709 34.987 25.9144C34.2338 31.0252 29.7146 35.0786 24.5928 35.1038C21.2787 35.129 17.9646 35.129 14.6505 35.1038C10.0559 35.0786 5.66222 31.6546 4.50731 27.1984C3.729 24.1521 4.05539 21.1058 4.00517 18.0343ZM7.69588 24.9829C7.49502 25.3606 7.59545 25.713 7.84652 26.0152C9.12697 30.0434 11.4368 31.7554 15.6296 31.7554C18.4667 31.7554 21.3038 31.7554 24.1409 31.7554C24.7936 31.7554 25.4213 31.7805 26.049 31.5791C29.4635 30.5721 31.1959 28.1803 31.5725 24.7312C32.1248 23.3968 31.8235 22.0121 31.8235 20.6526C31.7984 16.5992 28.5346 13.3515 24.4924 13.3515C21.2536 13.3263 18.0399 13.3011 14.8011 13.3515C9.00143 13.4773 6.315 18.6385 7.67077 24.2528C7.69588 24.5046 7.69588 24.7563 7.69588 24.9829Z" fill="#F1F9FA"/>
<path d="M4.00518 18.0342C4.05539 21.0805 3.729 24.1521 4.53242 27.1732C5.71244 31.6294 10.081 35.0786 14.6756 35.0786C17.9897 35.0786 21.3038 35.1038 24.6179 35.0786C29.7397 35.0534 34.2589 31 35.0121 25.8892C35.4138 23.2709 35.1377 20.6525 35.2381 18.009C37.6232 18.437 39.0794 20.1238 39.205 22.5408C39.3305 24.8318 39.0543 27.0725 36.7194 28.004C35.1628 28.6334 34.5351 29.6657 33.807 31C31.7231 34.8268 28.3839 36.7654 24.0153 36.8409C21.1029 36.8913 18.1654 36.8661 15.253 36.8409C10.5078 36.8409 6.49075 34.0715 4.80859 29.5901C4.58263 28.9859 4.30646 28.6334 3.62857 28.4572C1.26853 27.8278 0.113616 26.141 0.0885091 23.573C0.0382954 20.2749 1.21832 18.5881 4.00518 18.0342Z" fill="#B7E0FF"/>
<path d="M18.9187 5.09359C18.0399 4.71595 17.3871 4.13689 17.1863 3.15502C16.9352 1.8962 17.588 0.712914 18.7931 0.25974C19.8727 -0.143081 21.103 0.284916 21.7306 1.24162C22.4085 2.29902 22.2077 3.68372 21.2787 4.51454C21.0527 4.71595 20.7766 4.84183 20.5255 5.01806C19.9731 5.04324 19.4459 5.06842 18.9187 5.09359Z" fill="#F1F9FA"/>
<path d="M18.9187 5.0936C19.4459 5.06842 19.9731 5.04324 20.5004 5.01807C20.4753 6.12582 20.4 7.23358 20.5757 8.34134C20.0234 8.31616 19.4459 8.31617 18.8936 8.29099C18.8936 7.23358 18.8936 6.17618 18.9187 5.0936Z" fill="#B7E0FF"/>
<path d="M31.5976 24.7311C31.221 28.2054 29.5137 30.572 26.0741 31.5791C25.4464 31.7553 24.7937 31.7553 24.166 31.7553C21.3289 31.7553 18.4918 31.7553 15.6548 31.7553C11.4619 31.7553 9.12699 30.0433 7.87165 26.0151C7.82144 25.6626 7.77122 25.3102 7.72101 24.9829C7.72101 24.7311 7.72101 24.4793 7.72101 24.2276C7.74612 23.4471 7.82144 22.6918 7.82144 21.9113C7.87165 17.5558 10.7589 14.585 15.0773 14.5347C18.1403 14.4843 21.1783 14.5095 24.2413 14.5347C28.5597 14.585 31.447 17.5558 31.5223 21.8862C31.4972 22.8429 31.3716 23.7996 31.5976 24.7311ZM19.6468 27.9537C20.8268 27.9285 21.8059 27.5257 22.534 26.5438C22.7851 26.1913 23.0864 25.7885 22.6596 25.4109C22.2077 25.008 21.9315 25.3857 21.6302 25.713C20.3497 27.148 18.9187 27.148 17.6131 25.6878C17.3369 25.3857 17.0859 25.0584 16.659 25.3353C16.1569 25.6626 16.408 26.0906 16.659 26.4431C17.3871 27.5005 18.4165 27.9285 19.6468 27.9537ZM25.0196 23.4471C26.1243 23.4723 26.9277 22.7422 26.8524 21.8358C26.7771 20.9043 26.275 20.3252 25.2958 20.3001C24.3668 20.2749 23.5885 21.005 23.6639 21.9113C23.7392 22.8177 24.2664 23.3716 25.0196 23.4471ZM14.2237 23.4471C14.9769 23.3716 15.5292 22.8429 15.6046 21.9113C15.6799 21.005 14.9267 20.2749 13.9977 20.3001C13.0186 20.3252 12.4913 20.8791 12.4411 21.8358C12.3407 22.717 13.0939 23.4471 14.2237 23.4471Z" fill="#06283D"/>
<path d="M31.5976 24.7311C31.3716 23.7996 31.5223 22.8429 31.4971 21.9114C31.4218 17.5559 28.5094 14.6102 24.2162 14.5599C21.1531 14.5347 18.1152 14.5095 15.0522 14.5599C10.7338 14.6102 7.84651 17.6062 7.79629 21.9365C7.79629 22.717 7.72097 23.4723 7.69586 24.2528C6.31499 18.6384 9.02653 13.4773 14.8262 13.3514C18.065 13.2759 21.2787 13.3262 24.5174 13.3514C28.5596 13.3766 31.8486 16.5992 31.8486 20.6525C31.8486 22.0121 32.1248 23.3968 31.5976 24.7311Z" fill="#BED2D7"/>
<path d="M7.6959 24.9829C7.74611 25.3354 7.79633 25.6878 7.84654 26.0151C7.59547 25.713 7.49504 25.3606 7.6959 24.9829Z" fill="#BED2D7"/>
<path d="M19.6467 27.9537C18.4165 27.9286 17.3871 27.5006 16.6841 26.4683C16.4331 26.1159 16.182 25.6879 16.6841 25.3606C17.111 25.0836 17.362 25.4109 17.6382 25.713C18.9438 27.1733 20.3748 27.1733 21.6553 25.7382C21.9566 25.3857 22.2327 25.0333 22.6847 25.4361C23.1115 25.8137 22.8102 26.2417 22.5591 26.569C21.8059 27.5006 20.8268 27.9286 19.6467 27.9537Z" fill="#B7E0FF"/>
<path d="M25.0196 23.4471C24.2664 23.3716 23.7391 22.8429 23.6638 21.9113C23.5885 21.0302 24.3668 20.2749 25.2957 20.3001C26.2749 20.3252 26.777 20.9043 26.8524 21.8358C26.9277 22.717 26.1494 23.4471 25.0196 23.4471Z" fill="#B7E0FF"/>
<path d="M14.2236 23.4471C13.1189 23.4723 12.3657 22.7422 12.4159 21.8107C12.4913 20.854 12.9934 20.3001 13.9726 20.2749C14.9015 20.2497 15.6547 20.9799 15.5794 21.8862C15.5041 22.8429 14.9768 23.3716 14.2236 23.4471Z" fill="#B7E0FF"/>
</svg>
