<svg width="231" height="186" viewBox="0 0 231 186" fill="none" xmlns="http://www.w3.org/2000/svg">
<g clip-path="url(#clip0_37_669)">
<path d="M223.558 99.2709H7.27191C3.27448 99.2709 0 95.9973 0 92.0009V7.26994C0 3.2736 3.27448 0 7.27191 0H223.558C227.555 0 230.83 3.2736 230.83 7.26994V92.0009C230.787 96.0398 227.555 99.2709 223.558 99.2709Z" fill="#B7E0FF"/>
<path d="M173.122 94.6368H41.5901C21.1778 94.5943 4.63525 78.0987 4.63525 57.6919V41.579C4.67778 21.1721 21.1778 4.63406 41.5901 4.63406H189.197C209.609 4.67658 226.152 21.1721 226.152 41.579C226.152 70.8713 202.38 94.5943 173.122 94.6368Z" fill="white"/>
<path d="M139.187 28.9097H52.2642C51.2436 28.9097 50.3931 28.0594 50.3931 27.0391C50.3931 26.0187 51.2436 25.1685 52.2642 25.1685H139.187C140.207 25.1685 141.058 26.0187 141.058 27.0391C141.058 28.0594 140.207 28.9097 139.187 28.9097Z" fill="#E6E6E6"/>
<path d="M183.201 48.8914H52.2642C51.2436 48.8914 50.3931 48.0411 50.3931 47.0208C50.3931 46.0005 51.2436 45.1502 52.2642 45.1502H183.201C184.222 45.1502 185.072 46.0005 185.072 47.0208C185.072 48.0411 184.222 48.8914 183.201 48.8914Z" fill="#E6E6E6"/>
<path d="M183.201 68.8731H52.2642C51.2436 68.8731 50.3931 68.0229 50.3931 67.0025C50.3931 65.9822 51.2436 65.1319 52.2642 65.1319H183.201C184.222 65.1319 185.072 65.9822 185.072 67.0025C185.072 68.0654 184.222 68.8731 183.201 68.8731Z" fill="#E6E6E6"/>
<path d="M183.201 68.8731H52.2642C51.2436 68.8731 50.3931 68.0229 50.3931 67.0025C50.3931 65.9822 51.2436 65.1319 52.2642 65.1319H183.201C184.222 65.1319 185.072 65.9822 185.072 67.0025C185.072 68.0654 184.222 68.8731 183.201 68.8731Z" fill="#E6E6E6"/>
<path d="M130.001 51.1872C130.086 53.3129 131.872 54.971 133.999 54.8859C134.211 54.8859 134.467 54.8434 134.679 54.8009L141.824 66.5349L144.885 60.0727L137.613 49.9118C137.018 47.8286 134.849 46.6382 132.808 47.2334C131.107 47.7861 129.916 49.4016 130.001 51.1872Z" fill="#FFB6B6"/>
<path d="M183.669 84.7735L159.046 71.424L151.264 64.1541C151.264 64.1541 147.905 63.2613 149.138 62.1559C150.371 61.0505 146.842 59.9877 146.842 59.9877L142.674 56.0764L136.763 60.2853L138.464 62.9637C138.464 62.9637 138.336 67.3851 140.76 66.5349C143.184 65.6846 142.589 69.3408 142.589 69.3408L156.963 91.6608L183.669 84.7735Z" fill="#0B4061"/>
<path d="M110.95 72.1893C124.243 72.1893 135.019 61.4158 135.019 48.1262C135.019 34.8365 124.243 24.0631 110.95 24.0631C97.6564 24.0631 86.8801 34.8365 86.8801 48.1262C86.8801 61.4158 97.6564 72.1893 110.95 72.1893Z" fill="#47B5FF"/>
<path d="M178.438 114.108H153.178V142.848H178.438V114.108Z" fill="#FFB6B6"/>
<path d="M151.434 186L162.321 173.118L162.491 183.747L162.533 186.043H182.436L183.243 169.249C183.243 169.249 181.628 164.063 183.541 163.382C185.455 162.702 183.796 158.238 183.796 158.238L184.094 152.414L178.481 134.345L153.816 128.308L149.563 133.367L142.164 148.885L126.557 186.043H151.434V186Z" fill="#06283D"/>
<path d="M178.821 114.108L181.543 105.946L183.499 103.225L184.264 95.4446C184.264 74.485 179.586 77.9712 179.586 77.9712L176.865 70.5737L164.447 70.1911L156.495 77.7586L149.903 80.0969L147.309 93.5314L152.03 107.859L153.178 115.639C150.967 119.763 151.137 117.807 152.965 120.868L174.909 126.905C182.691 129.626 182.691 122.654 181.117 120.868C179.586 119.168 178.821 114.108 178.821 114.108Z" fill="#0B4061"/>
<path d="M169.04 67.5977C175.405 67.5977 180.564 62.4394 180.564 56.0763C180.564 49.7133 175.405 44.555 169.04 44.555C162.675 44.555 157.516 49.7133 157.516 56.0763C157.516 62.4394 162.675 67.5977 169.04 67.5977Z" fill="#FFB6B6"/>
<path d="M184.434 71.4665C184.817 72.1467 184.604 72.997 183.924 73.4222C183.839 73.4647 183.754 73.5072 183.626 73.5497C182.095 74.0599 181.117 75.5479 180.012 76.7383C178.906 77.9287 177.12 78.9065 175.717 78.0987C174.313 77.291 174.228 75.2078 173.037 74.1024C171.889 72.997 169.976 73.1671 168.615 73.9748L168.572 74.0174C167.892 74.4425 167.041 74.2724 166.616 73.5922C166.403 73.2946 166.361 72.912 166.403 72.5719C166.871 70.0635 167.339 67.5552 167.807 65.0043C166.573 67.9803 164.745 70.7438 162.491 73.0395C161.853 73.7623 161.088 74.315 160.195 74.6551C159.387 74.9102 158.621 74.0599 157.813 74.2299C159.769 72.5294 166.318 61.6032 165.128 54.2907C163.767 54.4608 162.363 54.5883 161.003 54.7584C160.832 54.1207 160.535 53.5255 160.067 53.0153C160.11 53.653 160.024 54.2907 159.812 54.8859C159.216 54.971 158.664 55.0135 158.068 55.0985C157.26 55.1835 156.41 55.2686 155.729 54.8434C154.581 54.1632 154.539 52.5051 154.879 51.1872C155.814 47.4034 158.749 44.2148 162.278 42.5568C165.808 40.8987 166.871 44.5975 170.613 43.4071C178.013 41.0688 183.669 45.0651 185.625 52.4626C187.369 58.6697 186.135 65.2594 184.434 71.4665Z" fill="#2F2E41"/>
<path d="M108.738 80.5221L93.982 68.0654C92.9189 67.1726 92.7913 65.5995 93.6843 64.5367L96.406 61.3056C97.299 60.2427 98.8725 60.1152 99.9356 61.008L114.692 73.4647C115.755 74.3575 115.883 75.9305 114.99 76.9934L112.268 80.2245C111.375 81.2873 109.802 81.4149 108.738 80.5221Z" fill="#3F3D56"/>
<path d="M94.7474 64.8343C94.2796 65.387 94.3222 66.2373 94.9175 66.7049L109.674 79.1616C110.227 79.6293 111.077 79.5868 111.545 78.9916L114.267 75.7605C114.735 75.2078 114.692 74.3575 114.097 73.8898L99.3402 61.4331C98.7874 60.9655 97.9369 61.008 97.4691 61.6032L94.7474 64.8343Z" fill="white"/>
<path d="M103.423 69.6809C103.338 69.8085 103.168 69.8935 102.955 69.936L100.616 69.9785C100.318 69.9785 100.063 69.7234 100.021 69.4258C99.9781 69.1282 100.276 68.8731 100.574 68.8306L102.104 68.7881L100.616 64.8343C100.488 64.5367 100.659 64.1966 100.956 64.1115C101.254 63.984 101.594 64.1541 101.679 64.4517L103.465 69.1282C103.55 69.2983 103.55 69.5109 103.423 69.6809Z" fill="#B7E0FF"/>
<path d="M103.72 70.6588C105.847 70.9564 107.292 72.912 106.995 75.0377C106.952 75.2503 106.91 75.5054 106.825 75.7179L117.711 84.0933L110.95 86.4316L101.637 78.0988C99.6378 77.291 98.7023 75.0377 99.5103 73.0395C100.233 71.339 101.934 70.3612 103.72 70.6588Z" fill="#FFB6B6"/>
<path d="M160.365 74.7826L132.51 91.9159C132.51 91.9159 121.284 87.7495 123.452 85.8363C125.621 83.9232 118.647 82.6053 118.647 82.6053L110.907 77.4185L106.442 82.6053C106.442 82.6053 107.25 91.0656 108.653 89.5776C110.057 88.0896 112.098 92.1285 112.098 92.1285C112.098 92.1285 112.693 96.5925 116.648 95.4871C120.603 94.3817 131.192 106.158 131.192 106.158L165.468 93.3614L160.365 74.7826Z" fill="#0B4061"/>
<path d="M110.099 57.7769C109.461 57.7769 108.824 57.4793 108.441 56.9266L103.338 50.1243C102.657 49.189 102.827 47.9136 103.763 47.2334C104.699 46.5531 105.974 46.7232 106.655 47.6585L109.972 52.1225L118.562 39.2832C119.2 38.3479 120.476 38.0503 121.454 38.688C122.389 39.3257 122.687 40.6011 122.049 41.579L111.843 56.8841C111.46 57.4368 110.865 57.7769 110.184 57.8194C110.142 57.7769 110.099 57.7769 110.099 57.7769Z" fill="white"/>
</g>
<defs>
<clipPath id="clip0_37_669">
<rect width="231" height="186" fill="white"/>
</clipPath>
</defs>
</svg>
