<svg width="55" height="55" viewBox="0 0 55 55" fill="none" xmlns="http://www.w3.org/2000/svg">
<circle cx="27.5001" cy="27.5013" r="26.8889" fill="#D9D9D9"/>
<path d="M27.5287 11.3502C32.8568 11.3502 37.1966 15.6901 37.1966 21.0039C37.1966 26.3463 32.8425 30.7005 27.5 30.6862C22.1862 30.6718 17.8607 26.332 17.8607 21.0039C17.8607 15.6757 22.2005 11.3502 27.5287 11.3502ZM27.5287 28.5377C31.668 28.5377 35.0482 25.1575 35.0339 21.0182C35.0339 16.9075 31.668 13.5273 27.5573 13.5273C23.418 13.513 20.0234 16.8932 20.0234 21.0182C20.0091 25.1432 23.3893 28.5234 27.5287 28.5377Z" fill="#202020"/>
<path d="M54.9284 25.3294C54.7422 22.6653 54.1979 20.0872 53.181 17.6237C52.5651 16.1484 51.8203 14.7161 51.0755 13.2838C50.8034 12.7539 50.3164 12.582 49.8151 12.7395C49.3424 12.8828 48.9987 13.3125 49.0703 13.7851C49.099 14.0573 49.2279 14.3294 49.3711 14.5729C52.25 19.5429 53.3672 24.8711 52.6797 30.5716C51.9206 36.7304 49.2279 41.901 44.6875 46.1263C44.5872 46.2122 44.4727 46.2838 44.3438 46.3698C42.6107 38.75 36.237 33.3789 28.7031 32.8632C24.4635 32.5768 20.625 33.7226 17.2161 36.2578C13.8073 38.8073 11.6732 42.2018 10.6992 46.3841C10.513 46.2265 10.3984 46.1406 10.2839 46.026C3.17969 39.108 0.630208 30.7434 3.02214 21.1471C6.3737 7.64058 20.0521 -0.423218 33.6016 2.84241C37.0391 3.67314 40.1471 5.20569 42.9544 7.3398C43.5417 7.78381 44.2005 7.72652 44.5729 7.23954C44.974 6.70959 44.8594 6.09371 44.2292 5.62105C40.6771 2.91402 36.724 1.1523 32.3125 0.407511C31.2526 0.221314 30.1927 0.149699 29.1328 0.00646973H25.7956C24.7643 0.149699 23.7474 0.235636 22.7161 0.407511C11.7305 2.22652 2.60677 11.1354 0.544271 22.1067C0.315104 23.3099 0.143229 24.5273 0 25.7448V29.1823C0.143229 30.1849 0.24349 31.2018 0.429688 32.2044C1.86198 39.9961 5.91536 46.0833 12.4896 50.4804C16.3854 53.0872 20.7109 54.5338 25.3945 54.8919C25.5378 54.9062 25.6667 54.9921 25.8099 54.9921H29.2474C30.25 54.8489 31.2669 54.7343 32.2695 54.5625C38.6432 53.431 43.9857 50.4088 48.2539 45.539C52.0924 41.1562 54.2552 36.0286 54.8854 30.2421C54.9284 29.8841 55 29.526 55 29.1823V25.7448C55 25.6158 54.9284 25.4726 54.9284 25.3294ZM42.0951 48.1888C38.8724 50.4661 35.3203 51.927 31.4102 52.5C30.1354 52.6862 28.8464 52.7578 28.1875 52.8294C22.3008 52.7721 17.474 51.3255 13.1341 48.332C12.7474 48.0742 12.6615 47.802 12.7331 47.358C13.8359 41.0846 18.8633 36.1432 25.1654 35.1979C32.7852 34.0377 39.875 38.5351 41.9805 45.8541C42.1523 46.4414 42.2669 47.0429 42.3529 47.6302C42.3672 47.8164 42.2383 48.0885 42.0951 48.1888Z" fill="#202020"/>
<path d="M46.2201 9.84649C46.2201 9.24483 46.7214 8.75777 47.3231 8.7721C47.8961 8.78642 48.3689 9.27348 48.3689 9.84649C48.3689 10.4338 47.8531 10.9352 47.2658 10.9209C46.6928 10.9066 46.2201 10.4195 46.2201 9.84649Z" fill="black"/>
<path d="M28.1875 52.8151C22.3008 52.7721 17.474 51.3112 13.1341 48.3177C12.7474 48.0455 12.6615 47.7877 12.7331 47.3437C13.8359 41.0703 18.8633 36.1289 25.1654 35.1836C32.7852 34.0234 39.875 38.5208 41.9805 45.8398C42.1523 46.4271 42.2669 47.0143 42.3529 47.6159C42.3815 47.7877 42.2526 48.0599 42.1094 48.1744C38.8867 50.4518 35.3346 51.9127 31.4245 52.4856C30.1354 52.6718 28.8464 52.7578 28.1875 52.8151Z" fill="#47B5FF"/>
<path d="M27.5286 28.5377C23.3893 28.5377 20.0091 25.1432 20.0234 21.0182C20.0234 16.8789 23.418 13.513 27.5573 13.5273C31.668 13.5417 35.0339 16.9075 35.0339 21.0182C35.0482 25.1432 31.668 28.5377 27.5286 28.5377Z" fill="#F8FCFF"/>
<path d="M48.4544 45.3528C50.2018 43.3333 51.6484 41.1276 52.6654 38.664C53.2813 37.1888 53.7539 35.6419 54.2409 34.1093C54.4271 33.5364 54.1979 33.0781 53.7396 32.8346C53.3099 32.6054 52.7656 32.6627 52.4648 33.0494C52.293 33.2643 52.1927 33.5507 52.1211 33.8229C50.6458 39.3658 47.6667 43.9349 43.155 47.4726C38.2708 51.2968 32.6992 53.0442 26.5117 52.8151C26.4401 52.8151 26.3685 52.8007 26.2969 52.7864C26.0104 52.8151 25.7383 52.8437 25.4662 52.8437C24.9792 52.8437 24.4922 52.7864 24.0052 52.6862C23.2461 52.6289 22.4727 52.4427 21.7422 52.1419C18.4193 51.3828 15.3685 49.9935 12.6042 47.9166C11.5729 47.1432 10.6133 46.2838 10.0977 45.8685C5.97267 41.6718 3.59506 37.2317 2.6211 32.0468C2.60678 31.9895 2.60678 31.9466 2.60678 31.9036C2.43491 31.2734 2.34897 30.6289 2.32032 29.97C2.306 29.6263 2.32032 29.2682 2.37761 28.9388C2.34897 28.9531 2.32032 28.9674 2.29168 28.9961C2.27735 28.7669 2.24871 28.595 2.24871 28.4375C2.1198 18.5117 6.2448 10.7916 14.724 5.69267C26.6406 -1.48311 42.0091 2.48434 49.2708 14.3724C51.1185 17.3945 52.2357 20.6744 52.7083 24.1692C52.8086 24.8997 53.3099 25.3294 53.9258 25.2435C54.5846 25.1575 54.9427 24.6276 54.8281 23.8541C54.2409 19.4284 52.6797 15.3893 50.0872 11.7513C49.4714 10.8776 48.7695 10.0612 48.125 9.21611L45.776 6.86715C44.9453 6.23695 44.1576 5.57809 43.3125 4.97653C34.2461 -1.52608 21.4987 -1.6693 12.2891 4.63278C11.2721 5.3346 10.2982 6.06507 9.32423 6.82418L6.88933 9.25908C6.27345 10.0755 5.62892 10.8632 5.056 11.694C0.572927 18.2109 -0.873688 25.3724 0.658864 33.1354C1.57553 37.733 3.60938 41.8151 6.66017 45.3815C6.7461 45.4817 6.77475 45.6536 6.87501 45.7539L9.30991 48.1888C10.1263 48.8047 10.9284 49.4349 11.7591 50.0078C17.0729 53.7174 22.9883 55.3502 29.4479 54.9205C35.263 54.5338 40.4193 52.4427 44.9596 48.8046C45.2318 48.5755 45.5469 48.3893 45.7904 48.1458L48.2253 45.7109C48.3112 45.6106 48.3685 45.4674 48.4544 45.3528Z" fill="#202020"/>
</svg>
