<svg width="250" height="150" viewBox="0 0 250 150" fill="none" xmlns="http://www.w3.org/2000/svg">
<g clip-path="url(#clip0_155_1064)">
<path d="M15.1312 136.52C9.23802 141.543 7.99567 149.777 7.99567 149.777C7.99567 149.777 16.3417 149.873 22.235 144.849C28.1282 139.826 29.3705 131.592 29.3705 131.592C29.3705 131.592 21.0245 131.496 15.1312 136.52Z" fill="#F2F2F2"/>
<path d="M17.8389 138.491C15.3224 145.803 8.09123 149.968 8.09123 149.968C8.09123 149.968 4.93756 142.274 7.45412 134.93C9.97069 127.586 17.2018 123.485 17.2018 123.485C17.2018 123.485 20.3555 131.179 17.8389 138.491Z" fill="#F2F2F2"/>
<path d="M79.4151 30.2035C78.0772 28.4867 76.1977 26.8652 76.0703 24.7351C75.9748 22.7957 77.4082 20.8563 76.803 18.9805C76.3252 17.5498 74.7643 16.6914 73.2352 16.2145C70.3045 15.3561 67.1827 15.4833 64.3476 16.5642L64.5069 16.4689C62.7548 15.8648 60.7479 16.5007 59.3782 17.677C58.0084 18.8533 57.212 20.5066 56.5749 22.128C55.9378 23.7813 55.46 25.4663 54.568 26.9924C53.7079 28.5185 52.3382 29.9174 50.5861 30.4578C51.1914 31.6342 53.039 32.0475 54.1221 31.2209C54.4087 30.9983 54.6636 30.744 54.8547 30.4578C55.5874 29.5676 56.2882 28.7092 57.0209 27.819C57.7536 29.1543 56.6386 30.9665 57.5624 32.2065C58.0402 32.8423 58.9003 33.0649 59.6967 33.2556C65.9722 34.5909 72.4388 34.3366 78.5869 32.5562C79.0966 32.3972 79.6381 32.2065 79.8292 31.7614C80.0841 31.2527 79.7655 30.6804 79.4151 30.2035Z" fill="#2F2E41"/>
<path d="M97.1585 36.9437C97.1266 37.1027 97.0948 37.2934 97.0948 37.4524L83.397 45.3371L80.0841 43.4295L76.5482 48.0713L82.1228 52.0137C83.0466 52.6813 84.289 52.6495 85.1809 51.9501L99.2928 40.8543C101.013 41.4901 102.956 40.5999 103.593 38.8831C104.23 37.1663 103.338 35.2269 101.618 34.591C99.8981 33.9552 97.9549 34.8454 97.3178 36.5622C97.2541 36.6894 97.1904 36.8165 97.1585 36.9437Z" fill="#FFB7B7"/>
<path d="M82.9511 45.7185L78.5232 51.4412C78.0454 52.0771 77.1534 52.1725 76.5163 51.6956C76.4526 51.6638 76.4207 51.6002 76.357 51.5684L71.3557 46.3861C69.6356 45.0508 69.317 42.5391 70.6549 40.8223C71.9929 39.1055 74.5094 38.7876 76.2296 40.1229L82.5051 43.6201C83.2059 44.0016 83.4289 44.8918 83.0466 45.5595C83.0466 45.6231 82.9829 45.6867 82.9511 45.7185Z" fill="#47B5FF"/>
<path d="M76.8667 145.39H80.7531L82.6325 130.384H76.8667V145.39Z" fill="#FFB7B7"/>
<path d="M75.8792 144.118H83.5563C86.264 144.118 88.462 146.312 88.462 149.014V149.173H75.8792V144.118Z" fill="#2F2E41"/>
<path d="M50.1083 145.39H53.9946L55.8741 130.384H50.1083V145.39Z" fill="#FFB7B7"/>
<path d="M49.1208 144.118H56.7979C59.5056 144.118 61.7036 146.312 61.7036 149.014V149.173H49.1208V144.118Z" fill="#2F2E41"/>
<path d="M67.8198 34.0823C71.5496 34.0823 74.5732 31.0647 74.5732 27.3422C74.5732 23.6197 71.5496 20.6021 67.8198 20.6021C64.0901 20.6021 61.0665 23.6197 61.0665 27.3422C61.0665 31.0647 64.0901 34.0823 67.8198 34.0823Z" fill="#FFB7B7"/>
<path d="M71.7699 37.4524L75.7518 39.4236C75.7518 39.4236 80.1797 47.1175 77.6312 54.4299C76.3889 57.9908 79.893 69.3091 79.893 69.3091C79.893 69.3091 85.2765 120.56 85.3083 136.393C78.5869 137.41 72.2158 138.682 71.8973 135.502C71.5787 132.323 68.0747 94.7436 68.0747 94.7436C68.0747 94.7436 63.2645 136.456 59.4419 137.092C55.6193 137.728 47.974 136.774 47.974 136.774C47.974 136.774 54.0583 75.6677 58.1995 71.8526L58.8366 68.6732L58.8048 40.123L63.5831 37.8657L71.7699 37.4524Z" fill="#2F2E41"/>
<path d="M57.5306 80.7864C59.187 79.8962 59.8241 77.8296 58.9003 76.1446C58.8048 75.9538 58.6774 75.7948 58.5818 75.6359L63.2008 44.8601L57.1483 44.574L53.5487 75.2226C52.147 76.4943 52.0515 78.6562 53.3257 80.0869C54.4088 81.2633 56.1289 81.5494 57.5306 80.7864Z" fill="#FFB7B7"/>
<path d="M63.0734 52.5859L55.8422 52.1408C55.0459 52.0772 54.4406 51.4095 54.5043 50.6147C54.5043 50.5511 54.5043 50.4875 54.5362 50.3921L56.0334 43.3341C56.1927 41.1403 58.0721 39.4871 60.2701 39.6461C62.4681 39.805 64.0928 41.6808 63.9653 43.8746L64.5706 51.028C64.6343 51.8228 64.0609 52.5223 63.2645 52.5859C63.2008 52.5859 63.1371 52.5859 63.0734 52.5859Z" fill="#47B5FF"/>
<path d="M121.687 149.523H0.318552C0.127421 149.523 0 149.396 0 149.205C0 149.014 0.127421 148.887 0.318552 148.887H121.687C121.878 148.887 122.006 149.014 122.006 149.205C122.006 149.396 121.878 149.523 121.687 149.523Z" fill="#CBCBCB"/>
<path d="M74.8917 22.9865C74.6369 21.8102 73.7768 20.8246 72.7893 20.0933C69.4445 17.6453 64.8254 17.9314 61.7992 20.761C60.971 21.4922 60.3976 22.4142 60.1109 23.4634C59.8242 24.5444 60.1109 25.6571 60.8117 26.4837L60.9391 26.5791C60.8117 26.0704 61.2258 25.5299 61.7036 25.3074C62.2133 25.1166 62.723 25.0213 63.2645 24.9577C64.8892 24.6397 66.2908 23.6542 67.1509 22.2235C67.7561 23.9721 69.1259 25.371 70.8461 26.0704C71.738 26.4202 74.1909 26.8971 75.051 26.4519C76.1022 25.9115 75.1466 24.1628 74.8917 22.9865Z" fill="#2F2E41"/>
<path d="M179.313 35.4176H178.485V12.9716C178.485 5.81814 172.655 0 165.488 0H117.864C110.697 0 104.867 5.81814 104.867 12.9716V136.011C104.867 143.164 110.697 148.983 117.864 148.983H165.488C172.655 148.983 178.485 143.164 178.485 136.011V51.3777H179.313V35.4176Z" fill="#3F3D56"/>
<path d="M165.998 3.37012H159.786C160.742 5.72281 159.627 8.42522 157.269 9.37902C156.728 9.60157 156.123 9.72874 155.517 9.72874H128.249C125.701 9.72874 123.63 7.66219 123.63 5.11874C123.63 4.51467 123.758 3.94239 123.981 3.37012H118.183C112.831 3.37012 108.467 7.72578 108.467 13.067V135.916C108.467 141.257 112.831 145.613 118.183 145.613H166.03C171.381 145.613 175.745 141.289 175.745 135.916V13.067C175.714 7.72578 171.349 3.37012 165.998 3.37012Z" fill="white"/>
<path d="M109.2 9.37891C108.722 10.5235 108.467 11.7634 108.467 13.0669V135.916C108.467 141.257 112.831 145.612 118.183 145.612H166.03C167.909 145.612 169.629 145.072 171.126 144.182L109.2 9.37891Z" fill="#F2F2F2"/>
<path d="M142.393 98.2407C152.843 98.2407 161.315 89.7855 161.315 79.3556C161.315 68.9256 152.843 60.4705 142.393 60.4705C131.943 60.4705 123.471 68.9256 123.471 79.3556C123.471 89.7855 131.943 98.2407 142.393 98.2407Z" fill="white"/>
<path d="M142.425 142.242C153.297 142.242 162.111 133.446 162.111 122.594C162.111 111.743 153.297 102.946 142.425 102.946C131.552 102.946 122.738 111.743 122.738 122.594C122.738 133.446 131.552 142.242 142.425 142.242Z" fill="white"/>
<path d="M141.724 142.242C141.66 142.401 141.597 142.529 141.501 142.688C141.087 143.451 140.514 144.086 139.813 144.595C137.296 146.376 133.792 145.771 132.04 143.228C131.371 142.274 131.021 141.161 131.021 140.017V139.127H131.785C134.748 141.034 138.188 142.115 141.724 142.242Z" fill="#3F3D56"/>
<path d="M152.65 139.381V140.017C152.65 143.101 150.166 145.581 147.076 145.581C145.037 145.581 143.158 144.468 142.17 142.688C142.074 142.529 142.011 142.401 141.947 142.242C142.106 142.242 142.266 142.242 142.425 142.242C146.024 142.274 149.56 141.257 152.65 139.381Z" fill="#3F3D56"/>
<path d="M160.168 72.0431C160.009 72.0113 159.818 72.0113 159.659 71.9795C161.602 76.4305 161.729 81.4538 160.041 86.0003C160.2 85.9685 160.391 85.9685 160.55 85.9367C164.373 85.2054 166.858 81.5174 166.125 77.7023C165.552 74.7455 163.163 72.4564 160.168 72.0431Z" fill="#3F3D56"/>
<path d="M125.159 72.0115C125 72.0115 124.809 72.0433 124.65 72.0751C120.795 72.6155 118.087 76.1764 118.629 80.0233C119.043 83.0119 121.305 85.3964 124.267 85.9687C124.427 86.0005 124.618 86.0322 124.777 86.0322C123.121 81.4858 123.248 76.4625 125.159 72.0115Z" fill="#3F3D56"/>
<path d="M160.168 72.0432C156.059 62.2509 144.782 57.6409 134.971 61.7422C125.159 65.8436 120.54 77.0983 124.65 86.8906C128.759 96.6829 140.036 101.293 149.847 97.1916C157.015 94.203 161.665 87.2086 161.665 79.4828C161.665 76.9394 161.156 74.3959 160.168 72.0432ZM160.041 86.0322C156.409 95.7291 145.61 100.689 135.863 97.0644C126.147 93.44 121.177 82.6621 124.809 72.9334C128.44 63.2365 139.239 58.2768 148.987 61.9012C156.346 64.6354 161.219 71.6617 161.219 79.4828C161.219 81.7083 160.837 83.9339 160.041 86.0322Z" fill="#3F3D56"/>
<path d="M152.268 75.1272H132.582C130.415 75.1272 128.663 76.8758 128.663 79.0378C128.663 81.1997 130.415 82.9483 132.582 82.9483H152.268C154.434 82.9483 156.186 81.1997 156.186 79.0378C156.186 76.8758 154.434 75.1272 152.268 75.1272Z" fill="#3F3D56"/>
<path d="M160.041 112.865C159.977 112.738 159.882 112.611 159.818 112.484C154.211 102.914 141.883 99.6713 132.263 105.267C122.675 110.862 119.425 123.166 125.032 132.768C128.472 138.65 134.684 142.401 141.501 142.719C141.724 142.719 141.915 142.751 142.138 142.751C142.234 142.751 142.329 142.751 142.393 142.751C145.993 142.751 149.529 141.797 152.619 139.953C155.995 137.982 158.703 135.057 160.455 131.56C160.519 131.433 160.582 131.274 160.646 131.147C163.417 125.265 163.163 118.493 160.041 112.865ZM160.232 130.988C160.168 131.115 160.104 131.274 160.041 131.401C158.384 134.707 155.804 137.473 152.65 139.413C149.56 141.289 146.024 142.274 142.425 142.274C142.266 142.274 142.106 142.274 141.947 142.274C141.883 142.274 141.82 142.274 141.724 142.274C130.861 141.893 122.356 132.8 122.738 121.926C123.121 111.085 132.231 102.596 143.126 102.978C149.847 103.2 155.963 106.857 159.404 112.611C159.467 112.738 159.563 112.865 159.627 112.993C162.717 118.525 162.971 125.233 160.232 130.988Z" fill="#3F3D56"/>
<path d="M157.906 113.47C157.524 113.183 157.046 113.024 156.569 113.024H147.777C146.502 113.024 145.451 114.042 145.451 115.345C145.451 116.617 146.47 117.666 147.777 117.666H156.569C156.728 117.666 156.887 117.666 157.046 117.634C157.206 117.603 157.365 117.539 157.492 117.507C158.671 116.999 159.213 115.631 158.703 114.487C158.512 114.042 158.257 113.692 157.906 113.47Z" fill="#3F3D56"/>
<path d="M148.35 116.522C149.001 116.522 149.529 115.995 149.529 115.346C149.529 114.696 149.001 114.169 148.35 114.169C147.699 114.169 147.171 114.696 147.171 115.346C147.171 115.995 147.699 116.522 148.35 116.522Z" fill="#F1F1F1"/>
<path d="M152.173 116.522C152.823 116.522 153.351 115.995 153.351 115.346C153.351 114.696 152.823 114.169 152.173 114.169C151.522 114.169 150.994 114.696 150.994 115.346C150.994 115.995 151.522 116.522 152.173 116.522Z" fill="#F1F1F1"/>
<path d="M155.963 116.522C156.614 116.522 157.142 115.995 157.142 115.346C157.142 114.696 156.614 114.169 155.963 114.169C155.312 114.169 154.785 114.696 154.785 115.346C154.785 115.995 155.312 116.522 155.963 116.522Z" fill="#47B5FF"/>
<path d="M200.21 76.7168C197.152 78.529 191.705 80.8499 186.162 78.4654L182.562 76.9393L189.762 68.8957C176.988 54.8431 178.071 33.1602 192.119 20.4112C206.167 7.66212 227.924 8.74309 240.698 22.7639C253.472 36.7846 252.389 58.4993 238.341 71.2484C227.924 80.6909 212.825 82.8529 200.21 76.7168Z" fill="white"/>
<path d="M200.21 77.1619C197.28 78.8787 191.673 81.2632 186.003 78.8469L181.925 77.1301L189.252 68.9275C176.478 54.5888 177.784 32.6515 192.151 19.9343C206.518 7.217 228.498 8.48873 241.24 22.8274C253.918 37.039 252.74 58.8173 238.628 71.5981C228.147 81.0724 212.952 83.2662 200.21 77.1619ZM240.412 23.05C227.797 9.15638 206.295 8.10721 192.374 20.6973C178.453 33.2874 177.402 54.7477 190.017 68.6413C190.017 68.6413 190.017 68.6413 190.048 68.6731L190.271 68.9275L183.2 76.844L186.289 78.1475C191.8 80.4684 197.248 78.0521 199.987 76.3989L200.178 76.3035L200.37 76.3989C217.253 84.6015 237.608 77.5752 245.827 60.6931C251.879 48.1983 249.745 33.3192 240.412 23.05Z" fill="#47B5FF"/>
<path opacity="0.1" d="M244.266 45.6231C244.266 29.2497 231.747 15.6104 215.405 14.1479C216.329 14.0525 217.253 14.0208 218.208 14.0208C235.697 14.0208 249.841 28.1687 249.841 45.6231C249.841 63.0458 235.665 77.1937 218.208 77.1937C217.253 77.1937 216.329 77.1619 215.405 77.0665C231.747 75.6358 244.266 61.9966 244.266 45.6231Z" fill="black"/>
<path d="M219.706 39.3281H197.088V41.4265H219.706V39.3281Z" fill="#47B5FF"/>
<path d="M236.493 46.5769H197.088V48.6753H236.493V46.5769Z" fill="#47B5FF"/>
<path d="M236.462 53.8257H197.088V55.924H236.462V53.8257Z" fill="#47B5FF"/>
</g>
<defs>
<clipPath id="clip0_155_1064">
<rect width="250" height="150" fill="white"/>
</clipPath>
</defs>
</svg>
