<svg width="56" height="52" viewBox="0 0 56 52" fill="none" xmlns="http://www.w3.org/2000/svg">
<path d="M27 21.375C25.7005 21.3761 24.421 21.0552 23.2759 20.4409C22.1307 19.8266 21.1557 18.9381 20.4379 17.8549L22.3121 16.6095C22.8252 17.3832 23.5218 18.0179 24.3398 18.4569C25.1577 18.896 26.0716 19.1257 27 19.1257C27.9284 19.1257 28.8423 18.896 29.6602 18.4569C30.4782 18.0179 31.1748 17.3832 31.6879 16.6095L33.5621 17.8549C32.8443 18.9381 31.8693 19.8266 30.7241 20.4409C29.579 21.0552 28.2995 21.3761 27 21.375ZM31.5 8.99999C31.055 8.99999 30.62 9.13195 30.25 9.37919C29.88 9.62642 29.5916 9.97782 29.4213 10.389C29.251 10.8001 29.2064 11.2525 29.2932 11.6889C29.3801 12.1254 29.5943 12.5263 29.909 12.841C30.2237 13.1557 30.6246 13.3699 31.061 13.4568C31.4975 13.5436 31.9499 13.499 32.361 13.3287C32.7722 13.1584 33.1236 12.87 33.3708 12.5C33.618 12.13 33.75 11.695 33.75 11.25C33.753 10.9537 33.6969 10.6597 33.5849 10.3854C33.4729 10.1111 33.3072 9.86183 33.0977 9.6523C32.8882 9.44276 32.6389 9.27714 32.3646 9.16514C32.0902 9.05313 31.7963 8.99698 31.5 8.99999ZM22.5 8.99999C22.055 8.99999 21.62 9.13195 21.25 9.37919C20.88 9.62642 20.5916 9.97782 20.4213 10.389C20.251 10.8001 20.2064 11.2525 20.2932 11.6889C20.3801 12.1254 20.5943 12.5263 20.909 12.841C21.2237 13.1557 21.6246 13.3699 22.061 13.4568C22.4975 13.5436 22.9499 13.499 23.361 13.3287C23.7722 13.1584 24.1236 12.87 24.3708 12.5C24.618 12.13 24.75 11.695 24.75 11.25C24.753 10.9537 24.6969 10.6597 24.5849 10.3854C24.4729 10.1111 24.3072 9.86183 24.0977 9.6523C23.8882 9.44276 23.6389 9.27714 23.3646 9.16514C23.0902 9.05313 22.7963 8.99698 22.5 8.99999Z" fill="#446881"/>
<path d="M28.672 33.25L26.75 32.1429L31.1786 24.3929H37.8214C38.1123 24.3933 38.4005 24.3363 38.6693 24.2252C38.9382 24.1141 39.1824 23.951 39.3881 23.7453C39.5938 23.5396 39.7569 23.2953 39.8681 23.0265C39.9792 22.7576 40.0361 22.4695 40.0357 22.1786V6.67857C40.0361 6.38766 39.9792 6.09953 39.8681 5.83068C39.7569 5.56184 39.5938 5.31756 39.3881 5.11186C39.1824 4.90616 38.9382 4.74307 38.6693 4.63195C38.4005 4.52082 38.1123 4.46385 37.8214 4.46429H15.6786C15.3877 4.46385 15.0995 4.52082 14.8307 4.63195C14.5618 4.74307 14.3176 4.90616 14.1119 5.11186C13.9062 5.31756 13.7431 5.56184 13.6319 5.83068C13.5208 6.09953 13.4638 6.38766 13.4643 6.67857V22.1786C13.4638 22.4695 13.5208 22.7576 13.6319 23.0265C13.7431 23.2953 13.9062 23.5396 14.1119 23.7453C14.3176 23.951 14.5618 24.1141 14.8307 24.2252C15.0995 24.3363 15.3877 24.3933 15.6786 24.3929H25.6429V26.6071H15.6786C14.504 26.6071 13.3776 26.1406 12.5471 25.31C11.7166 24.4795 11.25 23.3531 11.25 22.1786V6.67857C11.2499 6.09696 11.3643 5.52102 11.5868 4.98366C11.8093 4.44629 12.1355 3.95803 12.5468 3.54677C12.958 3.13551 13.4463 2.80931 13.9837 2.58681C14.521 2.3643 15.097 2.24985 15.6786 2.25H37.8214C38.403 2.24985 38.979 2.3643 39.5163 2.58681C40.0537 2.80931 40.542 3.13551 40.9532 3.54677C41.3645 3.95803 41.6907 4.44629 41.9132 4.98366C42.1357 5.52102 42.2501 6.09696 42.25 6.67857V22.1786C42.25 23.3531 41.7834 24.4795 40.9529 25.31C40.1224 26.1406 38.996 26.6071 37.8214 26.6071H32.4684L28.672 33.25Z" fill="#446881"/>
<path d="M7.65625 45.8604C7.65625 46.0928 7.58561 46.3411 7.44434 46.6055C7.30762 46.8698 7.0957 47.1227 6.80859 47.3643C6.52604 47.6012 6.16829 47.7926 5.73535 47.9385C5.30241 48.0843 4.81478 48.1572 4.27246 48.1572C3.11947 48.1572 2.2194 47.8223 1.57227 47.1523C0.92513 46.4779 0.601562 45.5755 0.601562 44.4453C0.601562 43.6797 0.749674 43.0029 1.0459 42.415C1.34212 41.8271 1.77051 41.3737 2.33105 41.0547C2.8916 40.7311 3.56152 40.5693 4.34082 40.5693C4.82389 40.5693 5.26595 40.64 5.66699 40.7812C6.07259 40.9225 6.41439 41.1048 6.69238 41.3281C6.97493 41.5514 7.18913 41.7907 7.33496 42.0459C7.48535 42.2965 7.56055 42.5312 7.56055 42.75C7.56055 42.9733 7.47624 43.1624 7.30762 43.3174C7.14355 43.4723 6.94303 43.5498 6.70605 43.5498C6.55111 43.5498 6.42122 43.5111 6.31641 43.4336C6.21615 43.3516 6.10221 43.2217 5.97461 43.0439C5.74674 42.6976 5.50749 42.4378 5.25684 42.2646C5.01074 42.0915 4.69629 42.0049 4.31348 42.0049C3.76204 42.0049 3.31771 42.2214 2.98047 42.6543C2.64323 43.0827 2.47461 43.6706 2.47461 44.418C2.47461 44.7689 2.5179 45.0924 2.60449 45.3887C2.69108 45.6803 2.81641 45.931 2.98047 46.1406C3.14453 46.3457 3.34277 46.5029 3.5752 46.6123C3.80762 46.7171 4.06283 46.7695 4.34082 46.7695C4.71452 46.7695 5.03353 46.6829 5.29785 46.5098C5.56673 46.3366 5.80371 46.0723 6.00879 45.7168C6.12272 45.5072 6.24577 45.3431 6.37793 45.2246C6.51009 45.1061 6.67188 45.0469 6.86328 45.0469C7.09115 45.0469 7.28027 45.1335 7.43066 45.3066C7.58105 45.4798 7.65625 45.6644 7.65625 45.8604ZM10.7498 38.9424V41.7109C10.9867 41.4375 11.2169 41.221 11.4402 41.0615C11.6681 40.902 11.9187 40.7835 12.1921 40.7061C12.4656 40.624 12.7595 40.583 13.074 40.583C13.5479 40.583 13.9672 40.6833 14.3318 40.8838C14.7009 41.0843 14.9903 41.376 15.2 41.7588C15.3321 41.9821 15.421 42.2327 15.4666 42.5107C15.5121 42.7842 15.5349 43.1009 15.5349 43.4609V47.0361C15.5349 47.4098 15.4483 47.6924 15.2752 47.8838C15.1065 48.0752 14.881 48.1709 14.5984 48.1709C13.9832 48.1709 13.6755 47.7926 13.6755 47.0361V43.8848C13.6755 43.2878 13.5867 42.8298 13.4089 42.5107C13.2312 42.1872 12.894 42.0254 12.3972 42.0254C12.0645 42.0254 11.7638 42.1211 11.4949 42.3125C11.2306 42.4993 11.0323 42.7568 10.9002 43.085C10.7999 43.363 10.7498 43.8574 10.7498 44.5684V47.0361C10.7498 47.4053 10.6655 47.6878 10.4968 47.8838C10.3328 48.0752 10.1026 48.1709 9.80641 48.1709C9.19117 48.1709 8.88355 47.7926 8.88355 47.0361V38.9424C8.88355 38.5641 8.96331 38.2816 9.12281 38.0947C9.28687 37.9033 9.51474 37.8076 9.80641 37.8076C10.1026 37.8076 10.3328 37.9033 10.4968 38.0947C10.6655 38.2861 10.7498 38.5687 10.7498 38.9424ZM22.0943 47.1182C21.6431 47.4691 21.2056 47.7334 20.7818 47.9111C20.3625 48.0843 19.8908 48.1709 19.3667 48.1709C18.8882 48.1709 18.4667 48.0775 18.1021 47.8906C17.742 47.6992 17.464 47.4417 17.2681 47.1182C17.0721 46.7946 16.9741 46.4437 16.9741 46.0654C16.9741 45.555 17.1359 45.1198 17.4595 44.7598C17.7831 44.3997 18.2274 44.1582 18.7925 44.0352C18.911 44.0078 19.2049 43.9463 19.6743 43.8506C20.1437 43.7549 20.5448 43.6683 20.8775 43.5908C21.2147 43.5088 21.5793 43.4108 21.9712 43.2969C21.9484 42.8047 21.8482 42.4447 21.6704 42.2168C21.4973 41.9844 21.1349 41.8682 20.5835 41.8682C20.1096 41.8682 19.7518 41.9342 19.5103 42.0664C19.2733 42.1986 19.0682 42.3968 18.895 42.6611C18.7264 42.9255 18.6057 43.1009 18.5327 43.1875C18.4644 43.2695 18.314 43.3105 18.0816 43.3105C17.8719 43.3105 17.6896 43.2445 17.5347 43.1123C17.3843 42.9756 17.3091 42.8024 17.3091 42.5928C17.3091 42.2646 17.4253 41.9456 17.6577 41.6357C17.8902 41.3258 18.2525 41.0706 18.7446 40.8701C19.2368 40.6696 19.8498 40.5693 20.5835 40.5693C21.4038 40.5693 22.0487 40.6673 22.5181 40.8633C22.9875 41.0547 23.3179 41.36 23.5093 41.7793C23.7053 42.1986 23.8032 42.7546 23.8032 43.4473C23.8032 43.8848 23.801 44.2562 23.7964 44.5615C23.7964 44.8669 23.7941 45.2064 23.7896 45.5801C23.7896 45.931 23.8465 46.2979 23.9605 46.6807C24.079 47.0589 24.1382 47.3027 24.1382 47.4121C24.1382 47.6035 24.0471 47.779 23.8648 47.9385C23.687 48.0934 23.4842 48.1709 23.2564 48.1709C23.065 48.1709 22.8758 48.082 22.689 47.9043C22.5021 47.722 22.3039 47.46 22.0943 47.1182ZM21.9712 44.418C21.6978 44.5182 21.299 44.6253 20.7749 44.7393C20.2554 44.8486 19.8954 44.9307 19.6948 44.9854C19.4943 45.0355 19.3029 45.138 19.1206 45.293C18.9383 45.4434 18.8472 45.6553 18.8472 45.9287C18.8472 46.2113 18.9543 46.4528 19.1685 46.6533C19.3827 46.8493 19.6629 46.9473 20.0093 46.9473C20.3784 46.9473 20.718 46.8675 21.0279 46.708C21.3423 46.5439 21.5724 46.3343 21.7183 46.0791C21.8869 45.7965 21.9712 45.3317 21.9712 44.6846V44.418ZM25.4407 40.7471H25.6458V39.626C25.6458 39.3252 25.6526 39.0905 25.6663 38.9219C25.6845 38.7487 25.7301 38.6006 25.803 38.4775C25.8759 38.3499 25.9807 38.2474 26.1175 38.1699C26.2542 38.0879 26.4068 38.0469 26.5755 38.0469C26.8124 38.0469 27.0266 38.1357 27.218 38.3135C27.3457 38.432 27.4254 38.5778 27.4573 38.751C27.4938 38.9196 27.512 39.1611 27.512 39.4756V40.7471H28.1956C28.4599 40.7471 28.6604 40.8109 28.7971 40.9385C28.9384 41.0615 29.0091 41.221 29.0091 41.417C29.0091 41.6676 28.9088 41.8431 28.7083 41.9434C28.5123 42.0436 28.2298 42.0938 27.8606 42.0938H27.512V45.5254C27.512 45.8171 27.5211 46.0426 27.5393 46.2021C27.5621 46.3571 27.6168 46.4847 27.7034 46.585C27.7945 46.6807 27.9404 46.7285 28.1409 46.7285C28.2503 46.7285 28.3984 46.7103 28.5852 46.6738C28.7721 46.6328 28.9179 46.6123 29.0227 46.6123C29.1731 46.6123 29.3076 46.6738 29.4261 46.7969C29.5491 46.9154 29.6106 47.0635 29.6106 47.2412C29.6106 47.542 29.4466 47.7721 29.1184 47.9316C28.7903 48.0911 28.3186 48.1709 27.7034 48.1709C27.1201 48.1709 26.678 48.0729 26.3772 47.877C26.0764 47.681 25.8782 47.4098 25.7825 47.0635C25.6914 46.7171 25.6458 46.2546 25.6458 45.6758V42.0938H25.3997C25.1308 42.0938 24.9257 42.0299 24.7845 41.9023C24.6432 41.7747 24.5725 41.613 24.5725 41.417C24.5725 41.221 24.6455 41.0615 24.7913 40.9385C24.9417 40.8109 25.1582 40.7471 25.4407 40.7471ZM35.5037 38.874V41.7246C35.8546 41.36 36.2124 41.082 36.577 40.8906C36.9415 40.6947 37.3927 40.5967 37.9305 40.5967C38.5503 40.5967 39.0926 40.7448 39.5574 41.041C40.0268 41.3327 40.3891 41.7588 40.6443 42.3193C40.9041 42.8753 41.034 43.5361 41.034 44.3018C41.034 44.8669 40.9611 45.3864 40.8152 45.8604C40.674 46.3298 40.4666 46.7376 40.1932 47.084C39.9197 47.4303 39.587 47.6992 39.1951 47.8906C38.8077 48.0775 38.3794 48.1709 37.91 48.1709C37.6229 48.1709 37.3517 48.1367 37.0965 48.0684C36.8458 48 36.6316 47.9111 36.4539 47.8018C36.2762 47.6878 36.1235 47.5716 35.9959 47.4531C35.8729 47.3346 35.7088 47.1569 35.5037 46.9199V47.1045C35.5037 47.4554 35.4194 47.722 35.2508 47.9043C35.0822 48.082 34.868 48.1709 34.6082 48.1709C34.3439 48.1709 34.132 48.082 33.9725 47.9043C33.8175 47.722 33.74 47.4554 33.74 47.1045V38.9561C33.74 38.5778 33.8152 38.293 33.9656 38.1016C34.1206 37.9056 34.3348 37.8076 34.6082 37.8076C34.8953 37.8076 35.1163 37.901 35.2713 38.0879C35.4262 38.2702 35.5037 38.5322 35.5037 38.874ZM35.5926 44.418C35.5926 45.1608 35.7612 45.7327 36.0984 46.1338C36.4402 46.5303 36.8868 46.7285 37.4383 46.7285C37.9077 46.7285 38.311 46.5257 38.6482 46.1201C38.99 45.71 39.1609 45.1243 39.1609 44.3633C39.1609 43.8711 39.0903 43.4473 38.949 43.0918C38.8077 42.7363 38.6072 42.4629 38.3475 42.2715C38.0877 42.0755 37.7846 41.9775 37.4383 41.9775C37.0828 41.9775 36.7661 42.0755 36.4881 42.2715C36.2101 42.4629 35.9913 42.7432 35.8318 43.1123C35.6723 43.4769 35.5926 43.9121 35.5926 44.418ZM49.5074 44.377C49.5074 44.9329 49.4208 45.4456 49.2476 45.915C49.0744 46.3844 48.8238 46.7878 48.4957 47.125C48.1675 47.4622 47.7756 47.722 47.3199 47.9043C46.8642 48.082 46.3515 48.1709 45.7818 48.1709C45.2167 48.1709 44.7086 48.0798 44.2574 47.8975C43.8062 47.7152 43.4143 47.4554 43.0816 47.1182C42.7535 46.7764 42.5028 46.3753 42.3296 45.915C42.161 45.4502 42.0767 44.9375 42.0767 44.377C42.0767 43.8118 42.1633 43.2946 42.3365 42.8252C42.5097 42.3558 42.758 41.9548 43.0816 41.6221C43.4052 41.2894 43.7971 41.0342 44.2574 40.8564C44.7177 40.6742 45.2258 40.583 45.7818 40.583C46.3469 40.583 46.8596 40.6742 47.3199 40.8564C47.7802 41.0387 48.1744 41.2985 48.5025 41.6357C48.8306 41.973 49.079 42.374 49.2476 42.8389C49.4208 43.3037 49.5074 43.8164 49.5074 44.377ZM47.6343 44.377C47.6343 43.6159 47.4657 43.0234 47.1285 42.5996C46.7958 42.1758 46.3469 41.9639 45.7818 41.9639C45.4172 41.9639 45.0959 42.0596 44.8179 42.251C44.5399 42.4378 44.3257 42.7158 44.1754 43.085C44.025 43.4541 43.9498 43.8848 43.9498 44.377C43.9498 44.8646 44.0227 45.2907 44.1685 45.6553C44.3189 46.0199 44.5308 46.3001 44.8043 46.4961C45.0823 46.6875 45.4081 46.7832 45.7818 46.7832C46.3469 46.7832 46.7958 46.5713 47.1285 46.1475C47.4657 45.7191 47.6343 45.1289 47.6343 44.377ZM51.0765 40.7471H51.2816V39.626C51.2816 39.3252 51.2884 39.0905 51.3021 38.9219C51.3203 38.7487 51.3659 38.6006 51.4388 38.4775C51.5117 38.3499 51.6165 38.2474 51.7532 38.1699C51.89 38.0879 52.0426 38.0469 52.2113 38.0469C52.4482 38.0469 52.6624 38.1357 52.8538 38.3135C52.9814 38.432 53.0612 38.5778 53.0931 38.751C53.1295 38.9196 53.1478 39.1611 53.1478 39.4756V40.7471H53.8314C54.0957 40.7471 54.2962 40.8109 54.4329 40.9385C54.5742 41.0615 54.6448 41.221 54.6448 41.417C54.6448 41.6676 54.5446 41.8431 54.3441 41.9434C54.1481 42.0436 53.8655 42.0938 53.4964 42.0938H53.1478V45.5254C53.1478 45.8171 53.1569 46.0426 53.1751 46.2021C53.1979 46.3571 53.2526 46.4847 53.3392 46.585C53.4303 46.6807 53.5762 46.7285 53.7767 46.7285C53.8861 46.7285 54.0342 46.7103 54.221 46.6738C54.4079 46.6328 54.5537 46.6123 54.6585 46.6123C54.8089 46.6123 54.9433 46.6738 55.0618 46.7969C55.1849 46.9154 55.2464 47.0635 55.2464 47.2412C55.2464 47.542 55.0823 47.7721 54.7542 47.9316C54.4261 48.0911 53.9544 48.1709 53.3392 48.1709C52.7558 48.1709 52.3138 48.0729 52.013 47.877C51.7122 47.681 51.514 47.4098 51.4183 47.0635C51.3271 46.7171 51.2816 46.2546 51.2816 45.6758V42.0938H51.0355C50.7666 42.0938 50.5615 42.0299 50.4202 41.9023C50.279 41.7747 50.2083 41.613 50.2083 41.417C50.2083 41.221 50.2812 41.0615 50.4271 40.9385C50.5775 40.8109 50.7939 40.7471 51.0765 40.7471Z" fill="#446881"/>
</svg>
