<svg width="197" height="174" viewBox="0 0 197 174" fill="none" xmlns="http://www.w3.org/2000/svg">
<g clip-path="url(#clip0_155_1212)">
<path d="M188.273 173.769L188.011 173.67C187.953 173.649 182.216 171.453 179.529 166.475C176.841 161.496 178.157 155.502 178.171 155.442L178.233 155.169L178.495 155.267C178.552 155.289 184.289 157.485 186.977 162.463C189.665 167.442 188.349 173.436 188.335 173.496L188.273 173.769ZM179.959 166.243C182.231 170.452 186.765 172.61 187.914 173.103C188.132 171.873 188.817 166.9 186.547 162.695C184.277 158.49 179.741 156.329 178.592 155.835C178.374 157.066 177.689 162.038 179.959 166.243Z" fill="#3F3D56"/>
<path d="M181.583 164.729C186.412 167.631 188.273 173.396 188.273 173.396C188.273 173.396 182.302 174.455 177.472 171.553C172.642 168.65 170.782 162.885 170.782 162.885C170.782 162.885 176.753 161.826 181.583 164.729Z" fill="#47B5FF"/>
<path d="M103.826 93.2519C104.06 92.8903 104.368 92.5821 104.73 92.3477C105.092 92.1132 105.499 91.9578 105.925 91.8914C106.351 91.8251 106.786 91.8495 107.202 91.9629C107.618 92.0763 108.005 92.2762 108.338 92.5495C108.443 92.6364 108.542 92.7307 108.634 92.8315L120.662 91.0824L121.331 82.048C121.383 81.3549 121.707 80.7106 122.234 80.2567C122.761 79.8028 123.447 79.5765 124.141 79.6277C124.835 79.6789 125.48 80.0034 125.934 80.5296C126.389 81.0559 126.615 81.741 126.564 82.4341C126.563 82.4502 126.561 82.4662 126.56 82.4823L125.387 95.1592L125.382 95.1874C125.229 95.6747 124.923 96.0999 124.51 96.3998C124.096 96.6998 123.597 96.8585 123.086 96.8525L108.938 96.6085C108.883 96.6923 108.824 96.7731 108.761 96.8507C108.487 97.1834 108.146 97.4547 107.76 97.6466C107.374 97.8386 106.952 97.9469 106.521 97.9645C106.09 97.9821 105.661 97.9086 105.26 97.7488C104.86 97.589 104.498 97.3465 104.198 97.0372C104.137 96.9749 104.079 96.9105 104.025 96.844C103.617 96.3425 103.378 95.7252 103.343 95.0801C103.307 94.435 103.476 93.7952 103.826 93.2519Z" fill="#FFB7B7"/>
<path d="M128.076 170.281L124.645 170.281L123.013 157.064L128.076 157.064L128.076 170.281Z" fill="#FFB7B7"/>
<path d="M128.951 173.602L117.889 173.602V173.462C117.889 172.322 118.343 171.228 119.15 170.421C119.958 169.615 121.053 169.162 122.195 169.162H122.195L128.951 169.162L128.951 173.602Z" fill="#2F2E41"/>
<path d="M152.047 167.174L148.801 168.28L142.984 156.297L147.776 154.665L152.047 167.174Z" fill="#FFB7B7"/>
<path d="M153.949 170.036L143.48 173.603L143.435 173.47C143.066 172.391 143.142 171.209 143.645 170.186C144.149 169.162 145.039 168.38 146.119 168.012L146.12 168.012L152.514 165.833L153.949 170.036Z" fill="#2F2E41"/>
<path d="M131.853 54.7176C131.853 54.7176 128.439 53.5912 126.244 58.0966C124.049 62.602 120.634 67.558 120.634 67.558L122.586 68.0085C122.586 68.0085 123.073 64.8548 124.293 64.4042L123.805 68.4591C123.805 68.4591 138.439 73.1898 145.024 68.0086L144.78 66.4317C144.78 66.4317 145.755 66.6569 145.755 68.0086L146.487 67.3327C146.487 67.3327 145.755 65.9811 143.56 64.179C142.12 62.9961 141.624 60.7457 141.454 59.3387C141.319 58.1475 140.808 57.0303 139.994 56.149C138.536 54.5875 135.878 52.9279 131.853 54.7176Z" fill="#2F2E41"/>
<path d="M133.112 70.4589C136.556 70.4589 139.348 67.67 139.348 64.2297C139.348 60.7894 136.556 58.0005 133.112 58.0005C129.668 58.0005 126.876 60.7894 126.876 64.2297C126.876 67.67 129.668 70.4589 133.112 70.4589Z" fill="#FFB7B7"/>
<path d="M124.797 75.5882L123.663 75.2107C123.663 75.2107 121.395 76.1545 121.395 77.8534C121.395 79.5523 121.017 86.3478 121.017 86.3478L126.12 86.9141L124.797 75.5882Z" fill="#CBCBCB"/>
<path d="M145.091 112.718C144.621 112.191 144.356 111.514 144.343 110.808C144.331 110.103 144.572 109.417 145.024 108.874L141.841 82.2467C141.81 81.6187 142.029 81.0041 142.451 80.5377C142.873 80.0712 143.463 79.7911 144.092 79.7588C144.72 79.7264 145.336 79.9445 145.804 80.3651C146.272 80.7857 146.553 81.3746 146.587 82.0024C146.587 82.0111 146.588 82.0198 146.588 82.0285L149.436 108.684C149.539 108.788 149.634 108.899 149.72 109.017C149.949 109.332 150.113 109.69 150.203 110.069C150.293 110.447 150.308 110.84 150.246 111.225C150.184 111.609 150.047 111.977 149.842 112.309C149.638 112.64 149.37 112.928 149.054 113.157C149.022 113.18 148.988 113.203 148.955 113.226C148.589 113.467 148.174 113.625 147.74 113.688C147.306 113.75 146.864 113.716 146.445 113.588C145.921 113.43 145.452 113.128 145.091 112.718Z" fill="#FFB7B7"/>
<path d="M142.176 86.3477L147.278 85.7814C147.278 85.7814 146.901 78.9859 146.901 77.287C146.901 75.5881 144.633 74.6443 144.633 74.6443L143.499 75.0218L142.176 86.3477Z" fill="#CBCBCB"/>
<path d="M125.553 95.7763C125.553 95.7763 121.206 103.714 121.206 113.341C121.206 122.968 120.828 167.139 120.828 167.139C120.828 167.139 126.498 169.782 129.899 166.573L132.923 117.683L144.829 165.629C144.829 165.629 150.498 166.761 153.144 164.874L148.041 131.462C148.041 131.462 145.963 100.128 140.293 97.8624C134.624 95.5972 125.553 95.7763 125.553 95.7763Z" fill="#2F2E41"/>
<path d="M126.373 64.269C128.581 62.6731 130.368 60.8349 131.55 58.6483C131.55 58.6483 135.602 63.1448 138.078 63.3697C140.554 63.5945 138.303 57.9738 138.303 57.9738L133.801 56.8496L129.524 57.2993L126.148 59.5476L126.373 64.269Z" fill="#2F2E41"/>
<path d="M139.348 73.5117C139.348 73.5117 139.528 73.4152 128.766 73.8068L124.262 75.0459L123.663 75.2106C123.663 75.2106 124.23 86.5365 125.742 88.6129C127.254 90.6893 126.876 91.8219 126.498 92.0106C126.12 92.1994 125.175 91.8219 125.742 92.7657C126.309 93.7095 127.065 93.1432 126.309 93.7095C125.553 94.2758 125.175 96.3522 125.175 96.3522L141.805 98.6174C141.805 98.6174 142.372 91.2556 143.884 87.4803C145.396 83.705 145.774 82.1949 145.774 82.1949L144.64 74.6443L139.348 73.5117Z" fill="#CBCBCB"/>
<path d="M107.731 41.3138H106.775V15.1455C106.775 11.1287 105.177 7.27637 102.333 4.43603C99.4899 1.59569 95.6332 6.47499e-06 91.6117 0L36.1071 0C32.0857 -1.10073e-05 28.229 1.59566 25.3854 4.43599C22.5418 7.27631 20.9443 11.1286 20.9443 15.1455V158.707C20.9443 162.724 22.5418 166.576 25.3854 169.416C28.2289 172.257 32.0857 173.852 36.1071 173.852H91.6116C93.6029 173.852 95.5746 173.461 97.4142 172.7C99.2539 171.938 100.925 170.823 102.333 169.416C103.741 168.01 104.858 166.34 105.62 164.503C106.382 162.665 106.775 160.696 106.775 158.707V59.9409H107.731L107.731 41.3138Z" fill="#3F3D56"/>
<path d="M103.547 15.2518V158.602C103.549 160.086 103.257 161.556 102.69 162.928C102.123 164.299 101.291 165.546 100.241 166.596C99.1912 167.646 97.9448 168.48 96.5726 169.049C95.2005 169.618 93.7296 169.912 92.2438 169.913H36.4526C33.4514 169.915 30.5723 168.726 28.4487 166.608C26.3251 164.49 25.1308 161.616 25.1287 158.618V15.2518C25.1277 13.7675 25.4193 12.2975 25.987 10.9258C26.5547 9.55404 27.3874 8.30742 28.4374 7.25711C29.4875 6.20679 30.7343 5.37335 32.1068 4.80436C33.4793 4.23536 34.9506 3.94197 36.4366 3.94092H43.218C42.8848 4.75683 42.7577 5.64208 42.8477 6.51865C42.9378 7.39522 43.2423 8.23622 43.7344 8.96754C44.2265 9.69886 44.8912 10.2981 45.6698 10.7123C46.4484 11.1266 47.3171 11.3433 48.1992 11.3432H79.9979C80.8801 11.3433 81.7487 11.1266 82.5273 10.7123C83.3059 10.2981 83.9706 9.69886 84.4627 8.96754C84.9548 8.23622 85.2593 7.39522 85.3494 6.51865C85.4394 5.64208 85.3123 4.75683 84.9791 3.94092H92.2236C95.2242 3.93823 98.1029 5.12627 100.227 7.24367C102.35 9.36107 103.545 12.2344 103.547 15.2315L103.547 15.2518Z" fill="white"/>
<path d="M103.547 36.4601V31.5773H96.1489V4.63919C94.8923 4.17564 93.5631 3.9392 92.2235 3.94093H91.2606V31.5773H65.5968V11.3432H60.7084V31.5773H39.1998V3.94095H36.4526C35.734 3.93983 35.017 4.00769 34.3114 4.14359V31.5773H25.1287V36.4601H34.3114V47.754L25.1288 53.0493V58.6889L34.3114 53.3936V86.9966H25.1287V91.8793H34.3114V140.463H25.1287V145.345H34.3114V169.71C35.017 169.846 35.734 169.914 36.4526 169.913H39.1998V145.345H60.7084V169.913H65.5968V145.345H91.2606V169.913H92.2235C93.5631 169.915 94.8923 169.678 96.1489 169.215V145.346H103.547V140.463H96.1489V119.223H103.481V114.34H96.1489V91.8793H103.547V86.9966H96.1489V57.2118H103.547V52.329H96.1489V36.4601L103.547 36.4601ZM53.8967 36.4601L39.1999 44.9366L39.1998 36.4601H53.8967ZM39.1998 50.5738L60.7084 38.1692V86.9966H39.1998V50.5738ZM39.1998 140.463V91.8793H60.7084V140.463H39.1998ZM91.2605 140.463H65.5968V119.223H91.2605V140.463ZM91.2605 114.34H65.5968V91.8793H91.2605V114.34ZM91.2605 86.9966H65.5968V57.2118H91.2605V86.9966ZM91.2605 52.329H65.5968V36.4601H91.2605V52.329Z" fill="#E5E5E5"/>
<path d="M107.637 52.4193C107.637 67.9252 79.5286 102.468 79.5286 102.468C79.5286 102.468 51.4207 67.9252 51.4207 52.4193C51.4207 44.9732 54.382 37.832 59.6533 32.5667C64.9245 27.3015 72.0739 24.3435 79.5286 24.3435C86.9833 24.3435 94.1327 27.3015 99.4039 32.5667C104.675 37.832 107.637 44.9732 107.637 52.4193Z" fill="#47B5FF"/>
<path d="M96.1493 51.1988C96.1493 54.4822 95.1745 57.6919 93.3482 60.422C91.522 63.1521 88.9262 65.2799 85.8893 66.5364C82.8523 67.7929 79.5105 68.1217 76.2865 67.4811C73.0624 66.8406 70.101 65.2595 67.7766 62.9377C65.4522 60.616 63.8692 57.6579 63.2279 54.4375C62.5866 51.2172 62.9158 47.8792 64.1737 44.8457C65.4317 41.8122 67.562 39.2194 70.2952 37.3952C73.0284 35.5711 76.2417 34.5974 79.5289 34.5974C81.7105 34.5964 83.871 35.0246 85.8869 35.8576C87.9029 36.6906 89.7348 37.912 91.2781 39.4522C92.8215 40.9924 94.046 42.8211 94.8818 44.834C95.7176 46.8468 96.1483 49.0044 96.1493 51.1835V51.1988Z" fill="white"/>
<path d="M79.4711 57.7522C82.8908 57.7522 85.663 54.9832 85.663 51.5674C85.663 48.1516 82.8908 45.3826 79.4711 45.3826C76.0514 45.3826 73.2792 48.1516 73.2792 51.5674C73.2792 54.9832 76.0514 57.7522 79.4711 57.7522Z" fill="#47B5FF"/>
<path d="M88.4574 65.6932C85.7882 67.3886 82.6905 68.2888 79.5273 68.2884C76.3641 68.288 73.2666 67.3869 70.5979 65.6908C71.1529 63.7528 72.3248 62.0482 73.9361 60.8347C75.5474 59.6213 77.5106 58.9651 79.5286 58.9653C81.5466 58.9656 83.5095 59.6224 85.1205 60.8363C86.7315 62.0502 87.9029 63.7551 88.4574 65.6932Z" fill="#47B5FF"/>
<path d="M79.5286 122.731C83.7132 122.731 87.1055 119.343 87.1055 115.163C87.1055 110.983 83.7132 107.594 79.5286 107.594C75.344 107.594 71.9517 110.983 71.9517 115.163C71.9517 119.343 75.344 122.731 79.5286 122.731Z" fill="#1264E2"/>
<path d="M196.756 174H0.244417C0.179593 174 0.117425 173.974 0.071588 173.928C0.025751 173.883 0 173.821 0 173.756C0 173.691 0.025751 173.629 0.071588 173.583C0.117425 173.537 0.179593 173.512 0.244417 173.512H196.756C196.82 173.512 196.883 173.537 196.928 173.583C196.974 173.629 197 173.691 197 173.756C197 173.821 196.974 173.883 196.928 173.928C196.883 173.974 196.82 174 196.756 174Z" fill="#CBCBCB"/>
</g>
<defs>
<clipPath id="clip0_155_1212">
<rect width="197" height="174" fill="white"/>
</clipPath>
</defs>
</svg>
