<svg width="127" height="208" viewBox="0 0 127 208" fill="none" xmlns="http://www.w3.org/2000/svg">
<g clip-path="url(#clip0_412_401)">
<path d="M63.5 208C95.8124 208 122.007 194.871 122.007 178.675C122.007 162.479 95.8124 149.35 63.5 149.35C31.1876 149.35 4.99316 162.479 4.99316 178.675C4.99316 194.871 31.1876 208 63.5 208Z" fill="#F8FCFF"/>
<path d="M11.2889 189.904L119.293 168.101" stroke="#ACACAD" stroke-width="5" stroke-miterlimit="10"/>
<path d="M38.3171 184.453L92.8077 202.113" stroke="#ACACAD" stroke-width="5" stroke-miterlimit="10"/>
<path d="M98.3436 172.352L47.1094 152.948" stroke="#ACACAD" stroke-width="5" stroke-miterlimit="10"/>
<path d="M103.337 28.2348H28.0051V95.9329H103.337V28.2348Z" fill="#F8FCFF"/>
<path d="M68.1675 0C71.641 0.654088 75.1145 1.09015 78.4795 1.96226C105.833 9.04822 124.069 34.6667 121.898 62.7925C121.03 73.9119 117.448 84.4864 113.323 94.8428C103.771 118.499 91.0709 140.302 77.2855 161.56C73.9205 166.792 70.3385 171.916 66.865 177.04C64.9111 179.874 62.1974 179.874 60.2436 177.04C43.2017 152.512 27.5709 127.002 15.6308 99.5304C11.1803 89.283 7.3812 78.8176 5.75299 67.6981C2.60513 45.4591 9.76923 27.1447 26.9197 12.8637C35.712 5.55975 46.0239 1.52621 57.4214 0.327044C57.8556 0.327044 58.2897 0.109015 58.7239 0C61.8718 0 65.0197 0 68.1675 0ZM63.5 169.3C63.9342 168.755 64.1513 168.428 64.4769 167.992C74.1376 153.711 83.2556 139.103 91.5051 123.95C99.7547 108.906 107.244 93.4256 112.021 76.8553C114.626 67.5891 116.037 58.2138 114.083 48.6205C107.136 14.499 69.6872 -3.16143 39.0769 13.2998C21.0581 22.8931 10.4205 42.4067 12.2658 62.6834C12.9171 70.2055 14.9795 77.4004 17.4761 84.4864C22.6863 99.4214 29.7419 113.484 37.4487 127.22C45.3726 141.61 54.0564 155.564 63.5 169.3Z" fill="#06283D"/>
<path d="M56.4444 208C52.1026 207.455 47.7607 207.019 43.4188 206.365C31.8043 204.403 20.6239 201.023 10.9632 193.937C7.3812 191.321 4.34188 188.159 2.27949 184.235C-0.651283 178.675 -0.651283 172.897 2.06239 167.229C3.79914 163.522 6.51282 160.579 9.66068 158.071C11.3974 156.654 13.4598 156.872 14.7624 158.289C16.065 159.816 15.8479 161.887 14.2197 163.522C12.7 165.048 11.0718 166.465 9.76923 168.21C6.18718 173.006 6.29573 178.021 9.76923 182.818C13.1342 187.505 17.9103 190.449 23.012 192.847C31.5872 196.88 40.7051 199.061 50.0402 200.042C65.4538 201.677 80.759 200.914 95.6299 196.117C101.817 194.155 107.57 191.648 112.672 187.614C113.866 186.742 114.951 185.652 115.928 184.562C121.356 178.566 121.356 172.134 115.82 166.138C112.455 162.541 108.438 160.034 104.097 157.962C102.794 157.308 101.491 156.872 100.189 156.218C97.9094 155.237 97.041 153.384 97.8009 151.421C98.5607 149.568 100.623 148.587 102.685 149.677C107.353 152.075 112.238 154.365 116.579 157.417C119.402 159.379 121.898 162.214 123.852 165.157C128.303 171.916 128.085 178.893 123.744 185.761C120.162 191.43 114.843 195.136 109.09 198.189C99.3205 203.312 88.6829 205.82 77.8282 207.019C75.4402 207.346 73.0521 207.564 70.6641 207.782C65.888 208 61.112 208 56.4444 208Z" fill="#06283D"/>
<path d="M25.8342 149.459C27.788 149.459 29.3077 150.876 29.3077 152.839C29.4162 154.91 27.8966 156.436 25.8342 156.545C23.8803 156.545 22.2521 155.019 22.2521 152.948C22.3607 150.876 23.8803 149.459 25.8342 149.459Z" fill="#06283D"/>
<path d="M63.5 169.409C54.0564 155.673 45.3727 141.719 37.4487 127.329C29.7419 113.593 22.5778 99.5304 17.3675 84.7044C14.8709 77.6184 12.9171 70.4235 12.1573 62.9015C10.4205 42.5157 21.0581 23.0021 39.0769 13.4088C69.6872 -2.9434 107.027 14.717 114.083 48.8386C116.037 58.4319 114.626 67.8071 112.021 77.0734C107.244 93.6436 99.6462 109.015 91.5051 124.168C83.2556 139.321 74.1376 153.929 64.4769 168.21C64.1513 168.537 63.9342 168.864 63.5 169.409ZM63.1744 36.6289C57.3128 31.2872 52.3197 29.543 46.0239 30.7421C34.518 33.0314 26.2684 44.0419 27.0282 55.9245C27.5709 63.6646 30.7188 70.4235 35.2778 76.5283C42.2248 85.6855 51.3427 92.4444 61.112 98.2222C62.5231 99.0943 64.0427 98.7673 65.3453 97.8952C70.9897 93.9706 76.8513 90.3732 82.2786 86.1216C89.1171 80.7799 94.5444 74.13 97.8009 65.9539C101.383 56.6876 100.732 47.9665 94.5444 39.8994C87.2718 30.7421 72.5094 26.5996 63.1744 36.6289Z" fill="#47B5FF"/>
<path d="M63.8256 90.4822C63.3915 90.7002 62.5231 90.7002 62.0889 90.3732C53.8393 85.2495 46.241 79.3627 40.488 71.4046C36.5803 66.0629 34.0838 60.2851 34.3009 53.5262C34.5179 46.5493 39.5111 39.8994 45.9154 37.9371C51.2342 36.3019 56.0103 38.1551 59.0496 42.8428C59.3752 43.2788 59.5923 43.7149 59.8094 44.26C60.5692 45.7862 61.5462 46.7673 63.3915 46.7673C65.2368 46.7673 66.1051 45.5681 66.865 44.1509C69.4701 39.0273 73.5949 36.956 79.1308 38.1551C85.8607 39.5723 91.0709 44.914 92.4821 52.6541L99.9718 54.2893C100.08 49.6017 97.8009 43.9329 94.653 39.8994C87.4889 30.6331 72.618 26.4906 63.2829 36.5199C57.4214 31.1782 52.4282 29.434 46.1325 30.6331C34.6265 32.9224 26.3769 43.9329 27.1368 55.8155C27.6795 63.5556 30.8273 70.3145 35.3863 76.4193C42.3333 85.5765 51.4513 92.3354 61.2205 98.1132C62.6316 98.9853 64.1513 98.6583 65.4538 97.7862C70.7727 94.0797 75.5487 91.2453 80.6504 87.3208L74.5718 83.0692C72.6179 84.4864 65.6709 89.283 63.8256 90.4822Z" fill="#06283D"/>
<path d="M92.8077 57.4507C92.6992 61.7023 90.094 66.826 86.512 71.5136C80.3248 79.4717 72.2923 85.2495 63.8256 90.4822C63.3915 90.7002 62.5231 90.7002 62.0889 90.3732C53.8393 85.2495 46.241 79.3627 40.488 71.4046C36.5803 66.0629 34.0838 60.2851 34.3009 53.5262C34.518 46.5493 39.5111 39.8994 45.9154 37.9371C51.2342 36.3019 56.0103 38.1551 59.0496 42.8428C59.3752 43.2788 59.5923 43.7149 59.8094 44.26C60.5692 45.7862 61.5462 46.7673 63.3915 46.7673C65.2368 46.7673 66.1051 45.5681 66.865 44.1509C69.4701 39.0273 73.5949 36.956 79.1308 38.1551C87.0547 39.7904 92.9162 47.2034 92.8077 57.4507Z" fill="#FBFBFB"/>
<path d="M96.6068 78.9266C96.6068 80.5619 96.6068 82.0881 96.6068 83.6143C96.6068 87.1027 94.653 88.956 91.1795 88.956C89.6598 88.956 88.1402 88.956 86.6205 88.956C84.1239 88.847 82.1701 87.1027 82.0615 84.4864C81.953 82.7421 82.0615 80.8889 82.0615 78.9266C80.3248 78.9266 78.8051 78.9266 77.2855 78.9266C73.9205 78.9266 72.0752 76.9644 71.9667 73.5849C71.9667 72.1677 71.9667 70.7505 71.9667 69.3333C71.9667 66.2809 73.9205 64.3187 76.9598 64.2096C78.588 64.2096 80.1077 64.2096 81.953 64.2096C81.953 62.7925 81.953 61.4843 81.953 60.0671C81.953 55.8155 83.6897 54.1803 87.8145 54.1803C89.0085 54.1803 90.094 54.1803 91.288 54.1803C94.4359 54.1803 96.3897 56.1426 96.4983 59.304C96.4983 60.8302 96.4983 62.4654 96.4983 64.2096C98.0179 64.2096 99.3205 64.2096 100.732 64.2096C104.748 64.2096 106.485 65.9539 106.485 69.8784C106.485 71.0776 106.485 72.3857 106.485 73.5849C106.485 76.7463 104.531 78.7086 101.383 78.8176C99.8632 78.9266 98.3436 78.9266 96.6068 78.9266Z" fill="#FF3E62"/>
<path d="M96.6068 78.9266C96.6068 80.5619 96.6068 82.0881 96.6068 83.6143C96.6068 87.1027 94.653 88.956 91.1795 88.956C89.6598 88.956 88.1402 88.956 86.6205 88.956C84.1239 88.847 82.1701 87.1027 82.0615 84.4864C81.953 82.7421 82.0615 80.8889 82.0615 78.9266C80.3248 78.9266 78.8051 78.9266 77.2855 78.9266C73.9205 78.9266 72.0752 76.9644 71.9667 73.5849C71.9667 72.1677 71.9667 70.7505 71.9667 69.3333C71.9667 66.2809 73.9205 64.3187 76.9598 64.2096C78.588 64.2096 80.1077 64.2096 81.953 64.2096C81.953 62.7925 81.953 61.4843 81.953 60.0671C81.953 55.8155 83.6897 54.1803 87.8145 54.1803C89.0085 54.1803 90.094 54.1803 91.288 54.1803C94.4359 54.1803 96.3897 56.1426 96.4983 59.304C96.4983 60.8302 96.4983 62.4654 96.4983 64.2096C98.0179 64.2096 99.3205 64.2096 100.732 64.2096C104.748 64.2096 106.485 65.9539 106.485 69.8784C106.485 71.0776 106.485 72.3857 106.485 73.5849C106.485 76.7463 104.531 78.7086 101.383 78.8176C99.8632 78.9266 98.3436 78.9266 96.6068 78.9266ZM86.9461 59.195C86.9461 59.74 86.9461 60.1761 86.9461 60.6122C86.9461 62.4654 86.9461 64.4277 86.9461 66.2809C86.9461 68.1342 85.9692 69.0063 84.1239 69.1153C82.9299 69.1153 81.8444 69.1153 80.6504 69.1153C79.4564 69.1153 78.2624 69.1153 77.0684 69.1153C77.0684 70.7505 77.0684 72.2767 77.0684 73.8029C79.2393 73.8029 81.3017 73.8029 83.3641 73.8029C86.1863 73.8029 86.9461 74.566 86.9461 77.4004C86.9461 79.4717 86.9461 81.543 86.9461 83.7233C88.5744 83.7233 90.094 83.7233 91.6137 83.7233C91.6137 83.1782 91.6137 82.7421 91.6137 82.3061C91.6137 80.3438 91.6137 78.3816 91.6137 76.5283C91.6137 74.8931 92.5906 74.021 94.2188 73.912C95.3043 73.912 96.3897 73.912 97.3667 73.912C98.6692 73.912 100.08 73.912 101.383 73.912C101.383 72.2767 101.383 70.7505 101.383 69.2243C100.84 69.2243 100.406 69.2243 99.9718 69.2243C98.1265 69.2243 96.1726 69.2243 94.3273 69.2243C92.482 69.2243 91.6137 68.2432 91.5051 66.3899C91.5051 65.2998 91.5051 64.2096 91.5051 63.0105C91.5051 61.7023 91.5051 60.5031 91.5051 59.195C89.9855 59.195 88.5744 59.195 86.9461 59.195Z" fill="#06283D"/>
</g>
<defs>
<clipPath id="clip0_412_401">
<rect width="127" height="208" fill="white"/>
</clipPath>
</defs>
</svg>
