<svg width="250" height="163" viewBox="0 0 250 163" fill="none" xmlns="http://www.w3.org/2000/svg">
<g clip-path="url(#clip0_155_791)">
<path d="M249.613 142.593H145.611C145.509 142.593 145.41 142.553 145.338 142.48C145.265 142.408 145.225 142.309 145.225 142.207C145.225 142.104 145.265 142.006 145.338 141.934C145.41 141.861 145.509 141.821 145.611 141.821H249.613C249.716 141.821 249.814 141.861 249.887 141.934C249.959 142.006 250 142.104 250 142.207C250 142.309 249.959 142.408 249.887 142.48C249.814 142.553 249.716 142.593 249.613 142.593Z" fill="#3F3D56"/>
<path d="M198.397 95.4094C204.315 95.4094 209.112 90.6147 209.112 84.7002C209.112 78.7856 204.315 73.991 198.397 73.991C192.479 73.991 187.681 78.7856 187.681 84.7002C187.681 90.6147 192.479 95.4094 198.397 95.4094Z" fill="#2F2E41"/>
<path d="M204.362 145.469L205.188 149.361L220.602 148.032L219.383 142.288L204.362 145.469Z" fill="#A0616A"/>
<path d="M203.163 157.633L200.569 145.401L205.298 144.399L206.89 151.906C207.156 153.159 206.912 154.467 206.213 155.541C205.514 156.615 204.417 157.368 203.163 157.633Z" fill="#2F2E41"/>
<path d="M194.706 145.261L192.971 148.842L178.325 143.859L180.886 138.574L194.706 145.261Z" fill="#A0616A"/>
<path d="M190.708 150.905L194.054 143.999L198.405 146.104L192.952 157.358C191.799 156.8 190.914 155.806 190.493 154.596C190.072 153.386 190.15 152.058 190.708 150.905Z" fill="#2F2E41"/>
<path d="M165.852 138.189C166.353 138.282 166.869 138.265 167.363 138.137C167.857 138.01 168.316 137.776 168.71 137.451C169.103 137.127 169.421 136.721 169.64 136.26C169.859 135.8 169.975 135.298 169.979 134.788L194.129 112.535L188.131 107.893L166.266 131.24C165.409 131.29 164.6 131.653 163.993 132.26C163.385 132.866 163.022 133.674 162.971 134.531C162.92 135.387 163.185 136.233 163.716 136.907C164.247 137.581 165.007 138.037 165.852 138.189Z" fill="#A0616A"/>
<path d="M198.675 96.542C203.08 96.542 206.651 92.9734 206.651 88.5714C206.651 84.1694 203.08 80.6008 198.675 80.6008C194.271 80.6008 190.7 84.1694 190.7 88.5714C190.7 92.9734 194.271 96.542 198.675 96.542Z" fill="#A0616A"/>
<path d="M181.187 115.205L183.46 108.39L195.15 98.9792C195.15 98.9792 200.994 99.6282 208.463 95.4094L210.899 95.479C211.315 95.4907 211.723 95.5865 212.1 95.7607C212.477 95.9349 212.815 96.1839 213.093 96.4924C213.371 96.801 213.584 97.1628 213.718 97.5558C213.851 97.9488 213.904 98.365 213.872 98.779C213.259 106.726 212.071 127.19 215.444 134.19C215.444 134.19 197.585 138.733 189.467 129.322C189.467 129.322 192.714 125.752 189.467 119.262L185.246 120.56L181.187 115.205Z" fill="#47B5FF"/>
<path d="M190.441 129.322C190.441 129.322 169.335 127.375 167.062 133.541C164.789 139.706 167.387 142.627 171.284 143.925C175.18 145.223 184.597 146.846 184.597 146.846L188.818 141.654L199.858 142.303C199.858 142.303 212.159 149.433 215.561 157.06C216.29 158.71 217.454 160.132 218.928 161.175C220.402 162.217 222.131 162.84 223.931 162.979C226.658 163.168 229.082 162.139 229.082 157.88C229.082 148.144 215.444 134.19 215.444 134.19L190.441 129.322Z" fill="#2F2E41"/>
<path d="M174.368 138.895C174.368 138.895 179.888 137.273 188.655 141.491L174.368 138.895Z" fill="#2F2E41"/>
<path d="M190.719 83.4884C193.834 85.3886 197.345 86.5449 200.98 86.8673L199.898 85.5721C200.686 85.8631 201.515 86.0276 202.354 86.0594C202.774 86.0716 203.191 85.9852 203.571 85.8071C203.952 85.6291 204.285 85.3643 204.545 85.0342C204.757 84.6913 204.883 84.3023 204.913 83.9002C204.942 83.4982 204.873 83.095 204.713 82.7252C204.383 81.9875 203.87 81.3464 203.222 80.8629C202.075 79.9554 200.72 79.3458 199.279 79.0885C197.838 78.8312 196.356 78.934 194.965 79.388C194.011 79.6731 193.156 80.221 192.499 80.9691C192.176 81.346 191.951 81.7971 191.846 82.282C191.74 82.7669 191.757 83.2704 191.894 83.7473" fill="#2F2E41"/>
<path d="M199.405 75.1797C196.89 72.6304 193.846 70.6631 190.488 69.4164C188.332 68.6183 185.986 68.1252 183.732 68.5784C181.479 69.0317 179.347 70.5898 178.719 72.7997C178.204 74.6068 178.735 76.5524 179.533 78.2535C180.331 79.9546 181.396 81.532 182.041 83.2965C182.7 85.097 182.898 87.0332 182.617 88.9295C182.337 90.8259 181.587 92.6222 180.436 94.1554C179.285 95.6887 177.769 96.9103 176.025 97.7095C174.282 98.5086 172.367 98.8599 170.453 98.7315C172.667 99.0282 174.708 100.068 176.873 100.622C179.037 101.175 181.592 101.138 183.2 99.5881C184.902 97.9485 184.936 95.2826 184.853 92.9216C184.731 89.4119 184.609 85.9022 184.487 82.3925C184.424 80.6027 184.371 78.7554 185.017 77.0848C185.663 75.4142 187.198 73.9513 188.99 73.9665C190.348 73.9781 191.55 74.8003 192.639 75.6112C193.728 76.4221 194.881 77.2873 196.234 77.4079C197.586 77.5285 199.131 76.528 199.03 75.1744" fill="#2F2E41"/>
<path d="M142.547 78.2097H2.92237C2.14758 78.2088 1.40477 77.9008 0.856907 77.3533C0.309045 76.8057 0.00087232 76.0633 0 75.289V2.92069C0.000899764 2.14635 0.30908 1.40399 0.856937 0.856449C1.40479 0.308908 2.14759 0.000899247 2.92237 0H142.547C143.322 0.000872676 144.064 0.308872 144.612 0.85642C145.16 1.40397 145.468 2.14635 145.469 2.92069V75.289C145.468 76.0633 145.16 76.8057 144.612 77.3533C144.064 77.9009 143.322 78.2088 142.547 78.2097ZM2.92237 0.649043C2.31975 0.649718 1.74201 0.889269 1.3159 1.31514C0.88978 1.74101 0.650092 2.31842 0.649416 2.92069V75.289C0.650119 75.8913 0.889821 76.4687 1.31593 76.8945C1.74204 77.3204 2.31976 77.5599 2.92237 77.5606H142.547C143.149 77.5599 143.727 77.3203 144.153 76.8945C144.579 76.4686 144.819 75.8912 144.82 75.289V2.92069C144.819 2.31843 144.579 1.74104 144.153 1.31517C143.727 0.88931 143.149 0.649746 142.547 0.649043H2.92237Z" fill="#3F3D56"/>
<path d="M45.4592 34.5615H23.379C22.6043 34.5606 21.8615 34.2526 21.3136 33.705C20.7657 33.1575 20.4576 32.4151 20.4567 31.6408V13.4676C20.4576 12.6932 20.7657 11.9509 21.3136 11.4033C21.8615 10.8558 22.6043 10.5478 23.379 10.5469H45.4592C46.234 10.5477 46.9768 10.8557 47.5247 11.4033C48.0725 11.9508 48.3807 12.6932 48.3816 13.4676V31.6408C48.3807 32.4151 48.0725 33.1575 47.5247 33.7051C46.9768 34.2526 46.234 34.5606 45.4592 34.5615ZM23.379 11.1959C22.7764 11.1966 22.1987 11.4361 21.7726 11.862C21.3464 12.2879 21.1068 12.8653 21.1061 13.4676V31.6408C21.1068 32.243 21.3464 32.8205 21.7726 33.2463C22.1987 33.6722 22.7764 33.9117 23.379 33.9124H45.4592C46.0618 33.9117 46.6395 33.6722 47.0656 33.2463C47.4917 32.8204 47.7314 32.243 47.7321 31.6408V13.4676C47.7314 12.8653 47.4917 12.2879 47.0656 11.862C46.6395 11.4362 46.0618 11.1966 45.4592 11.1959H23.379Z" fill="#3F3D56"/>
<path d="M19.3201 41.3765C18.7603 41.3765 18.2235 41.5987 17.8277 41.9943C17.4318 42.3899 17.2095 42.9264 17.2095 43.4859C17.2095 44.0453 17.4318 44.5818 17.8277 44.9774C18.2235 45.373 18.7603 45.5952 19.3201 45.5952H126.149C126.709 45.5952 127.246 45.373 127.641 44.9774C128.037 44.5818 128.26 44.0453 128.26 43.4859C128.26 42.9264 128.037 42.3899 127.641 41.9943C127.246 41.5987 126.709 41.3765 126.149 41.3765H19.3201Z" fill="#E6E6E6"/>
<path d="M55.3627 19.3091C54.8029 19.3091 54.2661 19.5313 53.8703 19.9269C53.4744 20.3225 53.2521 20.859 53.2521 21.4185C53.2521 21.9779 53.4744 22.5144 53.8703 22.91C54.2661 23.3056 54.8029 23.5279 55.3627 23.5279H101.147C101.706 23.5279 102.243 23.3056 102.639 22.91C103.035 22.5144 103.257 21.9779 103.257 21.4185C103.257 20.859 103.035 20.3225 102.639 19.9269C102.243 19.5313 101.706 19.3091 101.147 19.3091H55.3627Z" fill="#47B5FF"/>
<path d="M55.3627 30.3428C54.8029 30.3428 54.2661 30.565 53.8703 30.9606C53.4744 31.3562 53.2521 31.8927 53.2521 32.4522C53.2521 33.0116 53.4744 33.5481 53.8703 33.9437C54.2661 34.3393 54.8029 34.5616 55.3627 34.5616H125.175C125.735 34.5616 126.272 34.3393 126.667 33.9437C127.063 33.5481 127.286 33.0116 127.286 32.4522C127.286 31.8927 127.063 31.3562 126.667 30.9606C126.272 30.565 125.735 30.3428 125.175 30.3428H55.3627Z" fill="#47B5FF"/>
<path d="M19.3201 52.4102C18.7603 52.4102 18.2235 52.6324 17.8277 53.028C17.4318 53.4236 17.2095 53.9601 17.2095 54.5195C17.2095 55.079 17.4318 55.6155 17.8277 56.0111C18.2235 56.4067 18.7603 56.6289 19.3201 56.6289H126.149C126.709 56.6289 127.246 56.4067 127.641 56.0111C128.037 55.6155 128.26 55.079 128.26 54.5195C128.26 53.9601 128.037 53.4236 127.641 53.028C127.246 52.6324 126.709 52.4102 126.149 52.4102H19.3201Z" fill="#E6E6E6"/>
<path d="M19.3201 63.4438C18.7603 63.4438 18.2235 63.6661 17.8277 64.0617C17.4318 64.4573 17.2095 64.9938 17.2095 65.5532C17.2095 66.1127 17.4318 66.6492 17.8277 67.0448C18.2235 67.4404 18.7603 67.6626 19.3201 67.6626H126.149C126.709 67.6626 127.246 67.4404 127.641 67.0448C128.037 66.6492 128.26 66.1127 128.26 65.5532C128.26 64.9938 128.037 64.4573 127.641 64.0617C127.246 63.6661 126.709 63.4438 126.149 63.4438H19.3201Z" fill="#E6E6E6"/>
<path d="M34.1579 31.6199C39.1441 31.6199 43.1862 27.5801 43.1862 22.5968C43.1862 17.6135 39.1441 13.5737 34.1579 13.5737C29.1717 13.5737 25.1296 17.6135 25.1296 22.5968C25.1296 27.5801 29.1717 31.6199 34.1579 31.6199Z" fill="#CCCCCC"/>
<path d="M34.3927 32.5744C38.1038 32.5744 41.1122 29.5677 41.1122 25.8587C41.1122 22.1498 38.1038 19.1431 34.3927 19.1431C30.6816 19.1431 27.6732 22.1498 27.6732 25.8587C27.6732 29.5677 30.6816 32.5744 34.3927 32.5744Z" fill="#E6E6E6"/>
<path d="M27.6895 21.5759C30.3136 23.1769 33.272 24.1511 36.3345 24.4228L35.4232 23.3316C36.0867 23.5767 36.7849 23.7153 37.4918 23.7421C37.8457 23.7523 38.1971 23.6795 38.5178 23.5295C38.8385 23.3795 39.1195 23.1565 39.3384 22.8783C39.5171 22.5894 39.6233 22.2616 39.6478 21.9229C39.6724 21.5841 39.6146 21.2444 39.4794 20.9328C39.2017 20.3113 38.7695 19.7712 38.2238 19.3638C37.2567 18.5992 36.1153 18.0856 34.9014 17.8687C33.6874 17.6519 32.4387 17.7386 31.2664 18.1211C30.4623 18.3613 29.7422 18.8229 29.1884 19.4533C28.9163 19.7708 28.7272 20.1509 28.6383 20.5594C28.5493 20.968 28.5633 21.3922 28.6789 21.794" fill="#CCCCCC"/>
<path d="M202.369 128.15C202.548 128.151 202.727 128.167 202.905 128.196L213.93 116.466L212.806 112.721L218.239 110.287L221.612 118.525L205.749 131.136C205.835 131.823 205.709 132.519 205.389 133.132C205.068 133.745 204.569 134.246 203.957 134.569C203.345 134.891 202.649 135.02 201.962 134.938C201.274 134.855 200.629 134.566 200.11 134.108C199.592 133.65 199.225 133.045 199.059 132.374C198.893 131.702 198.935 130.996 199.18 130.349C199.425 129.702 199.862 129.146 200.431 128.753C201.001 128.36 201.676 128.149 202.369 128.15Z" fill="#A0616A"/>
<path d="M209.599 95.896C209.977 95.7281 210.385 95.6383 210.799 95.632C211.212 95.6256 211.623 95.7029 212.006 95.8592C212.389 96.0155 212.736 96.2476 213.027 96.5414C213.318 96.8353 213.547 97.185 213.699 97.5693L219.34 111.798L210.573 117.639L209.599 95.896Z" fill="#47B5FF"/>
<path d="M200.412 129.358C194.973 126.15 188.69 124.661 182.388 125.087C176.087 125.513 170.062 127.834 165.105 131.745C164.744 132.096 164.34 132.401 163.904 132.654C163.518 132.822 163.057 132.683 162.671 132.586C160.116 131.944 157.435 130.956 155.554 129.037C153.931 127.38 152.795 124.844 153.613 122.536C153.959 121.659 154.572 120.914 155.365 120.404C156.158 119.894 157.091 119.646 158.032 119.695C160.282 119.896 161.203 122.393 160.711 124.348C160.131 126.66 157.88 128.207 155.743 128.949C151.804 130.317 147.236 129.363 143.981 126.818C142.259 125.483 140.955 123.685 140.221 121.635C139.328 119.11 139.272 116.374 139.736 113.755C140.706 108.279 143.676 103.581 146.464 98.8753C149.06 94.4952 151.652 89.8028 151.977 84.6155C152.235 80.4883 151.153 75.929 148.074 72.9929C147.346 72.2993 146.52 71.7162 145.623 71.2621C145.065 70.9797 144.571 71.8193 145.131 72.1027C149.114 74.1184 150.886 78.5881 151.029 82.8495C151.206 88.1641 148.773 92.9947 146.16 97.4708C143.29 102.389 140.081 107.218 138.914 112.885C138.36 115.574 138.271 118.396 139.017 121.058C139.642 123.327 140.898 125.372 142.639 126.955C145.886 129.886 150.59 131.22 154.873 130.215C157.172 129.675 159.469 128.425 160.816 126.438C162.123 124.511 162.253 121.673 160.576 119.908C159.09 118.346 156.705 118.451 154.968 119.518C152.971 120.744 152.103 122.929 152.465 125.213C152.87 127.764 154.66 129.908 156.792 131.258C158.005 132.004 159.307 132.597 160.667 133.022C161.345 133.253 162.036 133.446 162.735 133.602C163.197 133.73 163.684 133.73 164.146 133.602C164.586 133.408 164.988 133.138 165.335 132.804C165.915 132.326 166.517 131.875 167.134 131.447C168.33 130.616 169.583 129.871 170.883 129.217C174.774 127.251 179.045 126.151 183.402 125.992C187.759 125.834 192.099 126.621 196.123 128.3C197.432 128.842 198.701 129.477 199.92 130.199C200.031 130.259 200.161 130.273 200.283 130.239C200.405 130.205 200.508 130.125 200.572 130.016C200.636 129.907 200.655 129.777 200.625 129.655C200.595 129.532 200.518 129.426 200.412 129.358Z" fill="#3F3D56"/>
</g>
<defs>
<clipPath id="clip0_155_791">
<rect width="250" height="163" fill="white"/>
</clipPath>
</defs>
</svg>
