<svg width="25" height="29" viewBox="0 0 25 29" fill="none" xmlns="http://www.w3.org/2000/svg">
<path d="M22.2222 20.7143V13.5333C21.5278 13.6714 20.8333 13.8095 20.1389 13.8095H19.4444V22.0952H5.55556V12.4286C5.55556 8.5619 8.61111 5.52381 12.5 5.52381C12.6389 3.72857 13.4722 2.20952 14.5833 0.966667C14.1667 0.414286 13.3333 0 12.5 0C10.9722 0 9.72222 1.24286 9.72222 2.7619V3.17619C5.55556 4.41905 2.77778 8.14762 2.77778 12.4286V20.7143L0 23.4762V24.8571H25V23.4762L22.2222 20.7143ZM9.72222 26.2381C9.72222 27.7571 10.9722 29 12.5 29C14.0278 29 15.2778 27.7571 15.2778 26.2381H9.72222Z" fill="#06283D"/>
<path d="M12.6389 24.8571H0V23.4762L2.77778 20.7143V12.4286C2.77778 8.14762 5.55556 4.41905 9.72222 3.17619V2.7619C9.72222 1.24286 10.9722 0 12.5 0C14.0278 0 15.2778 1.24286 15.2778 2.7619V3.17619C19.4444 4.41905 22.2222 8.14762 22.2222 12.4286V13.8095C21.25 13.8095 20.2778 13.9476 19.4444 14.2238V12.4286C19.4444 8.5619 16.3889 5.52381 12.5 5.52381C8.61111 5.52381 5.55556 8.5619 5.55556 12.4286V22.0952H12.6389C12.5 22.5095 12.5 23.0619 12.5 23.4762C12.5 23.8905 12.5 24.4429 12.6389 24.8571ZM12.9167 26.2381C13.1944 27.0667 13.4722 27.8952 14.0278 28.5857C13.6111 28.8619 13.0556 29 12.5 29C10.9722 29 9.72222 27.7571 9.72222 26.2381H12.9167Z" fill="#06283D"/>
</svg>
