<svg width="25" height="29" viewBox="0 0 25 29" fill="none" xmlns="http://www.w3.org/2000/svg">
<path d="M22.2222 20.7143V13.5333C21.5278 13.6714 20.8333 13.8095 20.1389 13.8095H19.4444V22.0952H5.55556V12.4286C5.55556 8.5619 8.61111 5.52381 12.5 5.52381C12.6389 3.72857 13.4722 2.20952 14.5833 0.966667C14.1667 0.414286 13.3333 0 12.5 0C10.9722 0 9.72222 1.24286 9.72222 2.7619V3.17619C5.55556 4.41905 2.77778 8.14762 2.77778 12.4286V20.7143L0 23.4762V24.8571H25V23.4762L22.2222 20.7143ZM9.72222 26.2381C9.72222 27.7571 10.9722 29 12.5 29C14.0278 29 15.2778 27.7571 15.2778 26.2381H9.72222Z" fill="#06283D"/>
<path d="M25 6.21429C25 8.83809 22.7778 11.0476 20.1389 11.0476C17.5 11.0476 15.2778 8.83809 15.2778 6.21429C15.2778 3.59048 17.5 1.38095 20.1389 1.38095C22.7778 1.38095 25 3.59048 25 6.21429Z" fill="#FF3E62"/>
</svg>
