<svg width="249" height="165" viewBox="0 0 249 165" fill="none" xmlns="http://www.w3.org/2000/svg">
<g clip-path="url(#clip0_155_898)">
<path d="M126.141 46.375C123.921 42.7106 121.29 38.7981 117.17 37.6015C112.399 36.2159 107.497 38.9685 103.34 41.6849C90.9064 49.8086 78.9328 58.6123 67.4738 68.0558L67.4864 68.1981C76.4076 67.5841 85.3289 66.9702 94.2501 66.3562C100.696 65.9126 107.363 65.4079 113.059 62.365C115.22 61.2104 117.327 59.668 119.777 59.5605C122.82 59.427 125.473 61.5479 127.558 63.7637C139.893 76.871 143.462 96.9152 157.3 108.431C148.574 86.9561 138.155 66.2057 126.141 46.375Z" fill="#F2F2F2"/>
<path d="M201.959 157.549C200.595 155.83 200.038 155.427 198.692 153.693C187.737 139.553 177.44 124.936 167.801 109.841C161.254 99.5893 155.032 89.1406 149.134 78.495C146.327 73.434 143.596 68.3333 140.942 63.1928C138.883 59.207 136.869 55.1974 134.902 51.164C134.339 50.0119 133.792 48.8546 133.248 47.6946C131.967 44.9668 130.709 42.2257 129.358 39.535C127.819 36.4682 125.945 33.2531 123.119 31.1927C121.832 30.2165 120.294 29.6258 118.684 29.4898C116.383 29.3415 114.26 30.2896 112.264 31.3251C97.6628 38.9232 83.9929 48.4494 71.6286 59.2891C59.2327 70.1532 48.1527 82.427 38.6146 95.8604C38.3228 96.2762 37.6328 95.8789 37.9273 95.4605C39.0871 93.8238 40.2698 92.2047 41.4755 90.6034C56.4679 70.7052 74.8508 53.5938 95.7839 40.0514C99.3057 37.7738 102.894 35.6031 106.548 33.5391C108.39 32.4983 110.239 31.4707 112.121 30.5067C113.965 29.5613 115.924 28.7111 118.031 28.6794C125.202 28.5681 128.915 36.6721 131.465 42.1251C132.266 43.8412 133.078 45.5521 133.899 47.2576C137.001 53.7329 140.223 60.149 143.564 66.5059C145.626 70.4308 147.733 74.3327 149.885 78.2117C156.584 90.2908 163.703 102.125 171.244 113.716C181.233 129.068 191.142 142.63 202.522 156.987C202.835 157.384 202.275 157.951 201.959 157.549Z" fill="#E4E4E4"/>
<path d="M70.92 55.2876C70.5033 54.8242 70.0893 54.3607 69.67 53.8973C66.3633 50.2478 62.8152 46.6407 58.2744 44.5485C56.1093 43.5194 53.7458 42.9727 51.3478 42.9463C48.8691 42.9542 46.4462 43.6031 44.156 44.5115C43.0732 44.9431 42.0142 45.4331 40.9713 45.9548C39.7797 46.5533 38.6093 47.1916 37.4444 47.8352C35.2575 49.0428 33.0991 50.3034 30.969 51.617C26.7307 54.2309 22.6252 57.0444 18.6524 60.0573C16.5929 61.6199 14.576 63.2336 12.6015 64.8986C10.7651 66.4452 8.9658 68.0333 7.20365 69.6629C6.82682 70.0099 6.26417 69.4484 6.641 69.1015C7.10542 68.6698 7.57516 68.2408 8.0449 67.817C9.37183 66.62 10.72 65.4459 12.0894 64.2947C14.5866 62.1919 17.1485 60.1703 19.775 58.23C23.8593 55.2108 28.0842 52.3965 32.4497 49.787C34.6312 48.484 36.8428 47.2357 39.0843 46.0422C39.7612 45.682 40.4459 45.3298 41.1385 44.9961C42.7101 44.205 44.3431 43.5416 46.0216 43.0125C48.3992 42.2449 50.9148 41.9983 53.3966 42.2895C55.7929 42.6373 58.1017 43.4344 60.2011 44.6386C64.6596 47.1254 68.1175 50.9708 71.4826 54.7235C71.8224 55.1049 71.2623 55.669 70.92 55.2876Z" fill="#E4E4E4"/>
<path d="M162.272 93.1054L172.955 89.206L178.26 87.2699C179.987 86.6393 181.711 85.9215 183.497 85.47C185.049 85.0276 186.696 85.0485 188.237 85.5302C189.61 86.0376 190.867 86.8153 191.934 87.8173C193.023 88.8183 194.037 89.8985 194.966 91.0489C196.121 92.434 197.259 93.8335 198.402 95.2284C203.119 100.985 207.805 106.767 212.46 112.574C217.115 118.381 221.74 124.212 226.333 130.068C230.937 135.938 235.509 141.833 240.05 147.753C240.606 148.478 241.162 149.203 241.718 149.929C242.024 150.33 242.716 149.935 242.405 149.528C237.831 143.549 233.224 137.595 228.586 131.665C223.937 125.721 219.255 119.802 214.541 113.908C209.827 108.014 205.082 102.146 200.304 96.3034C199.114 94.8478 197.922 93.3939 196.728 91.9415C195.721 90.7164 194.725 89.4781 193.62 88.3378C191.592 86.2448 189.058 84.395 186.025 84.3449C184.242 84.3154 182.516 84.88 180.86 85.4781C179.073 86.123 177.292 86.7798 175.508 87.4309L164.75 91.3576L162.06 92.3393C161.583 92.5135 161.789 93.2816 162.272 93.1054Z" fill="#E4E4E4"/>
<path d="M56.8684 49.1405C51.4393 46.356 44.4865 46.9013 39.4975 50.3802C49.0137 52.0186 58.4257 54.2107 67.6854 56.9455C63.8402 54.6968 60.8324 51.1735 56.8684 49.1405Z" fill="#F2F2F2"/>
<path d="M39.4441 50.3706L38.3989 51.2184C38.7524 50.9217 39.12 50.6435 39.4975 50.3802C39.4797 50.3771 39.4619 50.3737 39.4441 50.3706Z" fill="#F2F2F2"/>
<path d="M191.531 93.1445C190.48 91.867 189.343 90.5294 187.77 90.0105L186.301 90.0683C197.481 109.782 212.579 127.008 230.671 140.688C217.624 124.84 204.578 108.992 191.531 93.1445Z" fill="#F2F2F2"/>
<path d="M100.207 82.606C100.887 85.07 102.418 87.2148 104.529 88.6607C105.346 89.2155 106.312 89.7476 106.591 90.693C106.738 91.2957 106.647 91.9316 106.338 92.4697C106.029 93.0008 105.654 93.4902 105.22 93.9261L105.181 94.074C103.155 92.8759 101.227 91.3603 100.108 89.2925C98.9892 87.2247 98.8329 84.5145 100.207 82.606Z" fill="#F2F2F2"/>
<path d="M167.658 141.251C168.338 143.715 169.869 145.86 171.981 147.306C172.797 147.86 173.763 148.393 174.042 149.338C174.189 149.941 174.099 150.577 173.79 151.115C173.481 151.646 173.105 152.135 172.672 152.571L172.632 152.719C170.606 151.521 168.679 150.005 167.56 147.937C166.44 145.87 166.284 143.16 167.658 141.251Z" fill="#F2F2F2"/>
<path d="M33.0452 137.207C33.7249 139.671 35.256 141.815 37.3677 143.261C38.1841 143.816 39.15 144.348 39.4293 145.294C39.5762 145.896 39.4857 146.532 39.1764 147.07C38.8676 147.601 38.492 148.091 38.0586 148.527L38.019 148.675C35.993 147.476 34.0656 145.961 32.9465 143.893C31.8274 141.825 31.6711 139.115 33.0452 137.207Z" fill="#F2F2F2"/>
<path d="M187.951 29.467C196.105 29.467 202.715 22.8706 202.715 14.7335C202.715 6.5964 196.105 0 187.951 0C179.798 0 173.187 6.5964 173.187 14.7335C173.187 22.8706 179.798 29.467 187.951 29.467Z" fill="#FF3E62"/>
<path d="M214.595 3.4293C207.44 2.46413 199.271 6.32361 197.416 13.2873C196.949 12.0492 196.099 10.9913 194.99 10.2667C193.881 9.54198 192.569 9.18798 191.245 9.25578C189.921 9.32359 188.653 9.80969 187.624 10.6439C186.595 11.478 185.858 12.6171 185.52 13.8965L186.339 14.482C201.673 17.791 217.545 17.7194 232.848 14.2721C227.871 9.05217 221.75 4.39445 214.595 3.4293Z" fill="#F0F0F0"/>
<path d="M183.909 23.0738C176.754 22.1087 168.585 25.9681 166.73 32.9318C166.263 31.6937 165.413 30.6359 164.304 29.9112C163.195 29.1865 161.883 28.8325 160.559 28.9003C159.235 28.9681 157.967 29.4542 156.938 30.2884C155.909 31.1226 155.172 32.2616 154.834 33.541L155.653 34.1265C170.987 37.4356 186.859 37.3639 202.162 33.9167C197.185 28.6967 191.064 24.039 183.909 23.0738Z" fill="#F0F0F0"/>
<path d="M246.36 26.7885C246.33 26.7886 246.301 26.784 246.272 26.775C169.729 2.61838 102.267 5.77729 59.1515 12.6811C53.2839 13.6203 47.4007 14.705 41.6652 15.9054C40.2009 16.2115 38.6818 16.5396 37.1501 16.8813C35.3208 17.2878 33.5159 17.7065 31.7852 18.1252C31.0377 18.3018 30.3048 18.4798 29.5866 18.6592C28.4986 18.9272 27.3946 19.2065 26.2112 19.5135C24.8888 19.8537 23.5453 20.2106 22.217 20.5742C22.2121 20.576 22.2072 20.5774 22.2021 20.5785L22.2023 20.5788C20.702 20.9875 19.2096 21.4082 17.7664 21.8283C16.9852 22.0534 16.231 22.2754 15.5085 22.4947C15.4278 22.5169 15.3563 22.5384 15.2838 22.5604L15.1286 22.6075C15.0387 22.6349 14.9499 22.6617 14.8611 22.6871L14.8555 22.6887L14.8556 22.689L14.6207 22.7618C14.3405 22.8465 14.0671 22.9291 13.7983 23.0115C6.69277 25.1974 2.78662 26.7524 2.74803 26.7677C2.71275 26.7818 2.67502 26.7888 2.637 26.7884C2.59899 26.788 2.56143 26.7801 2.52648 26.7651C2.49153 26.7502 2.45986 26.7286 2.43328 26.7014C2.40671 26.6743 2.38576 26.6422 2.37161 26.607C2.35747 26.5718 2.35041 26.5341 2.35085 26.4962C2.35129 26.4583 2.3592 26.4208 2.37415 26.3859C2.3891 26.351 2.41079 26.3194 2.43798 26.2929C2.46517 26.2664 2.49732 26.2455 2.53261 26.2314C2.57148 26.2161 6.49671 24.6532 13.6281 22.4591C13.898 22.3765 14.172 22.2938 14.453 22.2089L14.6713 22.1412C14.6788 22.1384 14.6863 22.1361 14.6939 22.1338C14.7823 22.1087 14.8705 22.0819 14.9601 22.0548L15.1156 22.0077C15.193 21.9843 15.2694 21.9612 15.3475 21.9397C16.065 21.7219 16.8218 21.4993 17.6049 21.2734C19.0487 20.853 20.5425 20.4324 22.044 20.023C22.0486 20.0213 22.0534 20.0202 22.0581 20.0188C23.3911 19.654 24.7396 19.2954 26.0662 18.954C27.2514 18.6468 28.3575 18.367 29.4473 18.0984C30.1687 17.9192 30.9029 17.7408 31.6502 17.5632C33.3829 17.144 35.1915 16.7247 37.024 16.3173C38.5581 15.9754 40.0798 15.6465 41.5464 15.3401C47.2909 14.1377 53.1833 13.0512 59.0598 12.1106C102.237 5.19698 169.796 2.03298 246.447 26.2243C246.513 26.245 246.569 26.2887 246.606 26.3472C246.642 26.4058 246.656 26.4755 246.646 26.5437C246.635 26.6118 246.601 26.674 246.548 26.7189C246.496 26.7638 246.429 26.7885 246.36 26.7885Z" fill="#CCCCCC"/>
<path d="M76.1328 121.288C76.0325 120.996 75.8638 120.731 75.6407 120.517C75.5583 120.441 75.4691 120.372 75.3743 120.312C74.6188 119.809 73.4897 119.696 72.7718 120.312C72.6995 120.374 72.6327 120.443 72.5721 120.517C72.3578 120.78 72.1378 121.037 71.912 121.288C71.5415 121.71 71.1622 122.117 70.7656 122.513C70.6527 122.623 70.5398 122.736 70.424 122.845C70.3575 122.912 70.2909 122.975 70.2243 123.039C69.9695 123.282 69.709 123.516 69.4456 123.747C69.3066 123.871 69.1676 123.992 69.0258 124.111C68.8145 124.287 68.6031 124.463 68.3889 124.634C68.3687 124.648 68.3484 124.663 68.3281 124.68C68.3223 124.683 68.3194 124.689 68.3137 124.691C68.3108 124.691 68.3079 124.691 68.305 124.697C68.2971 124.7 68.2902 124.705 68.2847 124.712C68.221 124.755 68.1776 124.784 68.1458 124.81C68.1573 124.804 68.1689 124.795 68.1805 124.79C68.1284 124.83 68.0734 124.871 68.0213 124.911C67.5147 125.284 66.9965 125.642 66.4667 125.977C65.156 126.814 63.7793 127.544 62.3501 128.158C62.2546 128.196 62.1562 128.236 62.0578 128.274C58.316 129.803 54.257 130.4 50.2321 130.013C49.821 129.981 49.4099 129.938 48.9988 129.883C48.5241 129.813 48.0522 129.73 47.5832 129.634C45.7978 129.279 44.0509 128.753 42.3666 128.063C40.2597 127.1 38.2559 125.927 36.3857 124.561C36.0962 124.356 35.8039 124.151 35.5115 123.952C35.8444 123.137 36.1715 122.323 36.4899 121.502C36.6492 121.106 36.8026 120.71 36.9531 120.312C38.1371 117.241 39.2488 114.141 40.3141 111.03C41.391 107.878 42.4071 104.708 43.3625 101.519C43.4609 101.196 43.5564 100.872 43.6491 100.549C44.1499 98.8645 44.6304 97.1764 45.0907 95.4845C45.1341 95.3198 45.1805 95.158 45.221 94.9934C45.3541 94.508 45.4844 94.0227 45.6118 93.5373C45.9013 92.4424 45.247 91.1338 44.0949 90.8709C43.5401 90.7289 42.9518 90.8074 42.4539 91.0898C41.956 91.3722 41.5874 91.8364 41.4258 92.3847C41.3013 92.8527 41.1768 93.3178 41.0494 93.7858C40.4386 96.0478 39.7959 98.3021 39.1214 100.549C39.023 100.872 38.9246 101.196 38.8261 101.519C37.3382 106.413 35.7045 111.258 33.9251 116.054C33.7108 116.634 33.4937 117.213 33.2737 117.79C33.1666 118.073 33.0595 118.356 32.9495 118.639C32.7381 119.197 32.521 119.754 32.3039 120.312C32.1794 120.638 32.052 120.965 31.9247 121.288C31.8407 121.493 31.7597 121.699 31.6786 121.901C30.8532 121.605 29.9981 121.4 29.1282 121.288L28.9892 121.271C28.3148 121.19 27.6328 121.196 26.9599 121.288C25.9528 121.406 24.9838 121.742 24.1214 122.274C23.259 122.806 22.5242 123.521 21.9691 124.368C20.5882 126.537 20.6056 129.64 22.5423 131.483C24.5369 133.381 27.5563 133.367 29.904 132.18C31.1482 131.508 32.1973 130.527 32.9495 129.331C33.2376 128.898 33.5024 128.449 33.7427 127.988C33.8035 128.028 33.8643 128.069 33.9251 128.112C34.1566 128.274 34.3882 128.438 34.6169 128.6C35.9495 129.564 37.3537 130.424 38.8175 131.174C41.9648 132.736 45.3527 133.758 48.8396 134.199C48.9178 134.208 48.993 134.219 49.0712 134.228C49.4562 134.277 49.8442 134.314 50.2321 134.346C55.7967 134.765 61.3682 133.628 66.322 131.064C66.7417 130.848 67.1576 130.62 67.5697 130.383C68.2094 130.013 68.8347 129.62 69.4456 129.204C69.7785 128.979 70.1027 128.75 70.424 128.511C71.8282 127.478 73.1371 126.323 74.3351 125.058C74.7895 124.582 75.2247 124.09 75.6407 123.582C76.034 123.167 76.2606 122.622 76.2775 122.051C76.2753 121.79 76.2263 121.532 76.1328 121.288ZM28.196 128.17C28.2568 128.126 28.3176 128.08 28.3755 128.034C28.3582 128.077 28.2742 128.126 28.196 128.17ZM29.1253 127.237C29.0587 127.312 28.9979 127.387 28.9313 127.462C28.7288 127.688 28.5112 127.9 28.28 128.097C28.2481 128.126 28.2134 128.155 28.1787 128.181C28.1783 128.181 28.1779 128.181 28.1776 128.181C28.1772 128.182 28.1769 128.182 28.1766 128.182C28.1763 128.182 28.1761 128.183 28.176 128.183C28.1758 128.183 28.1758 128.184 28.1758 128.184C28.134 128.203 28.0933 128.224 28.0542 128.248C27.9297 128.323 27.8023 128.392 27.6721 128.456C27.417 128.549 27.1546 128.622 26.8875 128.672C26.6823 128.687 26.4764 128.689 26.2709 128.678H26.2651C26.1233 128.647 25.9832 128.608 25.8454 128.563C25.7759 128.528 25.7093 128.487 25.6427 128.447C25.6167 128.424 25.5935 128.401 25.579 128.386C25.5508 128.361 25.5246 128.333 25.5009 128.303C25.5009 128.302 25.5008 128.302 25.5007 128.301C25.5005 128.301 25.5003 128.301 25.5001 128.301C25.4998 128.3 25.4995 128.3 25.4991 128.3C25.4988 128.3 25.4984 128.3 25.498 128.3C25.4661 128.242 25.4314 128.184 25.3996 128.126C25.3979 128.125 25.3969 128.123 25.3967 128.121C25.3735 128.048 25.3533 127.973 25.3359 127.898C25.3296 127.766 25.3306 127.634 25.3388 127.502C25.3776 127.318 25.4299 127.136 25.4951 126.959C25.5537 126.834 25.6204 126.712 25.6949 126.595C25.7006 126.584 25.7296 126.537 25.7614 126.485C25.7643 126.483 25.7643 126.483 25.7643 126.48C25.8078 126.431 25.8512 126.379 25.8975 126.332C25.9757 126.246 26.0596 126.171 26.1436 126.093C26.3068 125.986 26.476 125.889 26.6502 125.801C26.9265 125.703 27.2101 125.627 27.4984 125.573C27.9234 125.539 28.3507 125.543 28.775 125.584C29.177 125.654 29.5736 125.751 29.9619 125.876C29.7266 126.332 29.4586 126.77 29.1601 127.187C29.1485 127.205 29.1369 127.222 29.1253 127.237ZM25.9062 126.286C25.8807 126.327 25.8506 126.365 25.8164 126.399C25.8394 126.356 25.8698 126.318 25.9062 126.286Z" fill="#3F3D56"/>
<path d="M67.4307 91.7839C67.4047 92.691 67.3786 93.5981 67.3525 94.5052C67.2975 96.5188 67.2406 98.5334 67.1817 100.549C67.1209 102.817 67.0573 105.083 66.9907 107.349C66.9588 108.519 66.926 109.689 66.8922 110.859C66.8025 114.011 66.7137 117.162 66.6259 120.312C66.6172 120.638 66.6057 120.962 66.597 121.288C66.5535 122.851 66.5101 124.414 66.4667 125.977C66.4175 127.673 66.3692 129.369 66.322 131.065C66.2872 132.336 66.2515 133.608 66.2148 134.881C65.9543 144.105 65.6938 153.329 65.4332 162.554C65.4222 163.125 65.1899 163.67 64.7851 164.074C64.3803 164.478 63.8344 164.709 63.262 164.72C62.6876 164.716 62.1381 164.486 61.7319 164.081C61.3257 163.675 61.0955 163.127 61.0909 162.554C61.2356 157.365 61.3823 152.177 61.5309 146.988C61.6612 142.297 61.7934 137.605 61.9275 132.913C61.9709 131.368 62.0143 129.821 62.0578 128.274C62.1243 125.945 62.19 123.617 62.2546 121.288C62.2633 120.962 62.2749 120.638 62.2836 120.312C62.2894 120.026 62.298 119.743 62.3067 119.457C62.4341 114.936 62.5615 110.414 62.6888 105.89C62.741 104.111 62.7911 102.33 62.8394 100.549C62.8973 98.518 62.9552 96.488 63.0131 94.459C63.0391 93.5663 63.0623 92.6766 63.0883 91.7839C63.0994 91.2127 63.3316 90.6679 63.7364 90.2639C64.1413 89.86 64.6871 89.6282 65.2595 89.6172C65.8339 89.6218 66.3835 89.8516 66.7897 90.2569C67.1958 90.6622 67.4261 91.2107 67.4307 91.7839Z" fill="#3F3D56"/>
<path d="M186.535 92.3851C184.259 100.988 181.537 109.468 178.383 117.791C177.512 120.086 176.622 122.377 175.67 124.641L175.889 124.123C175.464 125.201 174.921 126.229 174.271 127.189C174.226 127.251 174.181 127.312 174.136 127.373C174.361 127.086 174.403 127.029 174.264 127.203C174.19 127.289 174.118 127.377 174.042 127.461C173.839 127.688 173.621 127.9 173.39 128.098C173.332 128.147 173.273 128.196 173.213 128.243L173.485 128.033C173.453 128.107 173.232 128.205 173.163 128.247C172.94 128.382 172.708 128.499 172.467 128.6L172.986 128.381C172.592 128.539 172.181 128.652 171.761 128.716L172.338 128.639C171.926 128.696 171.508 128.7 171.094 128.652L171.671 128.73C171.333 128.683 171.001 128.594 170.685 128.465L171.204 128.683C171.035 128.61 170.873 128.523 170.718 128.424C170.639 128.373 170.398 128.191 170.714 128.431C171.042 128.682 170.756 128.453 170.688 128.386C170.632 128.331 170.581 128.271 170.526 128.214C170.271 127.953 170.815 128.664 170.641 128.359C170.548 128.205 170.464 128.048 170.387 127.886L170.606 128.403C170.506 128.157 170.436 127.9 170.395 127.637L170.473 128.213C170.431 127.887 170.431 127.556 170.472 127.23L170.394 127.806C170.447 127.441 170.544 127.084 170.682 126.742L170.463 127.26C170.56 127.03 170.674 126.808 170.804 126.596C170.864 126.486 170.935 126.383 171.015 126.287C171.029 126.291 170.648 126.724 170.85 126.505C170.903 126.448 170.953 126.388 171.006 126.331C171.092 126.241 171.184 126.158 171.274 126.072C171.577 125.785 170.851 126.351 171.2 126.124C171.453 125.958 171.719 125.813 171.996 125.691L171.477 125.909C171.941 125.719 172.427 125.589 172.923 125.522L172.346 125.599C172.968 125.528 173.597 125.535 174.217 125.621L173.639 125.544C174.424 125.663 175.192 125.878 175.924 126.185L175.405 125.967C176.966 126.635 178.347 127.628 179.727 128.601C181.059 129.564 182.463 130.424 183.926 131.174C187.074 132.736 190.462 133.759 193.949 134.2C198.95 134.811 204.025 134.159 208.708 132.304C213.391 130.449 217.532 127.45 220.752 123.582C221.144 123.167 221.371 122.622 221.388 122.05C221.383 121.477 221.155 120.927 220.752 120.518C219.955 119.789 218.45 119.583 217.681 120.518C216.952 121.406 216.168 122.249 215.334 123.039C214.945 123.408 214.545 123.765 214.135 124.111C213.901 124.309 213.664 124.502 213.423 124.692C213.309 124.782 212.954 125.021 213.499 124.635C213.374 124.724 213.254 124.82 213.131 124.911C211.308 126.252 209.332 127.374 207.245 128.252L207.764 128.034C205.524 128.971 203.172 129.614 200.767 129.947L201.344 129.869C198.869 130.194 196.362 130.19 193.888 129.858L194.465 129.936C191.992 129.597 189.573 128.939 187.27 127.98L187.788 128.198C185.565 127.217 183.455 125.997 181.496 124.561C180.476 123.807 179.401 123.132 178.279 122.54C176.972 121.874 175.556 121.445 174.099 121.272C171.367 120.952 168.582 122.014 167.08 124.369C165.697 126.538 165.715 129.64 167.651 131.483C169.645 133.382 172.665 133.366 175.015 132.178C177.278 131.035 178.637 128.658 179.593 126.417C181.744 121.375 183.649 116.216 185.423 111.03C187.179 105.9 188.771 100.718 190.199 95.4839C190.376 94.8357 190.551 94.1868 190.723 93.5372C191.012 92.4426 190.357 91.1336 189.206 90.8719C188.651 90.7293 188.062 90.8075 187.564 91.0898C187.066 91.3721 186.697 91.8366 186.535 92.3851Z" fill="#3F3D56"/>
<path d="M208.199 91.7836L207.417 119.457L206.64 146.987L206.2 162.554C206.205 163.127 206.435 163.675 206.841 164.08C207.248 164.486 207.797 164.716 208.371 164.72C208.944 164.709 209.49 164.478 209.894 164.074C210.299 163.67 210.531 163.125 210.542 162.554L211.324 134.88L212.101 107.35L212.541 91.7836C212.536 91.2105 212.306 90.6622 211.9 90.2569C211.494 89.8517 210.944 89.6218 210.37 89.6169C209.797 89.628 209.252 89.8598 208.847 90.2638C208.442 90.6677 208.21 91.2124 208.199 91.7836Z" fill="#3F3D56"/>
<path opacity="0.2" d="M133.047 154.827H133.722V124.193H149.449V123.522H133.722V110.595H145.867C145.689 110.369 145.506 110.146 145.318 109.926H133.722V101.388C133.499 101.294 133.274 101.202 133.047 101.116V109.926H119.832V98.9871C119.605 98.9974 119.382 99.0129 119.157 99.0319V109.926H108.614V101.764C108.388 101.865 108.165 101.97 107.943 102.08V109.926H99.0804V110.595H107.943V123.522H99.0804V124.193H107.943V154.827H108.614V124.193C109.999 124.192 111.37 124.464 112.649 124.993C113.928 125.522 115.091 126.297 116.07 127.274C117.049 128.251 117.826 129.411 118.355 130.687C118.885 131.964 119.158 133.332 119.157 134.714V154.827H119.832V124.193H133.047V154.827ZM108.614 123.522V110.595H119.157V123.522H108.614ZM119.832 123.522V110.595H120.096C121.797 110.595 123.481 110.93 125.053 111.58C126.624 112.229 128.052 113.181 129.254 114.382C130.457 115.582 131.411 117.007 132.062 118.575C132.713 120.143 133.048 121.824 133.047 123.522H119.832Z" fill="black"/>
<path d="M128.93 145.642C128.081 149.42 126.048 152.83 123.126 155.378C122.912 155.563 122.697 155.742 122.474 155.918C121.933 155.967 121.396 156.017 120.862 156.068C120.419 156.109 119.982 156.152 119.548 156.192L119.47 156.201L119.415 155.727L119.195 153.809C118.341 152.418 117.812 150.854 117.647 149.232C117.481 147.609 117.684 145.971 118.239 144.437C119.003 142.38 120.387 140.563 121.748 138.761C123.627 136.27 125.453 133.809 125.52 130.773C126.444 131.953 127.213 133.248 127.807 134.624C127.246 134.887 126.743 135.257 126.325 135.713C126.206 135.843 126.087 136.025 126.168 136.181C126.238 136.314 126.412 136.345 126.562 136.363C126.924 136.4 127.289 136.438 127.651 136.475C127.94 136.507 128.23 136.536 128.519 136.568C128.869 137.715 129.107 138.893 129.228 140.087C129.423 141.942 129.323 143.817 128.93 145.642Z" fill="#3F3D56"/>
<path d="M138.541 138.07C136.833 139.309 135.834 141.092 135.059 143.056C134.263 143.31 133.548 143.766 132.983 144.379C132.864 144.509 132.746 144.691 132.827 144.847C132.896 144.98 133.07 145.012 133.22 145.029C133.582 145.067 133.947 145.105 134.309 145.142C133.533 147.465 132.821 149.868 131.449 151.83C130.536 153.125 129.347 154.202 127.966 154.982C127.59 155.196 127.201 155.388 126.802 155.557C125.332 155.669 123.889 155.79 122.474 155.918C121.933 155.967 121.396 156.017 120.862 156.068C120.419 156.108 119.982 156.152 119.548 156.192C119.545 156.033 119.545 155.874 119.548 155.716C119.639 151.483 121.2 147.413 123.962 144.2C124.093 144.05 124.226 143.903 124.362 143.755C125.762 142.263 127.408 141.022 129.228 140.086C132.097 138.598 135.312 137.902 138.541 138.07Z" fill="#47B5FF"/>
<path d="M121.363 154.586L121.03 155.568L120.862 156.068C120.419 156.109 119.982 156.152 119.548 156.192L119.47 156.201C118.989 156.25 118.511 156.299 118.034 156.348C117.909 156.204 117.785 156.057 117.663 155.906C114.641 152.255 113.191 147.558 113.629 142.843C114.067 138.127 116.357 133.776 119.999 130.741C119.617 132.737 120.063 134.65 120.795 136.548C120.717 136.579 120.642 136.611 120.57 136.646C120.009 136.909 119.506 137.279 119.087 137.735C118.969 137.865 118.85 138.047 118.931 138.203C119.001 138.336 119.174 138.368 119.325 138.385C119.687 138.423 120.051 138.46 120.413 138.498C120.703 138.529 120.992 138.558 121.282 138.59C121.418 138.605 121.554 138.619 121.69 138.633C121.71 138.677 121.728 138.717 121.748 138.761C122.573 140.546 123.462 142.34 123.962 144.2C124.088 144.667 124.187 145.141 124.258 145.619C124.481 147.235 124.336 148.88 123.835 150.432C123.334 151.984 122.489 153.404 121.363 154.586Z" fill="#47B5FF"/>
<path d="M150.502 112.685C148.01 107.834 144.149 103.753 139.608 100.753C135.053 97.7578 129.825 95.9337 124.392 95.4433C123.68 95.3788 122.966 95.3409 122.25 95.3299C121.404 95.3172 108.683 98.9791 104.421 101.969C100.162 104.923 96.658 108.834 94.1924 113.388C91.7312 117.967 90.5206 123.111 90.6822 128.305C90.8932 133.529 92.3525 138.628 94.9385 143.176C97.4892 147.709 101.111 151.551 105.489 154.369C109.929 157.196 114.389 164.693 119.632 164.957C124.914 165.224 130.937 158.153 135.755 156.005C140.572 153.84 144.737 150.453 147.834 146.182C150.844 141.995 152.79 137.143 153.508 132.041C154.253 126.817 153.906 121.429 152.118 116.436C151.659 115.153 151.12 113.9 150.502 112.685C149.987 111.673 148.477 111.3 147.532 111.908C147.045 112.207 146.692 112.682 146.547 113.235C146.402 113.787 146.476 114.373 146.753 114.873C147.055 115.467 147.337 116.072 147.597 116.686L147.378 116.169C148.362 118.53 149.032 121.011 149.369 123.546L149.291 122.97C149.65 125.721 149.643 128.507 149.272 131.256L149.35 130.68C148.974 133.429 148.239 136.117 147.163 138.675L147.381 138.158C146.828 139.463 146.182 140.727 145.45 141.942C145.079 142.555 144.685 143.154 144.269 143.739C144.086 143.996 143.897 144.248 143.707 144.499C143.46 144.827 144.045 144.071 143.789 144.393C143.746 144.447 143.702 144.502 143.658 144.557C143.527 144.721 143.394 144.884 143.258 145.045C142.356 146.119 141.371 147.122 140.312 148.044C140.049 148.274 139.781 148.498 139.508 148.718C139.373 148.827 139.238 148.941 139.097 149.043C139.102 149.039 139.554 148.696 139.287 148.895C139.203 148.958 139.119 149.021 139.035 149.083C138.473 149.499 137.897 149.893 137.305 150.265C135.944 151.121 134.515 151.867 133.034 152.494L133.552 152.275C130.997 153.349 128.311 154.082 125.563 154.457L126.141 154.379C123.395 154.75 120.612 154.755 117.864 154.394L118.442 154.471C115.945 154.137 113.502 153.478 111.177 152.512L111.695 152.73C110.348 152.162 109.049 151.487 107.812 150.71C107.199 150.325 106.602 149.916 106.021 149.483C105.939 149.422 105.856 149.359 105.774 149.297C105.509 149.097 105.964 149.444 105.968 149.446C105.814 149.336 105.666 149.218 105.524 149.093C105.243 148.865 104.967 148.631 104.695 148.393C103.608 147.437 102.593 146.403 101.658 145.299C101.423 145.023 101.194 144.743 100.97 144.458C100.873 144.335 100.696 144.085 101.087 144.611C101.036 144.542 100.983 144.474 100.931 144.405C100.806 144.24 100.683 144.074 100.561 143.906C100.136 143.319 99.732 142.718 99.3489 142.102C98.4832 140.708 97.7278 139.248 97.0893 137.737L97.3082 138.255C96.2634 135.774 95.549 133.168 95.1832 130.502L95.2608 131.078C94.9307 128.62 94.926 126.13 95.2467 123.672L95.1692 124.248C95.498 121.867 96.1399 119.539 97.0783 117.326L96.8594 117.844C97.4497 116.458 98.1461 115.12 98.9423 113.841C99.3409 113.201 99.7634 112.576 100.21 111.967C100.311 111.829 100.414 111.691 100.517 111.555C100.611 111.431 100.869 111.123 100.429 111.667C100.472 111.614 100.513 111.559 100.556 111.505C100.801 111.195 101.052 110.891 101.309 110.591C102.281 109.455 103.334 108.391 104.459 107.407C104.744 107.158 105.033 106.915 105.326 106.676C105.459 106.568 105.594 106.461 105.729 106.355C105.783 106.312 105.838 106.271 105.891 106.228C105.313 106.687 105.731 106.353 105.862 106.255C106.467 105.803 107.088 105.373 107.725 104.966C109.141 104.062 110.631 103.279 112.179 102.624L111.66 102.842C113.907 101.901 123.86 99.6791 125.67 99.9216L125.093 99.8442C127.754 100.215 130.354 100.932 132.828 101.977L132.309 101.758C133.563 102.29 134.781 102.9 135.957 103.587C136.544 103.931 137.12 104.293 137.685 104.674C137.952 104.854 138.216 105.039 138.477 105.227C138.608 105.321 138.738 105.417 138.867 105.513C138.939 105.566 139.01 105.62 139.082 105.674C139.382 105.899 138.667 105.348 138.983 105.597C140.038 106.425 141.04 107.317 141.984 108.27C142.447 108.741 142.895 109.227 143.326 109.728C143.548 109.985 143.764 110.245 143.977 110.51C144.082 110.641 144.441 111.117 144.001 110.534C144.109 110.677 144.217 110.818 144.324 110.962C145.238 112.197 146.051 113.505 146.753 114.873C147.272 115.883 148.776 116.26 149.723 115.65C150.211 115.351 150.564 114.876 150.709 114.324C150.854 113.771 150.78 113.185 150.502 112.685Z" fill="#3F3D56"/>
<path d="M125.204 148.044C124.98 148.054 124.758 147.996 124.568 147.876C124.379 147.756 124.231 147.581 124.144 147.375C124.057 147.168 124.037 146.94 124.084 146.721C124.132 146.502 124.246 146.304 124.411 146.152C124.438 146.042 124.458 145.964 124.486 145.854C124.476 145.83 124.466 145.806 124.456 145.783C123.449 143.386 117.02 150.068 116.742 152.321C116.62 153.317 116.672 154.326 116.895 155.304C114.813 150.772 113.732 145.845 113.725 140.859C113.724 139.608 113.794 138.357 113.933 137.114C114.049 136.095 114.208 135.082 114.413 134.078C115.529 128.625 117.925 123.515 121.405 119.166C123.394 119.277 125.138 118.974 125.307 115.126C125.337 114.441 125.846 113.848 125.958 113.174C125.768 113.199 125.575 113.214 125.385 113.227C125.326 113.23 125.263 113.233 125.204 113.236L125.182 113.237C124.973 113.246 124.766 113.195 124.586 113.09C124.405 112.985 124.259 112.83 124.165 112.643C124.071 112.457 124.033 112.248 124.055 112.04C124.078 111.833 124.16 111.637 124.291 111.475C124.373 111.374 124.455 111.273 124.538 111.173C124.662 111.017 124.79 110.865 124.914 110.709C124.929 110.695 124.942 110.679 124.955 110.663C125.098 110.486 125.241 110.312 125.385 110.134C125.123 109.729 124.771 109.39 124.357 109.143C122.921 108.304 120.941 108.885 119.903 110.181C118.863 111.477 118.667 113.295 119.028 114.914C119.384 116.292 119.971 117.6 120.766 118.781C120.688 118.88 120.607 118.976 120.529 119.076C119.106 120.902 117.866 122.863 116.826 124.931C117.12 122.638 113.522 114.355 112.131 112.601C110.46 110.494 107.033 111.414 106.738 114.085C106.735 114.111 106.733 114.136 106.73 114.162C106.937 114.279 107.139 114.402 107.337 114.533C107.585 114.699 107.778 114.935 107.89 115.212C108.001 115.489 108.026 115.793 107.961 116.085C107.897 116.376 107.745 116.641 107.527 116.845C107.309 117.049 107.034 117.183 106.738 117.228L106.708 117.233C103.942 121.174 112.81 131.433 115.03 129.13C113.985 132.085 113.329 135.162 113.08 138.286C112.939 140.128 112.947 141.979 113.105 143.821L113.096 143.756C112.602 139.745 104.141 133.782 101.67 134.279C100.247 134.565 98.8452 134.5 99.0613 135.933C99.0648 135.956 99.0683 135.978 99.0718 136.001C99.4553 136.157 99.8287 136.337 100.19 136.539C100.397 136.655 100.599 136.779 100.797 136.909C101.045 137.075 101.238 137.312 101.35 137.589C101.461 137.866 101.486 138.17 101.421 138.461C101.357 138.753 101.205 139.018 100.987 139.222C100.769 139.426 100.494 139.559 100.198 139.605L100.168 139.61C100.146 139.613 100.128 139.616 100.106 139.619C98.8466 143.943 108.185 150.92 113.862 148.7H113.865C114.427 151.14 115.243 153.515 116.297 155.786H124.986C125.017 155.69 125.045 155.59 125.073 155.494C124.269 155.544 123.462 155.496 122.669 155.351C123.314 154.562 123.958 153.766 124.603 152.977C124.617 152.962 124.631 152.946 124.643 152.93C124.97 152.526 125.301 152.125 125.628 151.721L125.628 151.721C125.645 150.482 125.503 149.247 125.204 148.044L125.204 148.044ZM115.254 128.511L115.258 128.505L115.254 128.518V128.511ZM113.329 145.825L113.254 145.658C113.258 145.536 113.258 145.415 113.254 145.291C113.254 145.257 113.248 145.222 113.248 145.188C113.276 145.403 113.301 145.617 113.332 145.832L113.329 145.825Z" fill="#3F3D56"/>
<path d="M27.5736 130.001C29.3323 130.001 30.758 128.579 30.758 126.824C30.758 125.069 29.3323 123.646 27.5736 123.646C25.8149 123.646 24.3892 125.069 24.3892 126.824C24.3892 128.579 25.8149 130.001 27.5736 130.001Z" fill="#3F3D56"/>
<path d="M65.7864 164.668C67.5451 164.668 68.9708 163.246 68.9708 161.491C68.9708 159.735 67.5451 158.313 65.7864 158.313C64.0277 158.313 62.602 159.735 62.602 161.491C62.602 163.246 64.0277 164.668 65.7864 164.668Z" fill="#3F3D56"/>
<path d="M210.821 164.668C212.58 164.668 214.006 163.246 214.006 161.491C214.006 159.735 212.58 158.313 210.821 158.313C209.063 158.313 207.637 159.735 207.637 161.491C207.637 163.246 209.063 164.668 210.821 164.668Z" fill="#3F3D56"/>
<path d="M218.637 124.224C220.396 124.224 221.822 122.801 221.822 121.046C221.822 119.291 220.396 117.868 218.637 117.868C216.879 117.868 215.453 119.291 215.453 121.046C215.453 122.801 216.879 124.224 218.637 124.224Z" fill="#3F3D56"/>
<path d="M209.374 94.7565C211.132 94.7565 212.558 93.3337 212.558 91.5787C212.558 89.8236 211.132 88.4009 209.374 88.4009C207.615 88.4009 206.189 89.8236 206.189 91.5787C206.189 93.3337 207.615 94.7565 209.374 94.7565Z" fill="#3F3D56"/>
<path d="M76.4976 121.046C76.4956 121.857 76.1811 122.637 75.619 123.224C75.0569 123.811 74.2902 124.159 73.4777 124.198C72.6652 124.236 71.869 123.961 71.2539 123.43C70.6388 122.899 70.2519 122.152 70.1732 121.344C70.0945 120.536 70.33 119.729 70.8311 119.09C71.3321 118.45 72.0604 118.028 72.8651 117.909C73.6698 117.791 74.4893 117.985 75.1542 118.453C75.819 118.921 76.2782 119.626 76.4368 120.422C76.4776 120.627 76.498 120.836 76.4976 121.046Z" fill="#3F3D56"/>
<path d="M140.185 104.001C141.944 104.001 143.37 102.578 143.37 100.823C143.37 99.0683 141.944 97.6455 140.185 97.6455C138.427 97.6455 137.001 99.0683 137.001 100.823C137.001 102.578 138.427 104.001 140.185 104.001Z" fill="#3F3D56"/>
<path d="M108.631 100.823C108.629 101.635 108.315 102.415 107.752 103.002C107.19 103.588 106.424 103.937 105.611 103.975C104.799 104.014 104.003 103.739 103.387 103.208C102.772 102.677 102.385 101.93 102.307 101.122C102.228 100.314 102.463 99.5069 102.965 98.8674C103.466 98.228 104.194 97.8053 104.999 97.6867C105.803 97.5682 106.623 97.7629 107.288 98.2306C107.952 98.6983 108.412 99.4032 108.57 100.199C108.611 100.405 108.631 100.614 108.631 100.823Z" fill="#3F3D56"/>
<path d="M67.5233 91.5787C67.5214 92.3905 67.2069 93.1704 66.6448 93.7571C66.0827 94.3438 65.316 94.6925 64.5035 94.7308C63.691 94.7692 62.8948 94.4944 62.2797 93.9632C61.6646 93.4321 61.2777 92.6853 61.199 91.8774C61.1202 91.0695 61.3558 90.2622 61.8569 89.6228C62.3579 88.9834 63.0862 88.5607 63.8909 88.4421C64.6956 88.3236 65.5151 88.5183 66.1799 88.986C66.8448 89.4537 67.304 90.1586 67.4626 90.9547C67.5034 91.1602 67.5238 91.3692 67.5233 91.5787Z" fill="#3F3D56"/>
<path d="M173.477 131.157C175.236 131.157 176.661 129.734 176.661 127.979C176.661 126.224 175.236 124.801 173.477 124.801C171.718 124.801 170.293 126.224 170.293 127.979C170.293 129.734 171.718 131.157 173.477 131.157Z" fill="#3F3D56"/>
<path d="M123.395 102.268C125.953 102.268 128.027 100.198 128.027 97.6455C128.027 95.0927 125.953 93.0232 123.395 93.0232C120.837 93.0232 118.763 95.0927 118.763 97.6455C118.763 100.198 120.837 102.268 123.395 102.268Z" fill="#3F3D56"/>
<path d="M248.655 164.911L0.344689 165C0.299424 165 0.2546 164.991 0.21278 164.974C0.17096 164.956 0.132964 164.931 0.100957 164.899C0.0689494 164.867 0.0435565 164.829 0.0262342 164.788C0.00891187 164.746 0 164.701 0 164.656C0 164.611 0.00891187 164.566 0.0262342 164.524C0.0435565 164.483 0.0689494 164.445 0.100957 164.413C0.132964 164.381 0.17096 164.355 0.21278 164.338C0.2546 164.321 0.299424 164.312 0.344689 164.312L248.655 164.223C248.747 164.223 248.834 164.26 248.898 164.324C248.963 164.389 248.999 164.476 248.999 164.567C248.999 164.658 248.963 164.746 248.898 164.81C248.834 164.874 248.747 164.911 248.655 164.911Z" fill="#CACACA"/>
</g>
<defs>
<clipPath id="clip0_155_898">
<rect width="249" height="165" fill="white"/>
</clipPath>
</defs>
</svg>
