<svg width="90" height="109" viewBox="0 0 90 109" fill="none" xmlns="http://www.w3.org/2000/svg">
<path d="M11.8533 72.3995C10.2007 72.2421 8.46946 72.2421 6.89559 71.7699C3.1183 70.7469 0.521407 67.0483 0.6001 63.3497C0.678794 61.6972 1.70181 60.4381 3.19699 60.202C4.77086 59.9659 6.18735 60.9889 6.58081 62.6415C7.36775 65.7892 7.76122 66.104 10.9877 66.104C12.0107 66.104 12.955 66.104 13.978 66.104C16.5749 65.9466 18.3849 64.1367 18.3849 61.7759C18.3849 59.415 16.5749 57.5264 13.978 57.369C12.1681 57.2903 10.3581 57.369 8.62685 57.0542C3.19699 55.7951 -0.0294499 50.9948 0.678793 45.4076C1.22965 40.4499 5.71518 36.5939 10.9877 36.5152C12.5615 36.5152 14.0567 36.5152 15.6306 36.5152C20.2735 36.5939 23.9721 40.0564 24.523 44.6206C24.759 46.588 23.6573 48.2405 21.9261 48.4766C20.1948 48.7127 18.9357 47.6897 18.4635 45.6437C17.9914 43.2829 17.1258 42.5746 14.8436 42.5746C13.5845 42.5746 12.4041 42.4959 11.145 42.5746C8.54816 42.732 6.8169 44.5419 6.8169 46.9814C6.8169 49.421 8.62685 51.2309 11.145 51.3883C13.0337 51.5457 15.001 51.3883 16.811 51.7818C21.69 52.9622 25.1525 57.9986 24.523 62.7989C23.8934 68.2287 19.644 72.1634 14.2928 72.2421C13.5059 72.2421 12.7189 72.2421 11.8533 72.2421C11.932 72.2421 11.8533 72.3208 11.8533 72.3995Z" fill="#F8FCFF"/>
<path d="M78.5855 36.2792C80.238 36.4366 81.9693 36.4366 83.5432 36.83C87.1631 37.7744 89.76 41.1582 89.996 44.8568C90.0747 46.7454 88.973 48.2406 87.2418 48.398C85.5892 48.5554 84.3301 47.5324 83.9366 45.6437C83.4645 43.2042 82.5988 42.496 80.1593 42.496C78.9002 42.496 77.6411 42.4173 76.4607 42.496C74.0212 42.6534 72.2113 44.4633 72.2113 46.7454C72.2113 49.1849 73.9425 50.9949 76.4607 51.231C78.2707 51.3883 80.238 51.231 81.9693 51.6244C87.0057 52.8048 90.4682 57.6838 89.9173 62.6415C89.2878 68.0714 85.0383 72.0848 79.6085 72.1635C77.8772 72.1635 76.146 72.2421 74.4147 72.1635C69.8505 71.9274 65.9945 67.914 66.0732 63.4285C66.0732 61.6185 67.1749 60.3594 68.7488 60.202C70.3226 60.0446 71.6604 61.0677 72.0539 62.7989C72.7621 65.7893 73.2343 66.1827 76.3033 66.1827C77.4051 66.1827 78.5068 66.2614 79.6085 66.1041C82.048 65.868 83.7792 63.9793 83.7006 61.6185C83.6219 59.3364 81.9693 57.6051 79.6085 57.3691C78.5068 57.2904 77.4051 57.3691 76.3033 57.2904C70.48 57.2117 65.9945 52.6474 65.9945 46.8241C65.9945 41.0795 70.48 36.4366 76.3033 36.3579C77.0116 36.3579 77.7985 36.3579 78.5068 36.3579C78.5855 36.3579 78.5855 36.2792 78.5855 36.2792Z" fill="#F8FCFF"/>
<path d="M33.5727 54.2213C33.7301 51.3096 33.5727 48.3979 34.1236 45.565C35.304 39.5843 41.1273 35.807 47.1867 36.5152C53.01 37.2234 57.5743 42.2598 57.653 48.1619C57.7317 52.3326 57.7317 56.4247 57.653 60.5955C57.5743 67.127 52.2231 72.2421 45.6915 72.2421C39.16 72.2421 33.8875 67.0483 33.8088 60.5168C33.8088 58.392 33.8088 56.346 33.8088 54.2213C33.7301 54.2213 33.6514 54.2213 33.5727 54.2213ZM51.5936 54.4574C51.5936 52.4113 51.6723 50.3653 51.5936 48.3192C51.5149 45.0141 48.918 42.4959 45.8489 42.4959C42.6225 42.4172 39.9469 45.0141 39.8682 48.3192C39.7895 52.2539 39.7895 56.1886 39.8682 60.202C39.9469 63.5858 42.5438 66.1827 45.7702 66.1827C48.9967 66.1827 51.5149 63.5858 51.6722 60.202C51.6722 58.2346 51.5936 56.346 51.5936 54.4574Z" fill="#F8FCFF"/>
<path d="M44.9046 0.237488C54.9774 0.394875 63.3189 3.30654 70.7161 8.97248C72.6834 10.4677 72.9982 12.1989 71.8178 13.7728C70.6374 15.268 68.9061 15.268 67.0962 13.8515C53.7183 3.7787 37.8222 3.7787 24.2082 14.0089C22.3982 15.3467 20.5883 15.268 19.4866 13.7728C18.4635 12.435 18.7783 10.625 20.2735 9.36594C26.0181 4.80172 32.6284 1.89006 39.9469 0.788347C41.8355 0.473572 43.7242 0.394875 44.9046 0.237488Z" fill="#F8FCFF"/>
<path d="M45.6128 108.363C36.327 108.205 27.9855 105.215 20.5883 99.5488C18.7783 98.1323 18.3849 96.4011 19.4866 94.9059C20.667 93.332 22.3982 93.332 24.3656 94.7485C37.4287 104.743 53.9544 104.743 66.9388 94.7485C68.1979 93.8042 69.6144 93.0172 70.9522 94.119C71.7391 94.7485 72.29 96.0076 72.3687 97.0306C72.3687 97.8176 71.5817 98.8406 70.8735 99.3914C63.555 105.215 55.1348 108.205 45.6128 108.363Z" fill="#F8FCFF"/>
<path d="M45.7702 90.7351C38.1369 90.4991 31.3693 88.1382 25.546 83.3379C24.6803 82.6297 23.9721 81.1345 24.0508 80.1115C24.2082 77.7507 26.8051 77.0424 29.0872 78.3802C31.9202 80.1115 34.7531 82.0002 37.9009 83.0232C46.4785 85.8561 54.5052 84.2823 61.8237 79.0098C62.2172 78.695 62.6107 78.3802 63.0041 78.1442C64.4993 77.1998 66.1519 77.5146 67.1749 78.7737C68.1979 80.1902 68.0405 81.7641 66.5453 83.0232C62.6894 86.2496 58.2825 88.453 53.4035 89.5547C50.8066 90.1843 48.2097 90.3417 45.7702 90.7351Z" fill="#F8FCFF"/>
<path d="M45.7702 18.0222C53.4035 18.1796 60.2499 20.5404 66.1519 25.3407C67.6471 26.5998 68.0405 28.0163 67.2536 29.4328C66.4666 30.7706 65.2076 31.2427 63.7911 30.8493C63.2402 30.6919 62.6894 30.2984 62.2172 29.9836C51.6723 22.3504 39.7895 22.3504 29.3233 29.905C28.3789 30.6132 26.8051 31.0067 25.7821 30.6919C23.4212 30.0623 23.1852 27.072 25.2312 25.3407C29.5594 21.7995 34.517 19.5174 40.1043 18.5731C41.9142 18.2583 43.8816 18.1796 45.7702 18.0222Z" fill="#F8FCFF"/>
</svg>
