<svg width="283" height="283" viewBox="0 0 283 283" fill="none" xmlns="http://www.w3.org/2000/svg">
<path d="M141.3 282.6C219.338 282.6 282.6 219.338 282.6 141.3C282.6 63.2622 219.338 0 141.3 0C63.2622 0 0 63.2622 0 141.3C0 219.338 63.2622 282.6 141.3 282.6Z" fill="#BCDEFA"/>
<path d="M141.3 273.7C213.318 273.7 271.7 215.318 271.7 143.3C271.7 71.2821 213.318 12.9 141.3 12.9C69.2821 12.9 10.9 71.2821 10.9 143.3C10.9 215.318 69.2821 273.7 141.3 273.7Z" fill="#9AC5F5"/>
<path d="M141.3 260.7C206.138 260.7 258.7 208.138 258.7 143.3C258.7 78.4618 206.138 25.9 141.3 25.9C76.4618 25.9 23.9 78.4618 23.9 143.3C23.9 208.138 76.4618 260.7 141.3 260.7Z" fill="#5695EC"/>
<path d="M141.3 247.6C198.903 247.6 245.6 200.903 245.6 143.3C245.6 85.6967 198.903 39 141.3 39C83.6967 39 37 85.6967 37 143.3C37 200.903 83.6967 247.6 141.3 247.6Z" fill="#1264E2"/>
<path d="M107.853 161.399C106.201 161.242 104.469 161.242 102.896 160.77C99.1183 159.747 96.5214 156.048 96.6001 152.35C96.6788 150.697 97.7018 149.438 99.197 149.202C100.771 148.966 102.187 149.989 102.581 151.641C103.368 154.789 103.761 155.104 106.988 155.104C108.011 155.104 108.955 155.104 109.978 155.104C112.575 154.947 114.385 153.137 114.385 150.776C114.385 148.415 112.575 146.526 109.978 146.369C108.168 146.29 106.358 146.369 104.627 146.054C99.197 144.795 95.9706 139.995 96.6788 134.408C97.2296 129.45 101.715 125.594 106.988 125.515C108.562 125.515 110.057 125.515 111.631 125.515C116.274 125.594 119.972 129.056 120.523 133.621C120.759 135.588 119.657 137.241 117.926 137.477C116.195 137.713 114.936 136.69 114.464 134.644C113.991 132.283 113.126 131.575 110.844 131.575C109.585 131.575 108.404 131.496 107.145 131.575C104.548 131.732 102.817 133.542 102.817 135.981C102.817 138.421 104.627 140.231 107.145 140.388C109.034 140.546 111.001 140.388 112.811 140.782C117.69 141.962 121.153 146.999 120.523 151.799C119.893 157.229 115.644 161.163 110.293 161.242C109.506 161.242 108.719 161.242 107.853 161.242C107.932 161.242 107.853 161.321 107.853 161.399Z" fill="#F8FCFF"/>
<path d="M174.585 125.279C176.238 125.437 177.969 125.437 179.543 125.83C183.163 126.774 185.76 130.158 185.996 133.857C186.075 135.745 184.973 137.241 183.242 137.398C181.589 137.555 180.33 136.532 179.937 134.644C179.464 132.204 178.599 131.496 176.159 131.496C174.9 131.496 173.641 131.417 172.461 131.496C170.021 131.653 168.211 133.463 168.211 135.745C168.211 138.185 169.943 139.995 172.461 140.231C174.271 140.388 176.238 140.231 177.969 140.624C183.006 141.805 186.468 146.684 185.917 151.642C185.288 157.071 181.038 161.085 175.608 161.163C173.877 161.163 172.146 161.242 170.415 161.163C165.85 160.927 161.994 156.914 162.073 152.428C162.073 150.619 163.175 149.359 164.749 149.202C166.323 149.045 167.66 150.068 168.054 151.799C168.762 154.789 169.234 155.183 172.303 155.183C173.405 155.183 174.507 155.261 175.608 155.104C178.048 154.868 179.779 152.979 179.701 150.619C179.622 148.336 177.969 146.605 175.608 146.369C174.507 146.29 173.405 146.369 172.303 146.29C166.48 146.212 161.994 141.647 161.994 135.824C161.994 130.079 166.48 125.437 172.303 125.358C173.012 125.358 173.799 125.358 174.507 125.358C174.585 125.358 174.585 125.279 174.585 125.279Z" fill="#F8FCFF"/>
<path d="M129.573 143.221C129.73 140.31 129.573 137.398 130.124 134.565C131.304 128.584 137.127 124.807 143.187 125.515C149.01 126.223 153.574 131.26 153.653 137.162C153.732 141.333 153.732 145.425 153.653 149.595C153.574 156.127 148.223 161.242 141.692 161.242C135.16 161.242 129.887 156.048 129.809 149.517C129.809 147.392 129.809 145.346 129.809 143.221C129.73 143.221 129.651 143.221 129.573 143.221ZM147.594 143.457C147.594 141.411 147.672 139.365 147.594 137.319C147.515 134.014 144.918 131.496 141.849 131.496C138.622 131.417 135.947 134.014 135.868 137.319C135.79 141.254 135.79 145.189 135.868 149.202C135.947 152.586 138.544 155.183 141.77 155.183C144.997 155.183 147.515 152.586 147.672 149.202C147.672 147.235 147.594 145.346 147.594 143.457Z" fill="#F8FCFF"/>
<path d="M140.905 89.2375C150.977 89.3949 159.319 92.3065 166.716 97.9725C168.683 99.4677 168.998 101.199 167.818 102.773C166.637 104.268 164.906 104.268 163.096 102.851C149.718 92.7787 133.822 92.7787 120.208 103.009C118.398 104.347 116.588 104.268 115.487 102.773C114.464 101.435 114.778 99.625 116.274 98.3659C122.018 93.8017 128.628 90.8901 135.947 89.7883C137.836 89.4736 139.724 89.3949 140.905 89.2375Z" fill="#F8FCFF"/>
<path d="M141.613 197.363C132.327 197.205 123.985 194.215 116.588 188.549C114.778 187.132 114.385 185.401 115.487 183.906C116.667 182.332 118.398 182.332 120.366 183.749C133.429 193.743 149.954 193.743 162.939 183.749C164.198 182.804 165.614 182.017 166.952 183.119C167.739 183.749 168.29 185.008 168.369 186.031C168.369 186.818 167.582 187.841 166.873 188.391C159.555 194.215 151.135 197.205 141.613 197.363Z" fill="#F8FCFF"/>
<path d="M141.77 179.735C134.137 179.499 127.369 177.138 121.546 172.338C120.68 171.63 119.972 170.135 120.051 169.112C120.208 166.751 122.805 166.042 125.087 167.38C127.92 169.111 130.753 171 133.901 172.023C142.478 174.856 150.505 173.282 157.824 168.01C158.217 167.695 158.611 167.38 159.004 167.144C160.499 166.2 162.152 166.515 163.175 167.774C164.198 169.19 164.041 170.764 162.545 172.023C158.689 175.25 154.283 177.453 149.404 178.555C146.807 179.184 144.21 179.342 141.77 179.735Z" fill="#F8FCFF"/>
<path d="M141.77 107.022C149.404 107.18 156.25 109.54 162.152 114.341C163.647 115.6 164.041 117.016 163.254 118.433C162.467 119.771 161.208 120.243 159.791 119.849C159.24 119.692 158.689 119.298 158.217 118.984C147.672 111.35 135.79 111.35 125.323 118.905C124.379 119.613 122.805 120.007 121.782 119.692C119.421 119.062 119.185 116.072 121.231 114.341C125.559 110.8 130.517 108.517 136.104 107.573C137.914 107.258 139.882 107.18 141.77 107.022Z" fill="#F8FCFF"/>
</svg>
