<svg width="33" height="32" viewBox="0 0 33 32" fill="none"
xmlns="http://www.w3.org/2000/svg">
<path d="M28.3722 19.3714L25.5961 16.2143L26.5432 15.1371C26.7827 14.8648
27.0875 14.7286 27.4577 14.7286C27.8278 14.7286 28.1327 14.8648 28.3722
15.1371L29.3193 16.2143C29.5588 16.4867 29.6786 16.8333 29.6786 17.2543C29.6786
17.6752 29.5588 18.0219 29.3193 18.2943L28.3722 19.3714ZM17.7576
28.2857V25.1286L24.6816 17.2543L27.4577 20.4114L20.5337 28.2857H17.7576ZM6
20.8571V17.8857H15.1448V20.8571H6ZM6 14.9143V11.9429H20.3704V14.9143H6ZM6
8.97143V6H20.3704V8.97143H6Z" fill="#06283D"/>
</svg>
