<svg width="24" height="23" viewBox="0 0 24 23" fill="none" xmlns="http://www.w3.org/2000/svg">
<path d="M22.5151 13.5143L19.7389 10.3572L20.6861 9.28003C20.9256 9.00764 21.2304 8.87145 21.6006 8.87145C21.9707 8.87145 22.2755 9.00764 22.5151 9.28003L23.4622 10.3572C23.7017 10.6296 23.8215 10.9762 23.8215 11.3972C23.8215 11.8181 23.7017 12.1648 23.4622 12.4372L22.5151 13.5143ZM11.9005 22.4286V19.2715L18.8245 11.3972L21.6006 14.5543L14.6766 22.4286H11.9005ZM0.142883 15V12.0286H9.28771V15H0.142883ZM0.142883 9.05717V6.08574H14.5133V9.05717H0.142883ZM0.142883 3.11431V0.142883H14.5133V3.11431H0.142883Z" fill="#06283D"/>
</svg>
