<svg width="11" height="11" viewBox="0 0 11 11" fill="none" xmlns="http://www.w3.org/2000/svg">
<path fill-rule="evenodd" clip-rule="evenodd" d="M6.5141 2.16008C6.5141 2.42058 6.40726 2.67041 6.21708 2.85461C6.0269 3.03881 5.76896 3.1423 5.5 3.1423C5.23104 3.1423 4.9731 3.03881 4.78292 2.85461C4.59274 2.67041 4.4859 2.42058 4.4859 2.16008C4.4859 1.89958 4.59274 1.64975 4.78292 1.46555C4.9731 1.28135 5.23104 1.17787 5.5 1.17787C5.76896 1.17787 6.0269 1.28135 6.21708 1.46555C6.40726 1.64975 6.5141 1.89958 6.5141 2.16008ZM7.48764 3.1423C7.66103 2.81287 7.74425 2.44586 7.72932 2.07638C7.71439 1.7069 7.60182 1.34731 7.40239 1.03202C7.20295 0.71672 6.92331 0.456267 6.59023 0.275576C6.25715 0.0948846 5.88177 0 5.5 0C5.11823 0 4.74285 0.0948846 4.40977 0.275576C4.07669 0.456267 3.79705 0.71672 3.59761 1.03202C3.39818 1.34731 3.28561 1.7069 3.27068 2.07638C3.25575 2.44586 3.33897 2.81287 3.51236 3.1423H2.10884C1.92136 3.14241 1.73971 3.2054 1.59476 3.32058C1.44982 3.43575 1.35053 3.59599 1.31379 3.77406L0.0157358 10.0602C-0.00778063 10.1742 -0.0049081 10.2918 0.0241464 10.4045C0.053201 10.5173 0.107714 10.6224 0.183759 10.7123C0.259803 10.8021 0.355485 10.8746 0.463912 10.9243C0.572339 10.9741 0.69081 10.9999 0.810792 11H10.1892C10.3092 10.9999 10.4277 10.9741 10.5361 10.9243C10.6445 10.8746 10.7402 10.8021 10.8162 10.7123C10.8923 10.6224 10.9468 10.5173 10.9759 10.4045C11.0049 10.2918 11.0078 10.1742 10.9843 10.0602L9.68621 3.77406C9.64947 3.59599 9.55018 3.43575 9.40524 3.32058C9.26029 3.2054 9.07864 3.14241 8.89116 3.1423H7.48764ZM5.5 4.32095H2.44147L1.30567 9.82134H9.69433L8.55853 4.32095H5.5Z" fill="#06283D"/>
</svg>
