<svg width="9" height="11" viewBox="0 0 9 11" fill="none" xmlns="http://www.w3.org/2000/svg">
<path d="M7.4117 0.134051C7.33015 0.0482139 7.21959 0 7.10433 0C6.98906 0 6.87851 0.0482139 6.79696 0.134051L5.3471 1.66194C5.27026 1.74883 5.22844 1.86376 5.23042 1.98251C5.23241 2.10125 5.27806 2.21455 5.35775 2.29853C5.43745 2.38251 5.54496 2.43062 5.65764 2.43272C5.77033 2.43481 5.87938 2.39073 5.96184 2.30977L7.10433 1.10579L8.24682 2.30977C8.28664 2.3548 8.33466 2.39092 8.38801 2.41597C8.44137 2.44103 8.49897 2.4545 8.55737 2.45558C8.61577 2.45667 8.67378 2.44535 8.72794 2.42229C8.7821 2.39924 8.8313 2.36493 8.8726 2.3214C8.91391 2.27788 8.94647 2.22603 8.96834 2.16895C8.99022 2.11188 9.00096 2.05075 8.99993 1.9892C8.9989 1.92766 8.98612 1.86696 8.96235 1.81073C8.93857 1.75451 8.9043 1.7039 8.86156 1.66194L7.4117 0.134051ZM0 1.98096C0 1.61626 0.137478 1.2665 0.38219 1.00862C0.626902 0.75074 0.958802 0.605863 1.30488 0.605863H3.62466C3.74002 0.605863 3.85065 0.654155 3.93222 0.740116C4.01379 0.826076 4.05962 0.942664 4.05962 1.06423C4.05962 1.1858 4.01379 1.30238 3.93222 1.38834C3.85065 1.47431 3.74002 1.5226 3.62466 1.5226H1.30488C1.18952 1.5226 1.07888 1.57089 0.997314 1.65685C0.915744 1.74281 0.869918 1.8594 0.869918 1.98096V9.00926C0.869918 9.26228 1.06478 9.46762 1.30488 9.46762H3.62466C3.74002 9.46762 3.85065 9.51592 3.93222 9.60188C4.01379 9.68784 4.05962 9.80443 4.05962 9.92599C4.05962 10.0476 4.01379 10.1641 3.93222 10.2501C3.85065 10.3361 3.74002 10.3844 3.62466 10.3844H1.30488C0.958802 10.3844 0.626902 10.2395 0.38219 9.9816C0.137478 9.72372 0 9.37396 0 9.00926V1.98096ZM7.4117 10.8659L8.86156 9.33806C8.9043 9.2961 8.93857 9.24549 8.96235 9.18927C8.98612 9.13304 8.9989 9.07234 8.99993 9.0108C9.00096 8.94925 8.99022 8.88812 8.96834 8.83105C8.94647 8.77397 8.91391 8.72213 8.8726 8.6786C8.8313 8.63507 8.7821 8.60076 8.72794 8.57771C8.67378 8.55465 8.61577 8.54333 8.55737 8.54442C8.49897 8.5455 8.44137 8.55897 8.38801 8.58403C8.33466 8.60908 8.28664 8.6452 8.24682 8.69023L7.10433 9.89421L5.96184 8.69023C5.92202 8.6452 5.874 8.60908 5.82064 8.58403C5.76729 8.55897 5.70969 8.5455 5.65129 8.54442C5.59289 8.54333 5.53488 8.55465 5.48072 8.57771C5.42656 8.60076 5.37736 8.63507 5.33605 8.6786C5.29475 8.72213 5.26219 8.77397 5.24031 8.83105C5.21844 8.88812 5.20769 8.94925 5.20872 9.0108C5.20975 9.07234 5.22254 9.13304 5.24631 9.18927C5.27008 9.24549 5.30436 9.2961 5.3471 9.33806L6.79696 10.8659C6.87851 10.9518 6.98906 11 7.10433 11C7.21959 11 7.33015 10.9518 7.4117 10.8659ZM7.10433 4.88884C6.98897 4.88884 6.87834 4.93714 6.79677 5.0231C6.7152 5.10906 6.66937 5.22564 6.66937 5.34721V5.65279C6.66937 5.77436 6.7152 5.89094 6.79677 5.9769C6.87834 6.06286 6.98897 6.11116 7.10433 6.11116C7.21969 6.11116 7.33032 6.06286 7.41189 5.9769C7.49346 5.89094 7.53929 5.77436 7.53929 5.65279V5.34721C7.53929 5.22564 7.49346 5.10906 7.41189 5.0231C7.33032 4.93714 7.21969 4.88884 7.10433 4.88884ZM6.66937 7.48626C6.66937 7.36469 6.7152 7.2481 6.79677 7.16214C6.87834 7.07618 6.98897 7.02789 7.10433 7.02789C7.21969 7.02789 7.33032 7.07618 7.41189 7.16214C7.49346 7.2481 7.53929 7.36469 7.53929 7.48626V8.09741C7.53929 8.21898 7.49346 8.33557 7.41189 8.42153C7.33032 8.50749 7.21969 8.55578 7.10433 8.55578C6.98897 8.55578 6.87834 8.50749 6.79677 8.42153C6.7152 8.33557 6.66937 8.21898 6.66937 8.09741V7.48626ZM7.10433 2.44422C6.98897 2.44422 6.87834 2.49251 6.79677 2.57847C6.7152 2.66443 6.66937 2.78102 6.66937 2.90259V3.51374C6.66937 3.63531 6.7152 3.7519 6.79677 3.83786C6.87834 3.92382 6.98897 3.97211 7.10433 3.97211C7.21969 3.97211 7.33032 3.92382 7.41189 3.83786C7.49346 3.7519 7.53929 3.63531 7.53929 3.51374V2.90259C7.53929 2.78102 7.49346 2.66443 7.41189 2.57847C7.33032 2.49251 7.21969 2.44422 7.10433 2.44422Z" fill="#06283D"/>
</svg>
