<svg width="24" height="20" viewBox="0 0 24 20" fill="none" xmlns="http://www.w3.org/2000/svg">
<path d="M8.00061 11.9964C8.88744 11.9962 9.74918 12.2907 10.4503 12.8336C11.1515 13.3765 11.6523 14.137 11.874 14.9955H22.9983C23.2482 14.9951 23.4891 15.0882 23.6738 15.2565C23.8584 15.4248 23.9733 15.6561 23.9959 15.9049C24.0185 16.1537 23.9471 16.4019 23.7957 16.6007C23.6444 16.7995 23.4241 16.9344 23.1783 16.979L22.9983 16.9949L11.874 16.9969C11.6531 17.8562 11.1526 18.6176 10.4513 19.1613C9.75011 19.7049 8.88796 20 8.00061 20C7.11327 20 6.25112 19.7049 5.54989 19.1613C4.84866 18.6176 4.34817 17.8562 4.12721 16.9969L1.00169 16.9949C0.751836 16.9954 0.510864 16.9023 0.326227 16.734C0.141589 16.5657 0.0266673 16.3344 0.00409183 16.0856C-0.0184836 15.8368 0.0529234 15.5885 0.204251 15.3898C0.355579 15.191 0.575861 15.056 0.821717 15.0115L1.00169 14.9955H4.12721C4.34892 14.137 4.84972 13.3765 5.55089 12.8336C6.25205 12.2907 7.11379 11.9962 8.00061 11.9964ZM8.00061 13.9958C7.47026 13.9958 6.96163 14.2065 6.58662 14.5815C6.2116 14.9564 6.00092 15.465 6.00092 15.9952C6.00092 16.5255 6.2116 17.0341 6.58662 17.409C6.96163 17.784 7.47026 17.9946 8.00061 17.9946C8.53097 17.9946 9.0396 17.784 9.41461 17.409C9.78963 17.0341 10.0003 16.5255 10.0003 15.9952C10.0003 15.465 9.78963 14.9564 9.41461 14.5815C9.0396 14.2065 8.53097 13.9958 8.00061 13.9958ZM15.9994 1.29245e-07C16.8862 -0.000225229 17.7479 0.294264 18.4491 0.837162C19.1503 1.38006 19.6511 2.14057 19.8728 2.99911H22.9983C23.2482 2.99865 23.4891 3.09174 23.6738 3.26005C23.8584 3.42836 23.9733 3.65969 23.9959 3.90848C24.0185 4.15728 23.9471 4.40551 23.7957 4.60429C23.6444 4.80308 23.4241 4.93801 23.1783 4.98252L22.9983 4.99851L19.8728 5.00051C19.6518 5.85978 19.1513 6.62118 18.4501 7.16484C17.7489 7.70851 16.8867 8.00357 15.9994 8.00357C15.112 8.00357 14.2499 7.70851 13.5487 7.16484C12.8474 6.62118 12.3469 5.85978 12.126 5.00051L1.00169 4.99851C0.751836 4.99897 0.510864 4.90588 0.326227 4.73757C0.141589 4.56927 0.0266673 4.33794 0.00409183 4.08914C-0.0184836 3.84035 0.0529234 3.59211 0.204251 3.39333C0.355579 3.19454 0.575861 3.05961 0.821717 3.0151L1.00169 2.99911H12.126C12.3477 2.14057 12.8485 1.38006 13.5497 0.837162C14.2508 0.294264 15.1126 -0.000225229 15.9994 1.29245e-07ZM15.9994 1.99941C15.469 1.99941 14.9604 2.21006 14.5854 2.58502C14.2104 2.95998 13.9997 3.46854 13.9997 3.99881C13.9997 4.52909 14.2104 5.03764 14.5854 5.4126C14.9604 5.78757 15.469 5.99822 15.9994 5.99822C16.5297 5.99822 17.0384 5.78757 17.4134 5.4126C17.7884 5.03764 17.9991 4.52909 17.9991 3.99881C17.9991 3.46854 17.7884 2.95998 17.4134 2.58502C17.0384 2.21006 16.5297 1.99941 15.9994 1.99941Z" fill="#06283D"/>
</svg>
