<svg width="32" height="32" viewBox="0 0 32 32" fill="none" xmlns="http://www.w3.org/2000/svg">
<path d="M20.1778 31.7962L10.6667 28.4211L2.4 31.6612C1.80741 31.9012 1.25926 31.8334 0.755555 31.4578C0.251852 31.0834 0 30.5812 0 29.9511V4.75043C0 4.36042 0.111407 4.01541 0.334222 3.7154C0.555852 3.41539 0.859259 3.19038 1.24444 3.04038L9.51111 0.205298C9.8963 0.0852942 10.2815 0.0174925 10.6667 0.00189203C11.0519 -0.0125084 11.437 0.0552934 11.8222 0.205298L21.3333 3.58039L29.6 0.340302C30.1926 0.100295 30.7407 0.167497 31.2444 0.541907C31.7481 0.917518 32 1.42033 32 2.05035V27.2511C32 27.6411 31.8886 27.9861 31.6658 28.2861C31.4441 28.5861 31.1407 28.8111 30.7556 28.9611L22.4889 31.7962C22.1037 31.9162 21.7185 31.9834 21.3333 31.9978C20.9481 32.0134 20.563 31.9462 20.1778 31.7962ZM19.5556 27.7911V6.73048L12.4444 4.21041V25.271L19.5556 27.7911ZM23.1111 27.7911L28.4444 25.991V4.66042L23.1111 6.73048V27.7911ZM3.55556 27.3411L8.88889 25.271V4.21041L3.55556 6.01046V27.3411Z" fill="#446881"/>
</svg>
