<svg width="11" height="15" viewBox="0 0 11 15" fill="none" xmlns="http://www.w3.org/2000/svg">
<path d="M5.36471 0.0235596L4.69412 0.776444C4.69412 0.776444 3.54965 2.07607 2.39624 3.76109C1.24282 5.44612 0 7.46277 0 9.39876C0 10.825 0.565209 12.1929 1.57129 13.2014C2.57736 14.2099 3.9419 14.7765 5.36471 14.7765C6.78751 14.7765 8.15205 14.2099 9.15813 13.2014C10.1642 12.1929 10.7294 10.825 10.7294 9.39876C10.7294 7.46277 9.48659 5.44612 8.33318 3.76109C7.62176 2.72519 6.85467 1.72883 6.03529 0.776444L5.36471 0.0235596ZM5.36471 2.82895C5.75812 3.29502 6.11576 3.68042 6.86682 4.7739C7.94871 6.35137 8.94118 8.35906 8.94118 9.39876C8.94118 11.3885 7.34965 12.9839 5.36471 12.9839C3.37976 12.9839 1.78824 11.3885 1.78824 9.39876C1.78824 8.35906 2.78071 6.35137 3.86259 4.7739C4.61365 3.68042 4.97129 3.29502 5.36471 2.82895Z" fill="#06283D"/>
</svg>
