<svg width="28" height="31" viewBox="0 0 28 31" fill="none" xmlns="http://www.w3.org/2000/svg">
<path d="M3.5 27.4571H8.75V16.8286H19.25V27.4571H24.5V11.5143L14 3.54286L3.5 11.5143V27.4571ZM3.5 31C2.5375 31 1.71383 30.6534 1.029 29.9602C0.343 29.2658 0 28.4314 0 27.4571V11.5143C0 10.9533 0.12425 10.4219 0.37275 9.92C0.620083 9.4181 0.9625 9.00476 1.4 8.68L11.9 0.708572C12.2208 0.472381 12.5562 0.295238 12.9062 0.177143C13.2563 0.0590475 13.6208 0 14 0C14.3792 0 14.7437 0.0590475 15.0938 0.177143C15.4438 0.295238 15.7792 0.472381 16.1 0.708572L26.6 8.68C27.0375 9.00476 27.3805 9.4181 27.629 9.92C27.8763 10.4219 28 10.9533 28 11.5143V27.4571C28 28.4314 27.6576 29.2658 26.9727 29.9602C26.2867 30.6534 25.4625 31 24.5 31H15.75V20.3714H12.25V31H3.5Z" fill="#06283D"/>
</svg>
